<svg xmlns="http://www.w3.org/2000/svg" width="515.831" height="315.48" viewBox="0 0 515.831 315.48">
  <g id="Subscriber-pana" transform="translate(0 0)">
    <g id="freepik--background-complete--inject-144" transform="translate(0 0)">
      <rect id="Rectangle_26870" data-name="Rectangle 26870" width="43.677" height="64.798" transform="translate(439.171 225.178) rotate(-67.2)" fill="#ebebeb"/>
      <path id="Path_7944" data-name="Path 7944" d="M686.621,299.793a5.5,5.5,0,0,1-.785.3l-2.276.785-8.406,2.684L647.3,312.21l-.228.071-.118-.212-.275-.51L632.552,285.54c-1.75-3.3-3.186-5.988-4.207-7.919-.463-.9-.84-1.617-1.122-2.166a4.988,4.988,0,0,1-.353-.785,4.243,4.243,0,0,1,.463.722l1.217,2.111c1.06,1.907,2.543,4.568,4.372,7.849,3.665,6.687,8.688,15.831,14.237,25.9l.275.518-.345-.141,27.964-8.445,8.469-2.512,2.307-.651a4.07,4.07,0,0,1,.793-.228Z" transform="translate(-170.826 -89.193)" fill="#e0e0e0"/>
      <path id="Path_7945" data-name="Path 7945" d="M605.36,321.7c-.078-.141,6.734-3.775,15.211-8.108s15.407-7.731,15.485-7.582-6.742,3.775-15.218,8.108S605.43,321.831,605.36,321.7Z" transform="translate(-166.198 -95.934)" fill="#e0e0e0"/>
      <path id="Path_7946" data-name="Path 7946" d="M670,316c.157-.039,2.3,7.3,4.772,16.4s4.356,16.482,4.2,16.56-2.292-7.3-4.764-16.4S669.873,316,670,316Z" transform="translate(-180.104 -98.085)" fill="#e0e0e0"/>
      <rect id="Rectangle_26871" data-name="Rectangle 26871" width="32.477" height="48.19" transform="translate(60.536 288.366) rotate(-67.2)" fill="#f5f5f5"/>
      <path id="Path_7947" data-name="Path 7947" d="M183.384,386.882a2.944,2.944,0,0,1-.581.228l-1.687.557-6.279,2-20.728,6.451-.173.055-.086-.157c-.063-.126-.133-.251-.212-.385l-10.47-19.347-3.139-5.894-.832-1.609a4.005,4.005,0,0,1-.267-.573,2.881,2.881,0,0,1,.345.534l.9,1.57c.785,1.413,1.9,3.391,3.249,5.824l10.588,19.284c.071.133.141.267.212.385l-.259-.1,20.767-6.326,6.279-1.868,1.719-.487a2.945,2.945,0,0,1,.651-.141Z" transform="translate(-65.848 -109.318)" fill="#e0e0e0"/>
      <path id="Path_7948" data-name="Path 7948" d="M122.94,403.11c-.055-.11,5.007-2.81,11.31-6.036s11.5-5.745,11.5-5.635-5.007,2.8-11.31,6.028S122.987,403.212,122.94,403.11Z" transform="translate(-62.408 -114.315)" fill="#e0e0e0"/>
      <path id="Path_7949" data-name="Path 7949" d="M171,398.87c.11,0,1.7,5.431,3.54,12.2s3.241,12.283,3.139,12.314-1.711-5.431-3.548-12.2S170.913,398.9,171,398.87Z" transform="translate(-72.747 -115.914)" fill="#e0e0e0"/>
      <rect id="Rectangle_26872" data-name="Rectangle 26872" width="56.674" height="54.838" transform="translate(0 181.036) rotate(-21.62)" fill="#f5f5f5"/>
      <path id="Path_7950" data-name="Path 7950" d="M74.54,317.566l4.183-32.006,18.57,12.04,3.712-11.773,18.06,14.1Z" transform="translate(-51.995 -91.536)" fill="#e0e0e0"/>
      <path id="Path_7951" data-name="Path 7951" d="M96.841,269.772a4.073,4.073,0,1,1-2.173-2.246,4.081,4.081,0,0,1,2.173,2.246Z" transform="translate(-55.098 -87.584)" fill="#e0e0e0"/>
      <g id="Group_12398" data-name="Group 12398" transform="translate(5.535 165.722)" opacity="0.3">
        <path id="Path_7952" data-name="Path 7952" d="M114.457,292.314a1.366,1.366,0,0,1-.094-.2c-.063-.157-.149-.345-.251-.589l-.934-2.292c-.785-2.009-1.986-4.929-3.485-8.633-2.975-7.433-7.221-18.052-12.307-30.735l.3.133-44.5,17.675c-.039.078.283-.659.149-.345v.173l.071.181.141.369.29.722.573,1.452c.385.958.785,1.923,1.138,2.873l2.253,5.682,4.348,10.988,7.935,20.108-.3-.126L102.009,297.1l9.1-3.548,2.417-.926.628-.235a1.38,1.38,0,0,1,.228-.071l-.188.086-.6.251-2.355.965-9.01,3.634-32.21,12.911-.22.094-.086-.22c-2.472-6.208-5.156-12.958-7.99-20.092Q59.6,284.6,57.367,278.963c-.738-1.876-1.491-3.767-2.245-5.674-.385-.958-.785-1.915-1.146-2.88l-.573-1.452-.29-.722-.141-.361-.071-.188v-.133h0c-.133.306.181-.44.157-.361l44.525-17.6.22-.086.086.212,12.142,30.963,3.351,8.633.871,2.26c.086.243.157.432.212.573a.887.887,0,0,1-.008.173Z" transform="translate(-52.868 -249.5)" fill="#e0e0e0"/>
      </g>
      <path id="Path_7953" data-name="Path 7953" d="M488.959,412.237l-2.849-2.056a8.28,8.28,0,0,1-3.21-4.835l-2.009-8.633a11.7,11.7,0,0,0-12.283-8.963l-.785-3.344a1.57,1.57,0,0,0-1.891-1.177h0a1.57,1.57,0,0,0-1.177,1.892l.785,3.281a11.694,11.694,0,0,0-7.433,13.656l1.923,8.288a8.265,8.265,0,0,1-.557,5.384l-1.782,3.822,11.592-2.763a4.886,4.886,0,0,0,8.955-2.08Z" transform="translate(-134.428 -112.54)" fill="#ebebeb"/>
      <path id="Path_7954" data-name="Path 7954" d="M499.976,120.09,550.191,152.9l-21.16,34.9L477.6,152.968Z" transform="translate(-138.712 -55.936)" fill="#f5f5f5"/>
      <path id="Path_7955" data-name="Path 7955" d="M506.11,119.144l36.354-3.438a3.257,3.257,0,0,1,3.422,2.284l10.439,33.961" transform="translate(-144.845 -54.989)" fill="#4d8a8b"/>
      <path id="Path_7956" data-name="Path 7956" d="M506.11,119.144l36.354-3.438a3.257,3.257,0,0,1,3.422,2.284l10.439,33.961" transform="translate(-144.845 -54.989)" fill="#e0e0e0"/>
      <path id="Path_7957" data-name="Path 7957" d="M477.6,160c0-.1,6.875-1.813,15.415-3.822s15.509-3.579,15.509-3.477-6.875,1.805-15.407,3.822S477.624,160.084,477.6,160Z" transform="translate(-138.712 -62.95)" fill="#e0e0e0"/>
      <path id="Path_7958" data-name="Path 7958" d="M541.938,197.939c-.1,0-1.162-6.852-2.355-15.336S537.5,167.228,537.6,167.22s1.154,6.844,2.355,15.336S542.04,197.924,541.938,197.939Z" transform="translate(-151.618 -66.076)" fill="#e0e0e0"/>
      <path id="Path_7959" data-name="Path 7959" d="M506.11,120.09l11.812,36.2,38.4-3.391Z" transform="translate(-144.845 -55.936)" fill="#e0e0e0"/>
      <path id="Path_7960" data-name="Path 7960" d="M507.75,120.288l10.282-15.658,44.1,28.529-10.407,16.749-33.278,2.786Z" transform="translate(-145.198 -52.61)" fill="#fafafa"/>
      <path id="Path_7961" data-name="Path 7961" d="M507.75,120.256s.078.2.212.589l.6,1.711c.51,1.523,1.248,3.72,2.2,6.53,1.884,5.643,4.584,13.727,7.849,23.546l-.173-.118,33.278-2.825-.157.094,6.185-9.96q2.143-3.438,4.222-6.789l.063.283-44.062-28.592h.181L510.528,116.2c-.887,1.326-1.57,2.355-2.048,3.061l-.542.785c-.118.181-.188.267-.188.267s.047-.094.157-.275.283-.455.5-.785l1.978-3.084,7.535-11.577.071-.11.11.071,44.14,28.467.165.11-.1.173-4.223,6.789-6.185,9.9-.055.086h-.1l-33.278,2.755h-.133l-.039-.126-7.723-23.632c-.91-2.81-1.625-5.015-2.111-6.538l-.542-1.711C507.8,120.452,507.75,120.256,507.75,120.256Z" transform="translate(-145.198 -52.577)" fill="#e0e0e0"/>
      <path id="Path_7962" data-name="Path 7962" d="M553.348,139.75c-.063.094-6.828-4.23-15.116-9.662s-14.959-9.9-14.912-10,6.828,4.23,15.116,9.662S553.411,139.64,553.348,139.75Z" transform="translate(-148.548 -55.935)" fill="#e0e0e0"/>
      <path id="Path_7963" data-name="Path 7963" d="M549.618,145.37c-.063.094-6.828-4.23-15.116-9.662s-14.959-9.9-14.912-10,6.828,4.23,15.124,9.662S549.681,145.276,549.618,145.37Z" transform="translate(-147.745 -57.145)" fill="#e0e0e0"/>
      <path id="Path_7964" data-name="Path 7964" d="M545.318,151.84c-.055.094-6.828-4.23-15.116-9.654s-14.959-9.913-14.912-10.007,6.836,4.23,15.124,9.662S545.381,151.746,545.318,151.84Z" transform="translate(-146.82 -58.537)" fill="#e0e0e0"/>
      <path id="Path_7965" data-name="Path 7965" d="M541.409,158.567c-.063.094-6.522-4.026-14.433-9.206s-14.269-9.418-14.206-9.552,6.522,4.026,14.433,9.206S541.472,158.473,541.409,158.567Z" transform="translate(-146.278 -60.178)" fill="#e0e0e0"/>
      <path id="Path_7966" data-name="Path 7966" d="M533.585,161.571a3.467,3.467,0,0,1-.722-.385l-1.907-1.154-6.177-3.924c-2.409-1.57-4.568-2.975-6.122-4.026-.785-.526-1.4-.965-1.821-1.271a3.139,3.139,0,0,1-.636-.51,2.975,2.975,0,0,1,.722.377l1.891,1.162L525,155.763c2.41,1.57,4.568,2.967,6.114,4.026.785.526,1.4.958,1.821,1.271a3.141,3.141,0,0,1,.651.51Z" transform="translate(-147.016 -62.435)" fill="#e0e0e0"/>
      <path id="Path_7967" data-name="Path 7967" d="M525.8,164.2a18,18,0,0,1-3.3-1.946,17.755,17.755,0,0,1-3.077-2.292,18,18,0,0,1,3.3,1.946A17.753,17.753,0,0,1,525.8,164.2Z" transform="translate(-147.711 -64.514)" fill="#e0e0e0"/>
      <path id="Path_7968" data-name="Path 7968" d="M272.391,155.788l-7.715,11.49-3.006-1.24-22.376,14.127-4.364-11.843s12.668-3.744,15.415-7.778.283-5.313.283-5.313l6.444-5.761Z" transform="translate(-86.502 -62.257)" fill="#ebebeb"/>
      <path id="Path_7969" data-name="Path 7969" d="M255.851,111.137s-8.9-3.139-20.281-17.023-15.462-31.065-17.047-31.19-8.076-4.12-24.558,22.761-12.126,34.1-9.512,34.361,20.861-2.551,31.747,0,24.385,10.023,24.385,10.023Z" transform="translate(-75.095 -43.577)" fill="#ebebeb"/>
      <path id="Path_7970" data-name="Path 7970" d="M288.9,142.063l-3.83,5.557-1.711,2.488a7.8,7.8,0,0,1-10.509,2.221l-18.774-9.175,14.528-24.684,18.373,12.777A7.794,7.794,0,0,1,288.9,142.063Z" transform="translate(-90.622 -55.587)" fill="#e0e0e0"/>
      <path id="Path_7971" data-name="Path 7971" d="M195.478,86.5c-8.806,14.575-13.343,27.957-10.148,29.9s12.942-8.312,21.74-22.886,13.343-27.964,10.148-29.9S204.276,71.928,195.478,86.5Z" transform="translate(-75.611 -43.735)" fill="#e0e0e0"/>
      <path id="Path_7972" data-name="Path 7972" d="M290.082,147.4c-.094.157-2.621-1.185-5.643-3.014s-5.384-3.438-5.29-3.595,2.629,1.185,5.643,3.006S290.184,147.23,290.082,147.4Z" transform="translate(-96.015 -60.386)" fill="#ebebeb"/>
      <path id="Path_7973" data-name="Path 7973" d="M293.044,142.959c-.1.165-2.355-1.138-5.086-2.9s-4.819-3.312-4.709-3.477,2.355,1.138,5.086,2.9S293.146,142.8,293.044,142.959Z" transform="translate(-96.897 -59.482)" fill="#ebebeb"/>
      <path id="Path_7974" data-name="Path 7974" d="M287.127,152.238c-.039.086-.651-.133-1.617-.565-.487-.22-1.06-.487-1.7-.785a20.455,20.455,0,0,1-1.946-1.162c-2.747-1.7-4.811-3.281-4.709-3.43s2.355,1.169,5.07,2.849c.683.408,1.311.855,1.907,1.193s1.146.636,1.57.9C286.624,151.775,287.166,152.152,287.127,152.238Z" transform="translate(-95.587 -61.572)" fill="#ebebeb"/>
      <path id="Path_7975" data-name="Path 7975" d="M213.036,90.178s-7.362-5.879-12.989,4.332,2.512,12.981,2.512,12.981a72.206,72.206,0,0,0,10.478-17.314Z" transform="translate(-78.571 -49.138)" fill="#fafafa"/>
      <path id="Path_7976" data-name="Path 7976" d="M222.075,75.63a11.248,11.248,0,0,1-.557,2.009c-.408,1.279-.989,3.139-1.774,5.423-.479,1.107-1,2.355-1.57,3.626l-.871,2.017c-.149.345-.3.7-.455,1.052s-.361.7-.542,1.052q-1.13,2.111-2.355,4.419-.306.565-.612,1.154a11.491,11.491,0,0,1-.706,1.13l-1.428,2.3-1.483,2.292a11.3,11.3,0,0,1-.738,1.107l-.785,1.044-3.045,3.971c-.251.314-.479.636-.73.934l-.785.848-1.483,1.632-2.653,2.92c-1.742,1.656-3.194,2.959-4.183,3.861a12.2,12.2,0,0,1-1.609,1.342,13,13,0,0,1,1.421-1.57l4.034-4.018,2.574-2.951,1.436-1.64c.251-.275.5-.565.785-.855a10.037,10.037,0,0,0,.714-.926l2.99-3.971.785-1.044c.267-.345.479-.73.73-1.1l1.46-2.284,1.468-2.276c.228-.377.494-.73.7-1.122l.62-1.146c.785-1.515,1.609-2.975,2.355-4.364.181-.353.385-.691.549-1.036s.314-.7.463-1.044l.895-1.994,1.617-3.571,1.978-5.321a13.13,13.13,0,0,1,.793-1.9Z" transform="translate(-77.634 -46.37)" fill="#e0e0e0"/>
      <path id="Path_7977" data-name="Path 7977" d="M168.605,102.227c0,.118-5.769-.078-12.879-.424s-12.864-.722-12.856-.832,5.769.078,12.879.424S168.613,102.117,168.605,102.227Z" transform="translate(-66.696 -51.816)" fill="#ebebeb"/>
      <path id="Path_7978" data-name="Path 7978" d="M174.675,77.049c-.047.1-6.734-3.139-14.912-7.3S144.945,62.184,145,62.089s6.734,3.139,14.912,7.291S174.73,76.931,174.675,77.049Z" transform="translate(-67.154 -43.457)" fill="#ebebeb"/>
      <path id="Path_7979" data-name="Path 7979" d="M193.985,61.1c-.11,0-1.57-5.039-3.234-11.318s-2.943-11.4-2.833-11.435,1.57,5.047,3.234,11.325S194.095,61.072,193.985,61.1Z" transform="translate(-76.386 -38.35)" fill="#ebebeb"/>
      <path id="Path_7980" data-name="Path 7980" d="M474.586,83.638a9.583,9.583,0,0,0-3.3-4.709,9.175,9.175,0,0,0-5.219-2.08,7.535,7.535,0,0,0-5.494,2.111,7.44,7.44,0,0,0-1.876,3.045,7.4,7.4,0,0,0-8.5-2.111,9.143,9.143,0,0,0-4.215,3.72,9.552,9.552,0,0,0-1.57,5.541,11.616,11.616,0,0,0,2.653,6.813,16.388,16.388,0,0,0,6.5,4.277c4.034,1.57,9.324,3.493,9.324,3.493s3.548-3.744,6.82-6.585a16.482,16.482,0,0,0,4.709-6.208,11.686,11.686,0,0,0,.173-7.307Z" transform="translate(-131.57 -46.632)" fill="#ebebeb"/>
      <path id="Path_7981" data-name="Path 7981" d="M433,57.161a5.706,5.706,0,0,0-.95-3.265,5.4,5.4,0,0,0-2.527-2.174,4.45,4.45,0,0,0-3.5.118,4.537,4.537,0,0,0-1.656,1.4,4.317,4.317,0,0,0-1.067-1.57,4.419,4.419,0,0,0-3.281-1.209,5.392,5.392,0,0,0-3.061,1.209,5.682,5.682,0,0,0-1.923,2.81,6.907,6.907,0,0,0,.173,4.325,9.7,9.7,0,0,0,2.825,3.642c1.954,1.656,4.552,3.752,4.552,3.752s2.7-1.413,5.078-2.355a9.622,9.622,0,0,0,3.822-2.574,6.93,6.93,0,0,0,1.515-4.1Z" transform="translate(-125.194 -40.954)" fill="#ebebeb"/>
      <path id="Path_7982" data-name="Path 7982" d="M247.447,384.911a5.635,5.635,0,0,0-2.26-2.543,5.494,5.494,0,0,0-3.218-.879,4.364,4.364,0,0,0-4,3.532,4.356,4.356,0,0,0-1.656-.989,4.458,4.458,0,0,0-3.485.314,5.447,5.447,0,0,0-2.237,2.48,5.667,5.667,0,0,0-.526,3.359,6.86,6.86,0,0,0,2.017,3.838,9.772,9.772,0,0,0,4.113,2.072c2.48.651,5.722,1.428,5.722,1.428s1.829-2.441,3.571-4.332a9.756,9.756,0,0,0,2.355-3.924,6.915,6.915,0,0,0-.392-4.356Z" transform="translate(-85.441 -112.174)" fill="#ebebeb"/>
      <path id="Path_7983" data-name="Path 7983" d="M636.354,188.857a26.37,26.37,0,0,0-.463-4.12,16.244,16.244,0,0,0-1.711-4.529,16.725,16.725,0,0,0-19.786-7.849,15.531,15.531,0,0,0-4.3,2.111,19.837,19.837,0,0,0-1.946,1.53,19.328,19.328,0,0,0-1.7,1.868,16.584,16.584,0,0,0-.785,19.668,18.547,18.547,0,0,0,1.57,1.994,19.4,19.4,0,0,0,1.829,1.687,15.87,15.87,0,0,0,4.12,2.433,16.765,16.765,0,0,0,8.728,1.075,16.482,16.482,0,0,0,7.15-2.825,16.733,16.733,0,0,0,4.458-4.568,15.981,15.981,0,0,0,2.056-4.379,26.326,26.326,0,0,0,.785-4.073s0,.094,0,.275a5.146,5.146,0,0,1-.047.785,8.517,8.517,0,0,1-.157,1.3,12.485,12.485,0,0,1-.392,1.75,16.1,16.1,0,0,1-2.009,4.482A16.989,16.989,0,0,1,613,204.067a16.356,16.356,0,0,1-4.254-2.488,21.615,21.615,0,0,1-1.884-1.727,20.489,20.489,0,0,1-1.57-2.048,17.047,17.047,0,0,1,.785-20.273,19.619,19.619,0,0,1,1.758-1.923,19.922,19.922,0,0,1,2.017-1.57,15.893,15.893,0,0,1,4.434-2.158,17.032,17.032,0,0,1,20.179,8.186,15.931,15.931,0,0,1,1.656,4.623,12.126,12.126,0,0,1,.251,1.774,7.172,7.172,0,0,1,.055,1.311v.785A.425.425,0,0,1,636.354,188.857Z" transform="translate(-165.547 -66.906)" fill="#e0e0e0"/>
      <path id="Path_7984" data-name="Path 7984" d="M619.261,205.593a16.843,16.843,0,0,1-6.538-1.271,16.482,16.482,0,0,1-4.348-2.543,14.756,14.756,0,0,1-1.57-1.413l-.345-.337-.306-.353a16.318,16.318,0,0,1-1.366-1.774,17.455,17.455,0,0,1,.785-20.728,16.611,16.611,0,0,1,1.491-1.648l.3-.3.392-.337a16.256,16.256,0,0,1,1.687-1.3,16.528,16.528,0,0,1,4.529-2.2,17.643,17.643,0,0,1,9.222-.369,17.416,17.416,0,0,1,11.42,8.751,16.27,16.27,0,0,1,1.7,4.709,10.416,10.416,0,0,1,.243,1.632v.173a7.678,7.678,0,0,1,.055,1.358v.785a3,3,0,0,1,0,.306v.251l-.047.785a9.412,9.412,0,0,1-.165,1.358v.165a12.29,12.29,0,0,1-.369,1.625,16.394,16.394,0,0,1-2.056,4.568,17.439,17.439,0,0,1-12.063,7.849A19.886,19.886,0,0,1,619.261,205.593Zm0-33.749a15.18,15.18,0,0,0-4.89.785,14.991,14.991,0,0,0-4.2,2.056,13.618,13.618,0,0,0-1.57,1.185l-.667.612a14.609,14.609,0,0,0-1.279,1.491,16.2,16.2,0,0,0-.785,19.213,15.467,15.467,0,0,0,1.256,1.633l.282.33.322.322a13.727,13.727,0,0,0,1.436,1.264,15.123,15.123,0,0,0,4.034,2.355,16.309,16.309,0,0,0,19.857-6.161,15.761,15.761,0,0,0,2.009-4.27,19.1,19.1,0,0,0,.706-3.618.843.843,0,0,1,.047-.369c.047-.094,0-.212,0-.369a19.191,19.191,0,0,0-.424-3.657,16.018,16.018,0,0,0-1.672-4.419,16.482,16.482,0,0,0-3.995-4.78,16.285,16.285,0,0,0-6.75-3.3,17.927,17.927,0,0,0-3.7-.33Z" transform="translate(-165.423 -66.8)" fill="#e0e0e0"/>
      <path id="Path_7985" data-name="Path 7985" d="M638.289,209.15c.1-.094,3.65,3.563,7.919,8.178s7.644,8.429,7.535,8.531-3.65-3.563-7.919-8.178S638.187,209.252,638.289,209.15Z" transform="translate(-173.283 -75.096)" fill="#e0e0e0"/>
      <path id="Path_7986" data-name="Path 7986" d="M653.794,226.135h-.133c-.157,0-.526,0-8.186-8.3s-7.652-8.633-7.644-8.806v-.165l.118-.11c.33-.314.361-.337,2.951,2.355,1.491,1.57,3.453,3.626,5.494,5.863s3.987,4.348,5.416,5.965c2.457,2.786,2.433,2.81,2.1,3.139Z" transform="translate(-173.184 -74.98)" fill="#e0e0e0"/>
      <path id="Path_7987" data-name="Path 7987" d="M142.7,162.493l-3.265,1.311-11.129-7.064-2.614-6.53s-5.18,1.719-1.162,10.03,2.5,6.389,2.5,6.389-10.713,4.34-11.231,5.635c-.377.934,3.6,11.718,5.808,17.542a6.734,6.734,0,0,0,6.962,4.529,4.851,4.851,0,0,0,1.217-.306c2.676-1.075,15.485-8.728,15.485-8.728l5.651-2.268Z" transform="translate(-60.867 -62.416)" fill="#ebebeb"/>
      <path id="Path_7988" data-name="Path 7988" d="M159.063,158.8l6.954,23.177-5.6,2.245L151.63,162.3Z" transform="translate(-68.581 -64.264)" fill="#ebebeb"/>
      <path id="Path_7989" data-name="Path 7989" d="M565.13,377.052l-3.854.636-10.344-10.337-1.264-7.692s-6.02.612-3.657,10.572,1.177,7.519,1.177,7.519-12.644,2.135-13.515,3.414c-.628.918,1.1,13.547,2.088,20.406a7.491,7.491,0,0,0,6.451,6.569,5.91,5.91,0,0,0,1.4,0c3.139-.518,18.837-5.745,18.837-5.745l6.656-1.1Z" transform="translate(-150.747 -107.478)" fill="#f5f5f5"/>
      <path id="Path_7990" data-name="Path 7990" d="M584.975,376.81l1.978,26.756-6.6,1.091-4.262-25.837Z" transform="translate(-159.901 -111.168)" fill="#f5f5f5"/>
      <path id="Path_7991" data-name="Path 7991" d="M305.919,408.217a9.858,9.858,0,0,0,8.374-6.9c1.68-5.172-.895-10.65-5.745-12.236s-10.156,1.342-11.836,6.522a9.85,9.85,0,0,0,2.8,10.588c-14.2-2.292-18.295,12.628-18.295,12.628L313.226,429.2S318.72,414.543,305.919,408.217Z" transform="translate(-96.461 -113.716)" fill="#ebebeb"/>
    </g>
    <g id="freepik--Character--inject-144" transform="translate(53.971 145.198)">
      <rect id="Rectangle_26873" data-name="Rectangle 26873" width="413.038" height="100.838" rx="50.419" transform="translate(0 8.069)" fill="#4d8a8b"/>
      <g id="Group_12399" data-name="Group 12399" transform="translate(0 8.069)" opacity="0.3">
        <rect id="Rectangle_26874" data-name="Rectangle 26874" width="413.038" height="100.838" rx="50.419"/>
      </g>
      <rect id="Rectangle_26875" data-name="Rectangle 26875" width="413.038" height="100.838" rx="50.419" transform="translate(0.184)" fill="#4d8a8b"/>
      <g id="Iconly_Light_Notification" data-name="Iconly/Light/Notification" transform="translate(343.499 34.824)">
        <g id="Notification" transform="translate(5.952 3.401)">
          <path id="Path_425" d="M0,20.044v-.372a6.122,6.122,0,0,1,1.023-3.092,8.282,8.282,0,0,0,2.029-3.934c0-1.133,0-2.283.1-3.416C3.664,3.772,9.059,0,14.388,0h.132c5.329,0,10.724,3.772,11.252,9.229.1,1.133,0,2.283.082,3.416A8.426,8.426,0,0,0,27.884,16.6a5.963,5.963,0,0,1,1.023,3.076v.356a6.065,6.065,0,0,1-1.435,4.064,7.662,7.662,0,0,1-4.851,2.331,76.655,76.655,0,0,1-16.35,0A7.745,7.745,0,0,1,1.42,24.092,6.128,6.128,0,0,1,0,20.044Z" transform="translate(0)" fill="none" stroke="#fff" stroke-linecap="round" stroke-linejoin="round" stroke-miterlimit="10" stroke-width="3"/>
          <path id="Path_421" d="M0,0A5.2,5.2,0,0,0,3.464,1.916,5.251,5.251,0,0,0,7.292.858,4.907,4.907,0,0,0,8.183,0" transform="translate(10.297 32.058)" fill="none" stroke="#fff" stroke-linecap="round" stroke-linejoin="round" stroke-miterlimit="10" stroke-width="3"/>
        </g>
      </g>
      <text id="Notification-2" data-name="Notification" transform="translate(28.726 68.052)" fill="#fff" font-size="47" font-family="NotoSans-SemiBold, Noto Sans" font-weight="600" letter-spacing="0.05em"><tspan x="0" y="0">Notification</tspan></text>
    </g>
  </g>
</svg>
