<svg xmlns="http://www.w3.org/2000/svg" width="500" height="372.56" viewBox="0 0 500 372.56">
  <g id="Empty-rafiki" transform="translate(0 -55)">
    <g id="freepik--background-complete--inject-200">
      <rect id="Rectangle_26904" data-name="Rectangle 26904" width="500" height="0.25" transform="translate(0 382.4)" fill="#ebebeb"/>
      <rect id="Rectangle_26905" data-name="Rectangle 26905" width="33.12" height="0.25" transform="translate(416.78 398.49)" fill="#ebebeb"/>
      <rect id="Rectangle_26906" data-name="Rectangle 26906" width="8.69" height="0.25" transform="translate(322.53 401.21)" fill="#ebebeb"/>
      <rect id="Rectangle_26907" data-name="Rectangle 26907" width="19.19" height="0.25" transform="translate(396.59 389.21)" fill="#ebebeb"/>
      <rect id="Rectangle_26908" data-name="Rectangle 26908" width="43.19" height="0.25" transform="translate(52.46 390.89)" fill="#ebebeb"/>
      <rect id="Rectangle_26909" data-name="Rectangle 26909" width="6.33" height="0.25" transform="translate(104.56 390.89)" fill="#ebebeb"/>
      <rect id="Rectangle_26910" data-name="Rectangle 26910" width="93.68" height="0.25" transform="translate(131.47 395.11)" fill="#ebebeb"/>
      <path id="Path_8005" data-name="Path 8005" d="M237,337.8H43.91a5.71,5.71,0,0,1-5.7-5.71V60.66A5.71,5.71,0,0,1,43.91,55H237a5.71,5.71,0,0,1,5.71,5.71V332.09A5.71,5.71,0,0,1,237,337.8ZM43.91,55.2a5.46,5.46,0,0,0-5.45,5.46V332.09a5.46,5.46,0,0,0,5.45,5.46H237a5.47,5.47,0,0,0,5.46-5.46V60.66A5.47,5.47,0,0,0,237,55.2Z" fill="#ebebeb"/>
      <path id="Path_8006" data-name="Path 8006" d="M453.31,337.8H260.21a5.72,5.72,0,0,1-5.71-5.71V60.66A5.72,5.72,0,0,1,260.21,55h193.1A5.71,5.71,0,0,1,459,60.66V332.09A5.71,5.71,0,0,1,453.31,337.8ZM260.21,55.2a5.47,5.47,0,0,0-5.46,5.46V332.09a5.47,5.47,0,0,0,5.46,5.46h193.1a5.47,5.47,0,0,0,5.46-5.46V60.66a5.47,5.47,0,0,0-5.46-5.46Z" fill="#ebebeb"/>
      <rect id="Rectangle_26911" data-name="Rectangle 26911" width="126.42" height="8.92" transform="translate(92.03 285.87)" fill="#ebebeb"/>
      <rect id="Rectangle_26912" data-name="Rectangle 26912" width="54.97" height="8.92" transform="translate(163.48 285.87)" fill="#e0e0e0"/>
      <rect id="Rectangle_26913" data-name="Rectangle 26913" width="18.68" height="87.61" transform="translate(92.03 294.79)" fill="#ebebeb"/>
      <path id="Path_8007" data-name="Path 8007" d="M110.71,303.83l-18.68-6.36v-2.68h18.68Z" fill="#e0e0e0"/>
      <rect id="Rectangle_26914" data-name="Rectangle 26914" width="18.68" height="87.61" transform="translate(199.77 294.79)" fill="#e0e0e0"/>
      <rect id="Rectangle_26915" data-name="Rectangle 26915" width="18.68" height="87.61" transform="translate(163.48 294.79)" fill="#ebebeb"/>
      <path id="Path_8008" data-name="Path 8008" d="M182.15,303.83l-18.67-6.36v-2.68h18.67Z" fill="#e0e0e0"/>
      <rect id="Rectangle_26916" data-name="Rectangle 26916" width="18.68" height="87.61" transform="translate(128.32 294.79)" fill="#e0e0e0"/>
      <rect id="Rectangle_26917" data-name="Rectangle 26917" width="159.33" height="135.67" transform="translate(71 87.17)" fill="#ebebeb"/>
      <rect id="Rectangle_26918" data-name="Rectangle 26918" width="1.78" height="135.67" transform="translate(232.11 222.83) rotate(180)" fill="#e0e0e0"/>
      <rect id="Rectangle_26919" data-name="Rectangle 26919" width="123.67" height="147.33" transform="translate(224.34 93.16) rotate(90)" fill="#f5f5f5"/>
      <path id="Path_8009" data-name="Path 8009" d="M148.89,198.06c9-30,11.5-74.25,30.64-68.15s-5.93,71.53-5.93,71.53Z" fill="#fff"/>
      <path id="Path_8010" data-name="Path 8010" d="M164.35,199.55c-9.16-43.48-6.85-101.2-35.31-99.88s0,101.77,0,101.77Z" fill="#fff"/>
      <path id="Path_8011" data-name="Path 8011" d="M184.46,194.67H122.15a4.85,4.85,0,0,0-5,4.61c-1.27,28.7,3.43,58,12.18,86.59h47.71c8.75-28.64,13.45-57.89,12.18-86.59a4.8,4.8,0,0,0-4.76-4.61Z" fill="#ebebeb"/>
      <rect id="Rectangle_26920" data-name="Rectangle 26920" width="3.51" height="280.1" transform="translate(322.69 102.3)" fill="#e0e0e0"/>
      <rect id="Rectangle_26921" data-name="Rectangle 26921" width="3.51" height="280.1" transform="translate(405.18 102.3)" fill="#e0e0e0"/>
      <rect id="Rectangle_26922" data-name="Rectangle 26922" width="3.51" height="280.1" transform="translate(297.8 102.3)" fill="#ebebeb"/>
      <rect id="Rectangle_26923" data-name="Rectangle 26923" width="3.51" height="280.1" transform="translate(380.29 102.3)" fill="#ebebeb"/>
      <rect id="Rectangle_26924" data-name="Rectangle 26924" width="110.89" height="3.83" transform="translate(297.8 100.38)" fill="#ebebeb"/>
      <rect id="Rectangle_26925" data-name="Rectangle 26925" width="110.89" height="3.83" transform="translate(297.8 168.97)" fill="#ebebeb"/>
      <rect id="Rectangle_26926" data-name="Rectangle 26926" width="110.89" height="3.83" transform="translate(297.8 237.56)" fill="#ebebeb"/>
      <rect id="Rectangle_26927" data-name="Rectangle 26927" width="110.89" height="3.83" transform="translate(297.8 306.15)" fill="#ebebeb"/>
      <rect id="Rectangle_26928" data-name="Rectangle 26928" width="110.89" height="3.83" transform="translate(297.8 374.74)" fill="#ebebeb"/>
      <rect id="Rectangle_26929" data-name="Rectangle 26929" width="24.89" height="3.83" transform="translate(383.8 100.38)" fill="#e0e0e0"/>
      <rect id="Rectangle_26930" data-name="Rectangle 26930" width="24.89" height="3.83" transform="translate(383.8 168.97)" fill="#e0e0e0"/>
      <rect id="Rectangle_26931" data-name="Rectangle 26931" width="24.89" height="3.83" transform="translate(383.8 237.56)" fill="#e0e0e0"/>
      <rect id="Rectangle_26932" data-name="Rectangle 26932" width="24.89" height="3.83" transform="translate(383.8 306.15)" fill="#e0e0e0"/>
      <rect id="Rectangle_26933" data-name="Rectangle 26933" width="24.89" height="3.83" transform="translate(383.8 374.74)" fill="#e0e0e0"/>
      <path id="Path_8012" data-name="Path 8012" d="M342.53,123.71v-5.4H329.2v5.4a6.39,6.39,0,0,1-6.38,6.39h0a6.39,6.39,0,0,0-6.39,6.38V169h38.88V136.48a6.39,6.39,0,0,0-6.39-6.38h0a6.39,6.39,0,0,1-6.39-6.39Z" fill="#f0f0f0"/>
      <rect id="Rectangle_26934" data-name="Rectangle 26934" width="58.42" height="22.31" transform="translate(311.7 215.26)" fill="#f0f0f0"/>
      <rect id="Rectangle_26935" data-name="Rectangle 26935" width="10.17" height="22.31" transform="translate(380.29 237.56) rotate(180)" fill="#e6e6e6"/>
      <rect id="Rectangle_26936" data-name="Rectangle 26936" width="10.17" height="2.46" transform="translate(380.29 227.64) rotate(180)" fill="#ebebeb"/>
      <rect id="Rectangle_26937" data-name="Rectangle 26937" width="58.42" height="2.46" transform="translate(311.7 225.18)" fill="#f5f5f5"/>
      <rect id="Rectangle_26938" data-name="Rectangle 26938" width="45.63" height="39.44" transform="translate(308.84 335.3)" fill="#f0f0f0"/>
      <rect id="Rectangle_26939" data-name="Rectangle 26939" width="7.94" height="39.44" transform="translate(362.41 374.75) rotate(180)" fill="#e6e6e6"/>
      <rect id="Rectangle_26940" data-name="Rectangle 26940" width="7.94" height="4.35" transform="translate(362.41 357.2) rotate(180)" fill="#ebebeb"/>
      <rect id="Rectangle_26941" data-name="Rectangle 26941" width="45.63" height="4.35" transform="translate(308.84 352.85)" fill="#f5f5f5"/>
      <rect id="Rectangle_26942" data-name="Rectangle 26942" width="7.94" height="1.55" transform="translate(362.41 349.8) rotate(180)" fill="#ebebeb"/>
      <rect id="Rectangle_26943" data-name="Rectangle 26943" width="45.63" height="1.55" transform="translate(308.84 348.25)" fill="#f5f5f5"/>
      <rect id="Rectangle_26944" data-name="Rectangle 26944" width="8.26" height="40.1" transform="translate(311.7 266.05)" fill="#f0f0f0"/>
      <rect id="Rectangle_26945" data-name="Rectangle 26945" width="8.26" height="11.52" transform="translate(311.7 280.34)" fill="#fafafa"/>
      <rect id="Rectangle_26946" data-name="Rectangle 26946" width="28.1" height="40.1" transform="translate(348.06 306.16) rotate(180)" fill="#e6e6e6"/>
      <rect id="Rectangle_26947" data-name="Rectangle 26947" width="9.33" height="45.28" transform="translate(323.39 260.87)" fill="#ebebeb"/>
      <rect id="Rectangle_26948" data-name="Rectangle 26948" width="9.33" height="6.97" transform="translate(323.39 275.26)" fill="#fafafa"/>
      <rect id="Rectangle_26949" data-name="Rectangle 26949" width="9.33" height="6.97" transform="translate(323.39 286.9)" fill="#fafafa"/>
      <rect id="Rectangle_26950" data-name="Rectangle 26950" width="31.73" height="45.28" transform="translate(364.46 306.15) rotate(180)" fill="#e0e0e0"/>
      <rect id="Rectangle_26951" data-name="Rectangle 26951" width="5.03" height="40.1" transform="translate(338.08 266.05)" fill="#f0f0f0"/>
      <rect id="Rectangle_26952" data-name="Rectangle 26952" width="3.3" height="29.94" transform="translate(338.94 271.13)" fill="#fafafa"/>
      <rect id="Rectangle_26953" data-name="Rectangle 26953" width="17.09" height="40.1" transform="translate(360.19 306.16) rotate(180)" fill="#e6e6e6"/>
      <rect id="Rectangle_26954" data-name="Rectangle 26954" width="5.68" height="42.21" transform="translate(350.86 263.94)" fill="#ebebeb"/>
      <rect id="Rectangle_26955" data-name="Rectangle 26955" width="5.68" height="6.5" transform="translate(350.86 277.35)" fill="#fafafa"/>
      <rect id="Rectangle_26956" data-name="Rectangle 26956" width="5.68" height="6.5" transform="translate(350.86 288.21)" fill="#fafafa"/>
      <rect id="Rectangle_26957" data-name="Rectangle 26957" width="19.3" height="42.21" transform="translate(375.84 306.15) rotate(180)" fill="#e0e0e0"/>
      <circle id="Ellipse_99" data-name="Ellipse 99" cx="12.44" cy="12.44" r="12.44" transform="translate(327.569 202.82) rotate(-45)" fill="#f5f5f5"/>
      <circle id="Ellipse_100" data-name="Ellipse 100" cx="8.62" cy="8.62" r="8.62" transform="translate(349.041 199.483) rotate(-9.22)" fill="#ebebeb"/>
    </g>
    <g id="freepik--Shadow--inject-200">
      <ellipse id="freepik--path--inject-200" cx="193.89" cy="11.32" rx="193.89" ry="11.32" transform="translate(56.11 404.92)" fill="#f5f5f5"/>
    </g>
    <g id="freepik--Box--inject-200">
      <path id="Path_8013" data-name="Path 8013" d="M126.11,338.69H254.55V405a6.47,6.47,0,0,1-6.47,6.47H132.58a6.47,6.47,0,0,1-6.47-6.47Z" fill="#4d8a8b"/>
      <path id="Path_8014" data-name="Path 8014" d="M126.11,338.69H217l-11.18-14.31c-1.23-1.57-4.27-2.84-6.8-2.84H117.28c-2.52,0-3.58,1.27-2.35,2.84Z" fill="#4d8a8b"/>
      <path id="Path_8015" data-name="Path 8015" d="M126.11,338.69H217l-11.18-14.31c-1.23-1.57-4.27-2.84-6.8-2.84H117.28c-2.52,0-3.58,1.27-2.35,2.84Z" opacity="0.2"/>
      <path id="Path_8016" data-name="Path 8016" d="M254.55,338.69H163.67l11.18-9.33c1.23-1,4.27-1.85,6.8-1.85h81.73c2.53,0,3.58.83,2.35,1.85Z" fill="#4d8a8b"/>
      <path id="Path_8017" data-name="Path 8017" d="M163.67,338.69h90.88V405a6.47,6.47,0,0,1-6.47,6.47H170.14a6.47,6.47,0,0,1-6.47-6.47Z" fill="#fff" opacity="0.2"/>
      <path id="Path_8018" data-name="Path 8018" d="M137.39,338.69v45.48l3.14-2.48,2.21,2.48,1.92-2.76,1.97,2.76,2.74-2.07,3.02,2.07V338.69Z" fill="#fff" opacity="0.5"/>
    </g>
    <g id="freepik--Character--inject-200">
      <line id="Line_217" data-name="Line 217" x1="16.15" y1="13.56" transform="translate(141.57 225.92)" fill="none" stroke="#4d8a8b" stroke-miterlimit="10" stroke-width="1"/>
      <line id="Line_218" data-name="Line 218" x1="4.92" y1="4.14" transform="translate(161.17 242.37)" fill="none" stroke="#4d8a8b" stroke-miterlimit="10" stroke-width="1"/>
      <path id="Path_8019" data-name="Path 8019" d="M214.47,274.89l53.28-66.59-70.94-59.56-47,53.93-7,13.49a3.76,3.76,0,0,0,.47,5.49l64,53.74A5.3,5.3,0,0,0,214.47,274.89Z" fill="#4d8a8b"/>
      <path id="Path_8020" data-name="Path 8020" d="M177.93,225.78l-7.67,12.35,3.09.67,1.05,2.86,2.05.12.95,2.45,2.51.73,1.93,3.07,7.67-12.35Z" fill="#fff" opacity="0.5"/>
      <path id="Path_8021" data-name="Path 8021" d="M265.43,206.35l-47.78,53.3-67.87-56.98,47.03-53.93Z" opacity="0.1"/>
      <path id="Path_8022" data-name="Path 8022" d="M265.43,206.35l-47.78,53.3,19.78,1.46,47.04-53.93Z" fill="#4d8a8b"/>
      <path id="Path_8023" data-name="Path 8023" d="M265.43,206.35l-47.78,53.3,19.78,1.46,47.04-53.93Z" opacity="0.3"/>
      <path id="Path_8024" data-name="Path 8024" d="M177.78,147.9l-47.79,53.31,19.79,1.46,47.03-53.93Z" fill="#4d8a8b"/>
      <path id="Path_8025" data-name="Path 8025" d="M177.78,147.9l-47.79,53.31,19.79,1.46,47.03-53.93Z" opacity="0.4"/>
      <path id="Path_8026" data-name="Path 8026" d="M250.72,222.76l14.71-16.41-68.62-57.61-8.78,21.16Z" opacity="0.1"/>
      <path id="Path_8027" data-name="Path 8027" d="M149.78,202.67l47.03-53.93-8.78,21.16-33.12,37.08Z" opacity="0.2"/>
      <path id="Path_8028" data-name="Path 8028" d="M282,106c.19.64,0,1.27-.42,1.39s-.91-.3-1.1-.94,0-1.27.42-1.4S281.82,105.36,282,106Z" fill="#263238"/>
      <path id="Path_8029" data-name="Path 8029" d="M282.07,107.26a24,24,0,0,1-1.46,6.43,3.89,3.89,0,0,0,3.26-.33Z" fill="#ed847e"/>
      <path id="Path_8030" data-name="Path 8030" d="M283.33,101.73a.4.4,0,0,0,.18-.22.38.38,0,0,0-.24-.5,3.9,3.9,0,0,0-3.58.41.4.4,0,0,0,.48.63h0a3.12,3.12,0,0,1,2.84-.3A.4.4,0,0,0,283.33,101.73Z" fill="#263238"/>
      <path id="Path_8031" data-name="Path 8031" d="M304.24,110.28c.44,5.3,1.75,15,4.88,17.24,0,0-.74,6.37-12,8-12.34,1.82-6.8-5.26-6.8-5.26,6.49-2.6,5.58-7.57,3.72-12.09l4.76-5.46C300.63,110.69,304,107.57,304.24,110.28Z" fill="#ffc3bd"/>
      <path id="Path_8032" data-name="Path 8032" d="M313.15,130.11c1-.91-1-4.55-2.23-5.06-3.22-1.35-16.39,0-21.34,4.25a5.46,5.46,0,0,0-.39,4.69Z" fill="#fff"/>
      <path id="Path_8033" data-name="Path 8033" d="M355.09,397.41a2.68,2.68,0,0,1-2.08.06.82.82,0,0,1-.27-.9.91.91,0,0,1,.46-.62c1.08-.63,3.75.2,3.86.24a.19.19,0,0,1,.14.16.2.2,0,0,1-.1.2,10.761,10.761,0,0,1-2.01.86Zm-1.46-1.22-.23.1a.54.54,0,0,0-.27.36c-.07.36.07.47.11.5.48.34,2.11-.15,3.24-.72A6.55,6.55,0,0,0,353.63,396.19Z" fill="#4d8a8b"/>
      <path id="Path_8034" data-name="Path 8034" d="M357.06,396.56a.17.17,0,0,1-.1,0c-1-.2-3.09-1.45-3.2-2.39a.64.64,0,0,1,.45-.68,1.08,1.08,0,0,1,.88,0c1.16.48,2.06,2.72,2.09,2.81a.18.18,0,0,1,0,.2.15.15,0,0,1-.12.06Zm-2.6-2.73a.16.16,0,0,0-.09,0c-.23.1-.22.22-.21.27.06.56,1.48,1.57,2.49,1.94a4.934,4.934,0,0,0-1.71-2.21.67.67,0,0,0-.48,0Z" fill="#4d8a8b"/>
      <path id="Path_8035" data-name="Path 8035" d="M296.48,408.15c-1.07,0-2.1-.15-2.45-.63a.74.74,0,0,1,0-.86,1,1,0,0,1,.62-.47c1.39-.37,4.31,1.29,4.43,1.36a.19.19,0,0,1-.06.36A14.14,14.14,0,0,1,296.48,408.15Zm-1.32-1.62a1.131,1.131,0,0,0-.38.05.63.63,0,0,0-.39.27c-.14.25-.09.37,0,.44.39.54,2.5.55,4,.33A8.88,8.88,0,0,0,295.16,406.53Z" fill="#4d8a8b"/>
      <path id="Path_8036" data-name="Path 8036" d="M299,407.92h-.08c-1-.45-3-2.26-2.85-3.2,0-.22.2-.5.74-.55a1.42,1.42,0,0,1,1.09.34c1.07.87,1.29,3.12,1.3,3.21a.18.18,0,0,1-.08.18.19.19,0,0,1-.12.02Zm-2-3.38h-.12c-.36,0-.38.18-.39.22-.09.57,1.27,2,2.29,2.61a4.57,4.57,0,0,0-1.1-2.58A1,1,0,0,0,297,404.54Z" fill="#4d8a8b"/>
      <path id="Path_8037" data-name="Path 8037" d="M308.18,407.72h-8.35L299,388.4h8.35Z" fill="#ffc3bd"/>
      <path id="Path_8038" data-name="Path 8038" d="M366.83,394.53l-7.69,2.65-7.98-18.21,7.69-2.65Z" fill="#ffc3bd"/>
      <path id="Path_8039" data-name="Path 8039" d="M357.31,395.27l9-2.75a.73.73,0,0,1,.85.34l3.75,6.6a1.23,1.23,0,0,1-.73,1.78c-3.15.91-4.72,1.19-8.66,2.4-2.43.74-8.55,3.06-12,3.75s-4.56-2.61-3.22-3.2c6-2.65,8.46-5.66,9.89-8a2.06,2.06,0,0,1,1.12-.92Z" fill="#263238"/>
      <path id="Path_8040" data-name="Path 8040" d="M299.89,406.75H309a.74.74,0,0,1,.71.57l1.65,7.42a1.21,1.21,0,0,1-1.2,1.48c-3.29-.05-8-.25-12.17-.25-4.83,0-6.86.27-12.53.27-3.42,0-4.37-3.46-2.94-3.78,6.53-1.43,9.72-1.58,15.36-5.06a3.929,3.929,0,0,1,2.01-.65Z" fill="#263238"/>
      <path id="Path_8041" data-name="Path 8041" d="M324.14,132.84c2.43,2.23,4.53,4.46,6.71,6.79a94.4,94.4,0,0,1,6.16,7.31,69.735,69.735,0,0,1,5.56,8.24,35.943,35.943,0,0,1,2.34,4.94c.17.47.34.92.48,1.43a15.556,15.556,0,0,1,.41,1.57l.17.83.12.92a9.652,9.652,0,0,1,0,2.54,10.61,10.61,0,0,1-1.72,4.44,14.751,14.751,0,0,1-2.3,2.65,26.681,26.681,0,0,1-4.56,3.33,59.23,59.23,0,0,1-9,4.19,108.448,108.448,0,0,1-18.18,5l-1.75-6c5.43-2.35,10.93-4.89,16-7.6a60.56,60.56,0,0,0,7.11-4.38,16,16,0,0,0,2.59-2.3,3.63,3.63,0,0,0,.59-.85c.08-.17,0-.15-.1.21-.07.67-.06.15-.22-.21-.05-.17-.14-.4-.23-.62s-.2-.47-.31-.71a31.643,31.643,0,0,0-1.81-3.17,75.577,75.577,0,0,0-5-6.61c-1.84-2.18-3.78-4.35-5.77-6.48s-4.08-4.28-6-6.26Z" fill="#ffc3bd"/>
      <path id="Path_8042" data-name="Path 8042" d="M310.87,180.07,303,182.45l5.06,8.32s4.65-1.92,5.68-5.87Z" fill="#ffc3bd"/>
      <path id="Path_8043" data-name="Path 8043" d="M299.82,185.4l3.1,6.86,5.09-1.48-5.06-8.33Z" fill="#ffc3bd"/>
      <path id="Path_8044" data-name="Path 8044" d="M305.7,135.1c-.75,8,16.17,20.38,16.17,20.38l16.29-11.15a34.279,34.279,0,0,0-12-12.75C316.82,125.6,306.64,125.16,305.7,135.1Z" fill="#4d8a8b"/>
      <g id="Group_12445" data-name="Group 12445" opacity="0.3">
        <path id="Path_8045" data-name="Path 8045" d="M305.7,135.1c-.75,8,16.17,20.38,16.17,20.38l16.29-11.15a34.279,34.279,0,0,0-12-12.75C316.82,125.6,306.64,125.16,305.7,135.1Z" fill="#fff"/>
      </g>
      <path id="Path_8046" data-name="Path 8046" d="M278,134.46s-7.31,11.22,10.05,71.4l44.14-6.52c-.62-6.1-8-32.71-8.25-61.8A10.4,10.4,0,0,0,313,127.23c-1.28.07-2.6.16-3.91.29a164.5,164.5,0,0,0-18.76,2.77A84.631,84.631,0,0,0,278,134.46Z" fill="#4d8a8b"/>
      <g id="Group_12446" data-name="Group 12446" opacity="0.3">
        <path id="Path_8047" data-name="Path 8047" d="M278,134.46s-7.31,11.22,10.05,71.4l44.14-6.52c-.62-6.1-8-32.71-8.25-61.8A10.4,10.4,0,0,0,313,127.23c-1.28.07-2.6.16-3.91.29a164.5,164.5,0,0,0-18.76,2.77A84.631,84.631,0,0,0,278,134.46Z" fill="#fff"/>
      </g>
      <path id="Path_8048" data-name="Path 8048" d="M276.92,153.8l.15-.17,10.38.92c1.58,6.7-4.2,15.84-7.25,20.08a195.009,195.009,0,0,1-3.28-20.83Z" opacity="0.2"/>
      <path id="Path_8049" data-name="Path 8049" d="M299,388.41l.43,9.96h8.35l-.43-9.96Z" opacity="0.2"/>
      <path id="Path_8050" data-name="Path 8050" d="M358.85,376.32l-7.69,2.65,4.12,9.39,7.69-2.65Z" opacity="0.2"/>
      <path id="Path_8051" data-name="Path 8051" d="M303.15,98.32c1.84,8.07,3.32,12.7.51,18-4.22,7.89-15.08,7.13-19.29-.23-3.79-6.63-6.17-18.71.67-24.15a11.3,11.3,0,0,1,18.11,6.38Z" fill="#ffc3bd"/>
      <path id="Path_8052" data-name="Path 8052" d="M286.94,106.23l-3.07,1.88.29-10.5A9.07,9.07,0,0,1,278.6,96c1.11-1.06,18.39-7.11,23.78-6.06.56-.23,1.24-1.27,1.24-1.27s.21,1.31-.7,1.81c.66-.13,2.31.19,2.77,1.16a3.61,3.61,0,0,0-2.29.13s6,.91,3.87,9.23c-2.39,9.17-1.6,14.44-1.6,14.44s-4.46,3.45-8.34,2.81C293.19,113.69,287.21,108.21,286.94,106.23Z" fill="#263238"/>
      <path id="Path_8053" data-name="Path 8053" d="M281.06,95.17c-4.87,0-6.62-2.38-7.87-4.38,3.5-.37,10.79-2.62,16.2-3s11.34.63,9.55,3S281.06,95.17,281.06,95.17Z" fill="#263238"/>
      <path id="Path_8054" data-name="Path 8054" d="M282.13,93c-4-.56-7.9-4.33-4.9-7.94,1.11,2.65,8.6,2.34,13.92,1.23,7-1.46,11.85.9,9.37,5.67C299.16,94.57,282.13,93,282.13,93Z" fill="#263238"/>
      <path id="Path_8055" data-name="Path 8055" d="M291.26,103.84a9.39,9.39,0,0,1-.26,6c-1,2.51-3.22,2-4.38-.17-1-2-1.76-5.63-.06-7.44S290.54,101.47,291.26,103.84Z" fill="#ffc3bd"/>
      <path id="Path_8056" data-name="Path 8056" d="M303.71,203.55s7.16,60.95,12.36,84.83c5.69,26.16,33.76,97.48,33.76,97.48l14-4.84s-18-53.7-22.78-90.27c-3.67-28.08-8.9-91.41-8.9-91.41Z" fill="#263238"/>
      <path id="Path_8057" data-name="Path 8057" d="M346.25,381.38c-.07,0,2.87,6,2.87,6l16.35-5.31-1.92-4.88Z" fill="#4d8a8b"/>
      <path id="Path_8058" data-name="Path 8058" d="M307.66,234.82c2.24,16.94,5.11,37,7.63,49.81C319,265,319.87,240.21,307.66,234.82Z" opacity="0.3"/>
      <path id="Path_8059" data-name="Path 8059" d="M288.05,205.86s-5.94,57.26-5,82.7c.94,26.46,13.3,107.88,13.3,107.88h14.13s-2.6-79.88-2-105.86c.69-28.33,11.31-89.41,11.31-89.41Z" fill="#263238"/>
      <path id="Path_8060" data-name="Path 8060" d="M293.6,390.81c-.06,0,.8,5.86.8,5.86h17.19l.47-5.23Z" fill="#4d8a8b"/>
      <path id="Path_8061" data-name="Path 8061" d="M285.31,148.52c-1.56,2.48-3.14,4.71-4.78,7s-3.36,4.5-5.11,6.7a126.58,126.58,0,0,1-11.57,12.62c-1.12,1-2.15,2-3.36,2.91l-.88.71-.44.35c-.16.13-.23.2-.56.44a12.58,12.58,0,0,1-3.23,1.66,18.781,18.781,0,0,1-5.53,1,30.821,30.821,0,0,1-4.77-.21,60.069,60.069,0,0,1-16.75-4.74l1.73-6a110.139,110.139,0,0,0,15.42.74,30.514,30.514,0,0,0,3.4-.37,8.18,8.18,0,0,0,2.44-.76c.24-.13.37-.26.34-.29s.13-.13.22-.22l.34-.31.67-.63c.9-.8,1.75-1.77,2.63-2.65,1.73-1.86,3.45-3.77,5.08-5.8s3.28-4.07,4.88-6.17,3.15-4.23,4.71-6.36,3.08-4.37,4.52-6.44Z" fill="#ffc3bd"/>
      <path id="Path_8062" data-name="Path 8062" d="M291.12,145.87c3.36,11-16.15,23.19-16.15,23.19l-12.68-16.15a70.731,70.731,0,0,1,10.5-14.69C281.42,128.83,288.56,137.5,291.12,145.87Z" fill="#4d8a8b"/>
      <g id="Group_12447" data-name="Group 12447" opacity="0.3">
        <path id="Path_8063" data-name="Path 8063" d="M291.12,145.87c3.36,11-16.15,23.19-16.15,23.19l-12.68-16.15a70.731,70.731,0,0,1,10.5-14.69C281.42,128.83,288.56,137.5,291.12,145.87Z" fill="#fff"/>
      </g>
      <path id="Path_8064" data-name="Path 8064" d="M233,171.33l-10.27-1.88,1.08,8.88s5.34,3,9.21-1.69Z" fill="#ffc3bd"/>
      <path id="Path_8065" data-name="Path 8065" d="M218.77,171.45l2.22,6.41,2.8.47-1.08-8.88Z" fill="#ffc3bd"/>
    </g>
  </g>
</svg>
