<svg xmlns="http://www.w3.org/2000/svg" width="391" height="370.159" viewBox="0 0 391 370.159">
  <g id="Unicorn_with_rainbow-pana" data-name="Unicorn with rainbow-pana" transform="translate(0 0)">
    <g id="freepik--background-complete--inject-116" transform="translate(15.328 3.899)">
      <path id="Path_7841" data-name="Path 7841" d="M465.592,125.186c.375-2.053-1.431-5.317-3.1-6.561a5.768,5.768,0,0,0-5.964-.486,5.615,5.615,0,0,0-9.372-4.6c-.69-3.11-2.8-6.049-5.845-7s-6.859.69-7.668,3.775a7.063,7.063,0,0,0-9.918,1.619,3.937,3.937,0,0,1-1.057,1.321c-.852.537-1.926.145-2.914,0a6.3,6.3,0,0,0-6.867,4.26c-3.775-2.275-12.261,3.314-12.985,7.668Z" transform="translate(-92.008 -53.774)" fill="#f5f5f5"/>
      <path id="Path_7842" data-name="Path 7842" d="M119.371,63.566c.383-2.053-1.423-5.317-3.1-6.561a5.751,5.751,0,0,0-5.922-.486,5.623,5.623,0,0,0-9.372-4.6c-.69-3.11-2.8-6.049-5.836-7s-6.816.69-7.668,3.775a7.063,7.063,0,0,0-9.918,1.619A3.936,3.936,0,0,1,76.5,51.638c-.852.537-1.926.145-2.905,0a6.3,6.3,0,0,0-6.876,4.26c-3.775-2.275-12.261,3.314-12.985,7.668Z" transform="translate(-40.788 -44.656)" fill="#f5f5f5"/>
      <path id="Path_7843" data-name="Path 7843" d="M88.674,112.235c.29-1.568-1.091-4.056-2.369-5a4.379,4.379,0,0,0-4.516-.375,4.26,4.26,0,0,0-7.166-3.51,7.072,7.072,0,0,0-4.456-5.334c-2.318-.724-5.232.528-5.845,2.88a5.376,5.376,0,0,0-7.558,1.235,3.033,3.033,0,0,1-.852,1.005c-.648.409-1.474.111-2.224,0a4.814,4.814,0,0,0-5.24,3.263c-2.88-1.7-9.372,2.556-9.909,5.853Z" transform="translate(-38.54 -52.521)" fill="#fafafa"/>
      <path id="Path_7844" data-name="Path 7844" d="M405.03,78.194c.29-1.568-1.091-4.056-2.369-5.01a4.379,4.379,0,0,0-4.516-.366,4.26,4.26,0,0,0-7.166-3.51,7.1,7.1,0,0,0-4.465-5.342c-2.318-.716-5.232.537-5.845,2.88a5.393,5.393,0,0,0-7.558,1.235,3.067,3.067,0,0,1-.809,1.014c-.648.409-1.474.111-2.224,0a4.814,4.814,0,0,0-5.24,3.272c-2.88-1.7-9.372,2.556-9.909,5.853Z" transform="translate(-85.354 -47.484)" fill="#fafafa"/>
      <path id="Path_7845" data-name="Path 7845" d="M423.171,336.975s-6.169-2.343-9.824,11.98-4.465,22.289-4.465,22.289-1.125,3.076-3.366,1.7-5.9-5.768-8.844-4.158-3.3,5.547-1.474,10.744,5.41,16.76,5.726,17.8.068,2.7-1.61,2.028-12.124-8.086-15.337-2.914,4.26,18.83,5.036,20.338.63,2.266-.043,2.837-3.953-2.258-7.012-4.26-6.944-3.758-8.52-.622.153,14.255,14.6,29.7l7.157,6.714,9.483-2.692c19.955-7.012,26.66-16.052,26.686-19.6s-4.26-3.758-7.873-3.408-7.847,1.338-8.18.52-.119-1.559,1.278-2.556,14.34-9.628,13.871-15.7S417.3,403.392,415.5,403.2s-1.244-1.781-.486-2.556,9.287-9.372,13.309-13.13,5.6-7.328,3.672-10.224-7.149-.554-9.764-.4-2.181-3.1-2.181-3.1,2.974-7.438,6.365-21.821-3.374-15-3.374-15" transform="translate(-88.022 -87.888)" fill="#f5f5f5"/>
      <path id="Path_7846" data-name="Path 7846" d="M397.66,455.541c2.556-10.548,7.345-29.233,11.392-45.294s7.668-30.6,10.293-41.136c1.278-5.257,2.326-9.517,3.042-12.482.358-1.466.639-2.607.852-3.408.094-.383.17-.673.222-.852l.085-.3a2.556,2.556,0,0,1-.051.307c-.051.213-.111.511-.2.852l-.775,3.408c-.682,2.965-1.7,7.234-2.957,12.508-2.556,10.557-6.152,25.11-10.224,41.162s-8.9,34.729-11.485,45.269" transform="translate(-91.676 -90.142)" fill="#e0e0e0"/>
      <path id="Path_7847" data-name="Path 7847" d="M406.5,381.89a4.707,4.707,0,0,1,.392.6c.23.4.554.963.946,1.7.775,1.431,1.806,3.408,2.9,5.675s2.036,4.209,2.769,5.734l.852,1.7a3.107,3.107,0,0,1,.29.648,3.762,3.762,0,0,1-.392-.6c-.23-.392-.554-.971-.937-1.7-.767-1.44-1.764-3.459-2.854-5.7l-2.812-5.709-.852-1.7A3.336,3.336,0,0,1,406.5,381.89Z" transform="translate(-92.984 -94.554)" fill="#e0e0e0"/>
      <path id="Path_7848" data-name="Path 7848" d="M417.14,398.977c-.043-.068,4-2.369,9.032-5.112s9.142-4.942,9.185-4.865-4,2.369-9.04,5.112S417.183,399.054,417.14,398.977Z" transform="translate(-94.559 -95.606)" fill="#e0e0e0"/>
      <path id="Path_7849" data-name="Path 7849" d="M408.53,428.512a2.852,2.852,0,0,1,.707-.2l1.917-.426c1.627-.358,3.868-.852,6.314-1.525s4.652-1.312,6.245-1.806l1.883-.579a2.734,2.734,0,0,1,.7-.179,3.694,3.694,0,0,1-.665.29c-.435.17-1.065.4-1.849.673-1.576.545-3.775,1.244-6.237,1.9s-4.712,1.133-6.348,1.44c-.852.153-1.483.264-1.943.332a3.711,3.711,0,0,1-.724.077Z" transform="translate(-93.285 -100.756)" fill="#e0e0e0"/>
      <path id="Path_7850" data-name="Path 7850" d="M395.17,414.41a3.754,3.754,0,0,1,.494.452l1.27,1.312c1.057,1.108,2.514,2.667,4.1,4.388s3.016,3.306,4.039,4.456l1.193,1.372a2.557,2.557,0,0,1,.409.537,3.756,3.756,0,0,1-.494-.452l-1.27-1.338c-1.065-1.108-2.556-2.667-4.1-4.388s-3.016-3.306-4.039-4.456l-1.193-1.372a2.557,2.557,0,0,1-.409-.511Z" transform="translate(-91.308 -99.366)" fill="#e0e0e0"/>
      <path id="Path_7851" data-name="Path 7851" d="M384.36,438.71a4.584,4.584,0,0,1,.63.579l1.636,1.7c1.363,1.423,3.238,3.408,5.3,5.589s3.9,4.192,5.232,5.649l1.559,1.7a4.476,4.476,0,0,1,.545.665,4.584,4.584,0,0,1-.631-.579l-1.627-1.7c-1.372-1.423-3.246-3.408-5.308-5.589s-3.9-4.192-5.232-5.649l-1.559-1.7A5.111,5.111,0,0,1,384.36,438.71Z" transform="translate(-89.709 -102.962)" fill="#e0e0e0"/>
      <path id="Path_7852" data-name="Path 7852" d="M401.56,455.655a4.094,4.094,0,0,1,.852-.264l2.42-.63c2.045-.537,4.857-1.278,7.949-2.2s5.862-1.8,7.864-2.462l2.377-.784a6.061,6.061,0,0,1,.852-.256,4.175,4.175,0,0,1-.852.366c-.545.221-1.346.52-2.343.852-1.985.716-4.754,1.644-7.847,2.556s-5.964,1.627-7.984,2.1c-1.031.239-1.866.426-2.445.537A5.716,5.716,0,0,1,401.56,455.655Z" transform="translate(-92.254 -104.493)" fill="#e0e0e0"/>
      <path id="Path_7853" data-name="Path 7853" d="M95.934,456.561c12.048-8.9,14.4-24.9,13.522-39.194-.145-2.386.051-4.908-1.142-6.978s-3.885-3.408-5.964-2.36c-1.755.852-2.471,2.974-3.408,4.7a14.016,14.016,0,0,1-5.462,5.5c-1.5.852-3.408,1.363-4.891.571-2.087-1.074-2.411-3.919-2.454-6.3l-.281-13.283a22.153,22.153,0,0,0-.912-7.029,7.392,7.392,0,0,0-4.763-4.857c-2.275-.6-5.036.8-5.453,3.144a22.844,22.844,0,0,0,0,2.957,2.5,2.5,0,0,1-1.4,2.394,2.861,2.861,0,0,1-2.641-1.022c-2.556-2.335-4.26-5.376-5.9-8.41a44.189,44.189,0,0,0-5.521-8.691c-2.292-2.556-5.436-4.541-8.836-4.644s-6.978,2.1-7.745,5.462,1.27,6.714,3.468,9.372a53.219,53.219,0,0,0,11.332,10.224,4.431,4.431,0,0,1,1.9,1.934c.554,1.568-.9,3.187-2.454,3.749-1.755.63-3.681.5-5.521.767s-3.834,1.142-4.49,2.914c-.9,2.454,1.193,4.942,3.238,6.552a45.473,45.473,0,0,0,13.633,7.4,16.013,16.013,0,0,1,5.112,2.3c1.491,1.193,2.343,3.3,1.542,4.993s-2.982,2.292-4.814,2a31.792,31.792,0,0,1-5.274-1.849c-3.3-1.142-7.506-.8-9.517,2.07a7.5,7.5,0,0,0-.622,6.671,17.518,17.518,0,0,0,3.757,5.777,45.771,45.771,0,0,0,19.878,13.172c7.668,2.42,14.681,2.94,22.153,0" transform="translate(-39.128 -93.249)" fill="#f5f5f5"/>
      <path id="Path_7854" data-name="Path 7854" d="M96.488,459.373c-2.3-7.166-9.372-26.115-12.951-34q-1.372-2.948-2.684-5.828c-.852-1.909-1.764-3.8-2.735-5.6a105.805,105.805,0,0,0-6.186-10.02c-2.122-3.093-4.26-5.964-6.245-8.606s-3.936-5.112-5.785-7.242a83.434,83.434,0,0,0-9.466-9.475c-1.2-1.022-2.156-1.789-2.812-2.3l-.75-.579a1.168,1.168,0,0,0-.264-.179l.239.222.724.6c.631.537,1.576,1.321,2.752,2.369a88.41,88.41,0,0,1,9.372,9.543c1.832,2.156,3.732,4.6,5.734,7.259s4.1,5.521,6.211,8.614a107.359,107.359,0,0,1,6.135,9.994c.963,1.789,1.832,3.664,2.718,5.581l2.675,5.819c3.6,7.881,10.8,26.89,13.121,34.022" transform="translate(-39.734 -93.616)" fill="#e0e0e0"/>
      <path id="Path_7855" data-name="Path 7855" d="M83.438,416.046a4.421,4.421,0,0,0,.2-1.022c.111-.656.23-1.619.366-2.8.273-2.377.537-5.666.852-9.3s.588-6.91.852-9.279c.153-1.176.281-2.13.383-2.795a4.422,4.422,0,0,0,.1-1.031,4.729,4.729,0,0,0-.273,1c-.145.656-.324,1.61-.52,2.786-.383,2.36-.741,5.649-1.022,9.287s-.5,6.816-.682,9.3c-.094,1.125-.162,2.062-.23,2.82a5.112,5.112,0,0,0-.034,1.04Z" transform="translate(-45.181 -95.728)" fill="#e0e0e0"/>
      <path id="Path_7856" data-name="Path 7856" d="M47.42,414.859a6.173,6.173,0,0,0,1.218.111c.784.051,1.926.119,3.323.239,2.8.23,6.671.673,10.915,1.355s8.052,1.474,10.8,2.13c1.372.307,2.479.6,3.238.784a7.258,7.258,0,0,0,1.2.264,6.083,6.083,0,0,0-1.15-.426c-.75-.247-1.849-.571-3.221-.929-2.727-.733-6.544-1.568-10.8-2.258A107.266,107.266,0,0,0,51.987,414.9c-1.414-.085-2.556-.1-3.34-.1A6.971,6.971,0,0,0,47.42,414.859Z" transform="translate(-39.854 -99.423)" fill="#e0e0e0"/>
      <path id="Path_7857" data-name="Path 7857" d="M100.13,453.154a1.635,1.635,0,0,0,.2-.383c.128-.3.3-.673.494-1.116.418-.971,1-2.394,1.7-4.166,1.372-3.536,3.127-8.52,4.984-13.973s3.562-10.446,4.865-14.007c.639-1.7,1.159-3.161,1.551-4.218.17-.46.307-.852.417-1.15a1.338,1.338,0,0,0,.119-.409,2.822,2.822,0,0,0-.2.375l-.494,1.125c-.426.971-1,2.394-1.7,4.166-1.38,3.536-3.127,8.52-4.984,13.973s-3.562,10.446-4.865,14.007l-1.559,4.209c-.162.46-.307.852-.417,1.15a2.47,2.47,0,0,0-.119.418Z" transform="translate(-47.653 -99.266)" fill="#e0e0e0"/>
      <path id="Path_7858" data-name="Path 7858" d="M52.09,446a1.781,1.781,0,0,0,.409.153l1.184.366,4.388,1.287c3.7,1.091,8.793,2.658,14.425,4.388s10.744,3.263,14.485,4.26c1.857.5,3.408.9,4.422,1.15l1.21.29a2.036,2.036,0,0,0,.426.068,1.534,1.534,0,0,0-.4-.162l-1.193-.358-4.379-1.3c-3.706-1.082-8.8-2.65-14.434-4.388S61.9,448.5,58.148,447.5c-1.857-.511-3.408-.9-4.422-1.159L52.516,446A1.457,1.457,0,0,0,52.09,446Z" transform="translate(-40.545 -104.038)" fill="#e0e0e0"/>
    </g>
    <g id="freepik--Rainbow--inject-116" transform="translate(60.606)">
      <path id="Path_7859" data-name="Path 7859" d="M277.457,163.958H263.6a35.161,35.161,0,1,0-70.323,0H179.43a49.016,49.016,0,1,1,98.031,0Z" transform="translate(-104.665 -51.157)" fill="#4d8a8b"/>
      <g id="Group_12386" data-name="Group 12386" transform="translate(74.765 63.783)" opacity="0.8">
        <path id="Path_7860" data-name="Path 7860" d="M277.457,163.958H263.6a35.161,35.161,0,1,0-70.323,0H179.43a49.016,49.016,0,1,1,98.031,0Z" transform="translate(-179.43 -114.94)" fill="#fff"/>
      </g>
      <path id="Path_7861" data-name="Path 7861" d="M288.066,161.728H273.76a47.55,47.55,0,1,0-95.1,0H164.35a61.858,61.858,0,0,1,123.716,0Z" transform="translate(-102.433 -48.927)" fill="#4d8a8b"/>
      <g id="Group_12387" data-name="Group 12387" transform="translate(61.917 50.943)" opacity="0.6">
        <path id="Path_7862" data-name="Path 7862" d="M288.066,161.728H273.76a47.55,47.55,0,1,0-95.1,0H164.35a61.858,61.858,0,0,1,123.716,0Z" transform="translate(-164.35 -99.87)" fill="#fff"/>
      </g>
      <path id="Path_7863" data-name="Path 7863" d="M299.91,159.239H285.578a61.858,61.858,0,0,0-123.716,0H147.54a76.187,76.187,0,1,1,152.374,0Z" transform="translate(-99.946 -46.438)" fill="#4d8a8b"/>
      <g id="Group_12388" data-name="Group 12388" transform="translate(47.594 36.612)" opacity="0.4">
        <path id="Path_7864" data-name="Path 7864" d="M299.91,159.239H285.578a61.858,61.858,0,0,0-123.716,0H147.54a76.187,76.187,0,1,1,152.374,0Z" transform="translate(-147.54 -83.05)" fill="#fff"/>
      </g>
      <path id="Path_7865" data-name="Path 7865" d="M309.9,157.14H295.578a73.955,73.955,0,1,0-147.909,0H133.35a88.277,88.277,0,1,1,176.555,0Z" transform="translate(-97.847 -44.338)" fill="#4d8a8b"/>
      <g id="Group_12389" data-name="Group 12389" transform="translate(35.503 24.522)" opacity="0.3">
        <path id="Path_7866" data-name="Path 7866" d="M309.9,157.14H295.578a73.955,73.955,0,1,0-147.909,0H133.35a88.277,88.277,0,1,1,176.555,0Z" transform="translate(-133.35 -68.86)" fill="#fff"/>
      </g>
      <path id="Path_7867" data-name="Path 7867" d="M319.131,155.2H305.285a85.6,85.6,0,1,0-171.2,0H120.24a99.448,99.448,0,1,1,198.9,0Z" transform="translate(-95.907 -42.399)" fill="#4d8a8b"/>
      <g id="Group_12390" data-name="Group 12390" transform="translate(24.333 13.351)" opacity="0.1">
        <path id="Path_7868" data-name="Path 7868" d="M319.131,155.2H305.285a85.6,85.6,0,1,0-171.2,0H120.24a99.448,99.448,0,1,1,198.9,0Z" transform="translate(-120.24 -55.75)" fill="#fff"/>
      </g>
      <path id="Path_7869" data-name="Path 7869" d="M330.171,152.881H316.317a98.953,98.953,0,1,0-197.907,0H104.56a112.805,112.805,0,0,1,225.611,0Z" transform="translate(-93.587 -40.08)" fill="#4d8a8b"/>
      <path id="Path_7870" data-name="Path 7870" d="M95.881,123.14a23.857,23.857,0,0,1,42.227-2.232,16.862,16.862,0,0,1,31.858,9.722,15.107,15.107,0,0,1,22.8,15.746,14.6,14.6,0,0,1,15.686,20.142q-54.905,2.556-109.913.656a5.794,5.794,0,0,1-3.314-.8,5.526,5.526,0,0,1-1.7-3.408,74.025,74.025,0,0,1,2.556-41.528" transform="translate(-91.681 -50.308)" fill="#fff"/>
      <path id="Path_7871" data-name="Path 7871" d="M374.628,142.726a19.938,19.938,0,0,0-35.291-1.874,14.1,14.1,0,0,0-26.635,8.137,12.627,12.627,0,0,0-19.069,13.155,12.21,12.21,0,0,0-13.113,16.845q45.9,2.147,91.884.545a4.814,4.814,0,0,0,2.769-.665,4.678,4.678,0,0,0,1.423-2.837,61.833,61.833,0,0,0-2.156-34.721" transform="translate(-119.478 -53.543)" fill="#fff"/>
    </g>
    <g id="freepik--Unicorn--inject-116" transform="translate(40.426 79.658)">
      <path id="Path_7872" data-name="Path 7872" d="M98.358,164.55S67.633,134.431,68,133.6s35.283,19.665,35.283,19.665L98.34,164.55" transform="translate(-67.996 -133.571)" fill="#455a64"/>
      <path id="Path_7873" data-name="Path 7873" d="M90.633,145.8a2.888,2.888,0,0,1,.639,1.61,13.965,13.965,0,0,1-.349,4.132,10.131,10.131,0,0,0-.162,2.207,5.24,5.24,0,0,0,.443,1.7,15.273,15.273,0,0,0,.852,1.44,2.931,2.931,0,0,1-1.159-1.287,4.993,4.993,0,0,1-.571-1.823,9.373,9.373,0,0,1,.136-2.309,17.74,17.74,0,0,0,.469-4.03A11.1,11.1,0,0,0,90.633,145.8Z" transform="translate(-71.297 -135.38)" fill="#263238"/>
      <path id="Path_7874" data-name="Path 7874" d="M84.038,141.92a.445.445,0,0,1,.3.17,1.355,1.355,0,0,1,.341.852,3.459,3.459,0,0,1-.3,1.329,7.805,7.805,0,0,0-.4,1.508,10.948,10.948,0,0,0,.324,4,2.326,2.326,0,0,1-.554-1.1,6.467,6.467,0,0,1-.213-2.965c.153-1.193.852-2.1.852-2.769A1.7,1.7,0,0,0,84.038,141.92Z" transform="translate(-70.283 -134.806)" fill="#263238"/>
      <path id="Path_7875" data-name="Path 7875" d="M78.25,138.63a15.472,15.472,0,0,0-.562,2.5,16.563,16.563,0,0,0,.273,2.556,3.349,3.349,0,0,1-.716-2.556A3.28,3.28,0,0,1,78.25,138.63Z" transform="translate(-69.36 -134.319)" fill="#263238"/>
      <path id="Path_7876" data-name="Path 7876" d="M73.213,136.13a.682.682,0,0,1,.341.315,1.806,1.806,0,0,1,.179,1.1,1.832,1.832,0,0,1-.486,1c-.2.2-.383.256-.417.213a4.654,4.654,0,0,0,.46-1.278C73.383,136.743,73.111,136.2,73.213,136.13Z" transform="translate(-68.711 -133.95)" fill="#263238"/>
      <path id="Path_7877" data-name="Path 7877" d="M88.541,153.137a2.965,2.965,0,0,1-1.823-1.039c-.852-.852-1.2-1.755-1.091-1.8s.6.716,1.4,1.483S88.6,153.026,88.541,153.137Z" transform="translate(-70.602 -136.046)" fill="#fff"/>
      <path id="Path_7878" data-name="Path 7878" d="M93.742,158.061c-.051.111-.6-.068-1.039-.6s-.511-1.1-.4-1.125.366.392.741.852S93.793,157.95,93.742,158.061Z" transform="translate(-71.586 -136.94)" fill="#fff"/>
      <path id="Path_7879" data-name="Path 7879" d="M81.422,146.1c-.094.085-.656-.435-1.38-1.031s-1.312-1.065-1.252-1.176.792.213,1.542.852S81.524,146.026,81.422,146.1Z" transform="translate(-69.593 -135.095)" fill="#fff"/>
      <path id="Path_7880" data-name="Path 7880" d="M75.484,140.777c-.1.077-.392-.153-.639-.5s-.383-.7-.29-.767.392.153.648.5S75.577,140.667,75.484,140.777Z" transform="translate(-68.962 -134.447)" fill="#fff"/>
      <path id="Path_7881" data-name="Path 7881" d="M71.424,136.868a.239.239,0,0,1-.307.111.217.217,0,1,1,.307-.111Z" transform="translate(-68.439 -134.014)" fill="#fff"/>
      <path id="Path_7882" data-name="Path 7882" d="M336.577,316.635a19.283,19.283,0,0,1,24.351,3.476c4.328,5.044,5.9,12.3,11.17,16.368a13.854,13.854,0,0,0,15.609.622,10.31,10.31,0,0,1-8.282,5.3c2.735,3.408,7.3,4.814,11.656,5.18s8.759-.111,13.1.426a28.586,28.586,0,0,1,21.514,15.073c-2.437-4.405-8.086-6.143-13.1-5.615s-9.62,2.82-14.289,4.7c-11.128,4.482-24.453,6.51-34.686.239-5.836-3.57-9.926-9.372-13.07-15.482-.707,2.011-1.414,4.013-2.13,6.024-2.019-4.022-2.292-8.665-2.633-13.155s-.852-9.151-3.229-12.968-7.242-6.467-11.468-4.908" transform="translate(-106.924 -160.236)" fill="#4d8a8b"/>
      <path id="Path_7883" data-name="Path 7883" d="M118,146.3a19.018,19.018,0,0,1,8.52-1.781c.852.077,1.917.213,2.556-.418a3.953,3.953,0,0,0,.69-1.593c.852-2.5,3.706-3.689,6.322-4.039a19.4,19.4,0,0,1,6.237.2,1.568,1.568,0,0,1,1.525,2.019,14.654,14.654,0,0,1-1.559,5.581c2.488-1.2,3.817-4.022,6.194-5.427,3.238-1.909,7.345-.682,10.889.588a27.766,27.766,0,0,1,7.737,3.732c1.508,1.159,2.761,2.624,4.26,3.817a7.566,7.566,0,0,0,5.223,1.96,6.816,6.816,0,0,1-2.1,1.466,23.857,23.857,0,0,1,5.555,3.348,8.128,8.128,0,0,1,2.948,5.606,4.953,4.953,0,0,1-3.408,4.959l4.874-1.065a12.32,12.32,0,0,1,4.107,11.281,9.219,9.219,0,0,0,3.2-1.849,32.471,32.471,0,0,1-2.778,5.649c1.159-1.031,2.94.068,4,1.193a35.879,35.879,0,0,1,3.3,4.073,31.277,31.277,0,0,0,3.357,4.507,6.552,6.552,0,0,0,5,2.164s-1.909,1.363-3.408,1.1a59.951,59.951,0,0,1-5.8-1.892s8.239,7.421,13.1,16.257.673,16.674,6.475,20.185,9.858,2.837,9.858,2.837l-6.884,1.9-26.993-17.041-16.9-22.792-9.176-20.449L129.7,154.576l-10.224-1.431Z" transform="translate(-75.395 -134.272)" fill="#4d8a8b"/>
      <path id="Path_7884" data-name="Path 7884" d="M104.154,149.767a11.153,11.153,0,0,0-3.408,0c-2.156.443-3.809,2.13-5.317,3.732a4.039,4.039,0,0,1,2.5-.443A10.838,10.838,0,0,0,90.9,163.281c.068,2.232.852,4.405.8,6.637a9.372,9.372,0,0,1-3.527,7.123,4.4,4.4,0,0,0,3.817-1.329,13.036,13.036,0,0,0,2.309-3.493,9.142,9.142,0,0,1-1.159,3.979c1.934-.665,2.624-2.965,3.408-4.865,1.372-3.408,3.74-6.271,5.649-9.372,2.36-3.86,5.019-5.445,6.646-9.671l.588-1.832C108.278,150.313,105.27,149.9,104.154,149.767Z" transform="translate(-70.981 -135.948)" fill="#4d8a8b"/>
      <path id="Path_7885" data-name="Path 7885" d="M88.56,293.57c0,.435,1.832,29.958,1.832,29.958l20.364,10.991,1.832-9.483-10.344-3.127-3.016-4.524s-2.556-6.569-2.479-9.909a65.487,65.487,0,0,1,1.3-8.836l2.556-2.479,9.645.75,12.781,4.533,13.488-6.663,7-18.54-17.671,2.266,1.576,4.848-31.96,2.905Z" transform="translate(-71.039 -154.681)" fill="#4d8a8b"/>
      <path id="Path_7886" data-name="Path 7886" d="M88.56,293.57c0,.435,1.832,29.958,1.832,29.958l20.364,10.991,1.832-9.483-10.344-3.127-3.016-4.524s-2.556-6.569-2.479-9.909a65.487,65.487,0,0,1,1.3-8.836l2.556-2.479,9.645.75,12.781,4.533,13.488-6.663,7-18.54-17.671,2.266,1.576,4.848-31.96,2.905Z" transform="translate(-71.039 -154.681)" fill="#fff" opacity="0.6"/>
      <path id="Path_7887" data-name="Path 7887" d="M265.14,325.784c.895-.128,8.469,13.317,8.452,17.143s.324,10.974,2.352,13.794,26.413,26.413,27.657,28.356,6.867,4.26,8.887,8.341,5.828,8.58,5.555,11.255-11.187,39.245-10.829,43.2l13.19-6.51s-.486-10.9,3.775-19.682,12.917-28,12.917-28-12.568-12.576-16.1-19.1-5.18-9.858-4.516-13.684c.349-2.019,3.655-8.861,6.7-14.86a34.277,34.277,0,0,0,3.2-21.369L324.536,314l-57.606,10.915Z" transform="translate(-97.166 -160.268)" fill="#4d8a8b"/>
      <path id="Path_7888" data-name="Path 7888" d="M265.14,325.784c.895-.128,8.469,13.317,8.452,17.143s.324,10.974,2.352,13.794,26.413,26.413,27.657,28.356,6.867,4.26,8.887,8.341,5.828,8.58,5.555,11.255-11.187,39.245-10.829,43.2l13.19-6.51s-.486-10.9,3.775-19.682,12.917-28,12.917-28-12.568-12.576-16.1-19.1-5.18-9.858-4.516-13.684c.349-2.019,3.655-8.861,6.7-14.86a34.277,34.277,0,0,0,3.2-21.369L324.536,314l-57.606,10.915Z" transform="translate(-97.166 -160.268)" fill="#fff" opacity="0.6"/>
      <path id="Path_7889" data-name="Path 7889" d="M300.348,291.228c-1.61-3.758-10.565-15.584-13.973-20.057S270.8,256.84,255.753,252.725s-37.975-15.763-39.407-17.373-7.166-5.018-9.492-10.224S193.776,209.91,187.692,206.5s-11.826-17.893-15.4-24.709-8.6-15.4-14.152-20.236c-4.158-3.63-9.85-8.6-21.3-10.224a81.873,81.873,0,0,0-21.667,0s3.877-13.786,2.087-13.633-12.474,14.485-12.474,14.485-13.437,23.457-13.633,26.507,1.253,8.418,0,10.923-5.555,16.3-5.913,18.8-.716,5.376,1.61,8.418,7.345,5.018,9.858,2.692,1.968-1.431,1.968-1.431,3.221,0,3.757-.9.537-5.726.537-5.726,8.6-7.345,10.932-10.224a58.41,58.41,0,0,0,3.579-4.84s3.221-1.253,4.26-2.863a41.267,41.267,0,0,0,2.505-5.018s2.863-1.431,3.936-.179a10,10,0,0,1,3.05,7.668c-.179,4.26,0,30.631,0,30.631s-6.1,9.671-7,15.038-.716,13.973.179,16.121c.852,1.985,8.043,9.9,9.159,11.076-.256.613-.46,1.005-.46,1.005s-23.431,14.485-25.118,16.189-5.308,11.008-5.308,11.008l8.725,28.109,12.431,11.136,4.141-11.52s-2.2,2.846-3.238,1.7-1.943-4.916-1.943-4.916a21.931,21.931,0,0,1-7.9-13.334c-1.423-8.674-1.943-9.841-1.943-9.841l3.5-5.572s10.1-2.377,15.533-3.229a23.917,23.917,0,0,0,9.236-3.655s5.053,1.039,7.506-.128a38.649,38.649,0,0,1,5.9-1.431l15.712,11.485s33.229,11.5,45.431,14.553c7.029,1.755,14.255,3.272,20.526,6.015a10.787,10.787,0,0,0-.332,3.97c.571,3.408,11.988,35.377,12.269,37.66s4.26,6.816,4.26,11.417,1.431,10.267,0,12.551-27.393,30.247-28.816,33.954h14.672s4.4-9.986,12.1-15.976,23.968-19.4,23.968-19.4-5.709-16.836-5.964-24.258-.29-11.128,1.994-14.263c2.053-2.82,17.373-14.877,20.449-17.279l.085-.06.179-.153.273-.213h0a31.366,31.366,0,0,0,6.007-6.314,18.225,18.225,0,0,0,2.616-7.788C300.655,304.409,301.49,293.878,300.348,291.228Z" transform="translate(-70.508 -134.182)" fill="#4d8a8b"/>
      <path id="Path_7890" data-name="Path 7890" d="M300.348,291.228c-1.61-3.758-10.565-15.584-13.973-20.057S270.8,256.84,255.753,252.725s-37.975-15.763-39.407-17.373-7.166-5.018-9.492-10.224S193.776,209.91,187.692,206.5s-11.826-17.893-15.4-24.709-8.6-15.4-14.152-20.236c-4.158-3.63-9.85-8.6-21.3-10.224a81.873,81.873,0,0,0-21.667,0s3.877-13.786,2.087-13.633-12.474,14.485-12.474,14.485-13.437,23.457-13.633,26.507,1.253,8.418,0,10.923-5.555,16.3-5.913,18.8-.716,5.376,1.61,8.418,7.345,5.018,9.858,2.692,1.968-1.431,1.968-1.431,3.221,0,3.757-.9.537-5.726.537-5.726,8.6-7.345,10.932-10.224a58.41,58.41,0,0,0,3.579-4.84s3.221-1.253,4.26-2.863a41.267,41.267,0,0,0,2.505-5.018s2.863-1.431,3.936-.179a10,10,0,0,1,3.05,7.668c-.179,4.26,0,30.631,0,30.631s-6.1,9.671-7,15.038-.716,13.973.179,16.121c.852,1.985,8.043,9.9,9.159,11.076-.256.613-.46,1.005-.46,1.005s-23.431,14.485-25.118,16.189-5.308,11.008-5.308,11.008l8.725,28.109,12.431,11.136,4.141-11.52s-2.2,2.846-3.238,1.7-1.943-4.916-1.943-4.916a21.931,21.931,0,0,1-7.9-13.334c-1.423-8.674-1.943-9.841-1.943-9.841l3.5-5.572s10.1-2.377,15.533-3.229a23.917,23.917,0,0,0,9.236-3.655s5.053,1.039,7.506-.128a38.649,38.649,0,0,1,5.9-1.431l15.712,11.485s33.229,11.5,45.431,14.553c7.029,1.755,14.255,3.272,20.526,6.015a10.787,10.787,0,0,0-.332,3.97c.571,3.408,11.988,35.377,12.269,37.66s4.26,6.816,4.26,11.417,1.431,10.267,0,12.551-27.393,30.247-28.816,33.954h14.672s4.4-9.986,12.1-15.976,23.968-19.4,23.968-19.4-5.709-16.836-5.964-24.258-.29-11.128,1.994-14.263c2.053-2.82,17.373-14.877,20.449-17.279l.085-.06.179-.153.273-.213h0a31.366,31.366,0,0,0,6.007-6.314,18.225,18.225,0,0,0,2.616-7.788C300.655,304.409,301.49,293.878,300.348,291.228Z" transform="translate(-70.508 -134.182)" fill="#fff" opacity="0.9"/>
      <path id="Path_7891" data-name="Path 7891" d="M107.92,184.222a47.712,47.712,0,0,0-5.18.307,3.476,3.476,0,0,0-1.7.792,3.05,3.05,0,0,0-.733,1.372c-.256.912-.6,1.448-.665,1.4s.187-.545.358-1.483a3.212,3.212,0,0,1,.75-1.576,3.706,3.706,0,0,1,1.917-.937,14.986,14.986,0,0,1,3.749-.153,4.448,4.448,0,0,1,1.508.281Z" transform="translate(-72.677 -141.016)" fill="#263238"/>
      <path id="Path_7892" data-name="Path 7892" d="M112.233,178.678c.085.1-.494.69-1.142,1.457s-1.125,1.448-1.235,1.389.213-.852.852-1.7S112.165,178.584,112.233,178.678Z" transform="translate(-74.187 -140.243)" fill="#263238"/>
      <path id="Path_7893" data-name="Path 7893" d="M91.663,227.321c-.145.588-.852.435-1.312.332a1.823,1.823,0,0,1-1.3-.852,1.61,1.61,0,0,1,.332-1.559,7.8,7.8,0,0,0,.988-1.329c.358-.775.2-1.7.656-2.454.094-.145.264-.29.426-.222a.349.349,0,0,1,.179.239,3.638,3.638,0,0,1,.145,1.423c0,1.466-.077,2.922-.111,4.388" transform="translate(-71.1 -146.54)" fill="#263238"/>
      <path id="Path_7894" data-name="Path 7894" d="M94.57,219.52a.8.8,0,0,1,.375.128,1.576,1.576,0,0,1,.46.971,26.85,26.85,0,0,1,0,3.408,19.792,19.792,0,0,1-.392,3.357,3.025,3.025,0,0,1-.324,1.005c-.162.23-.358.222-.349.2.281.162.494-1.968.622-4.575,0-1.3.1-2.556.094-3.331a1.525,1.525,0,0,0-.281-.852C94.681,219.605,94.553,219.554,94.57,219.52Z" transform="translate(-71.894 -146.288)" fill="#263238"/>
      <path id="Path_7895" data-name="Path 7895" d="M103.372,222.91c.06.043-.162.426-.383,1.091s-.477,1.61-.741,2.667-.511,2.019-.733,2.709-.443,1.091-.494,1.065a3.928,3.928,0,0,1,.187-1.15c.145-.69.341-1.7.6-2.727a14.953,14.953,0,0,1,.852-2.684C103.005,223.216,103.338,222.876,103.372,222.91Z" transform="translate(-72.882 -146.789)" fill="#263238"/>
      <path id="Path_7896" data-name="Path 7896" d="M121,176.24a3.58,3.58,0,0,1,.784.486c.486.332,1.176.852,2.019,1.457l2.974,2.207a11.537,11.537,0,0,1,3.17,3.3,9.492,9.492,0,0,1,1.235,4.414,13.4,13.4,0,0,1-.417,3.715,18.6,18.6,0,0,1-.792,2.377,3.007,3.007,0,0,1-.418.852c-.077,0,.452-1.235.9-3.272a13.778,13.778,0,0,0,.315-3.621,9.372,9.372,0,0,0-1.21-4.209,11.784,11.784,0,0,0-3.042-3.2l-2.905-2.275c-.852-.656-1.483-1.193-1.934-1.568A3.468,3.468,0,0,1,121,176.24Z" transform="translate(-75.839 -139.884)" fill="#263238"/>
      <path id="Path_7897" data-name="Path 7897" d="M134.747,357.3l5.9,3.74v15.251l-9.943-7.157Z" transform="translate(-77.274 -166.674)" fill="#263238"/>
      <path id="Path_7898" data-name="Path 7898" d="M121.119,137.75a88.152,88.152,0,0,0-8.827,10.122,11.6,11.6,0,0,0-2.352,4.465,4.26,4.26,0,0,0,1.7,4.456l.912-.545a14.894,14.894,0,0,0,9.1-7.609,11.784,11.784,0,0,0-.537-10.889Z" transform="translate(-74.186 -134.189)" fill="#4d8a8b"/>
      <g id="Group_12391" data-name="Group 12391" transform="translate(35.643 3.561)" opacity="0.8">
        <path id="Path_7899" data-name="Path 7899" d="M121.119,137.75a88.152,88.152,0,0,0-8.827,10.122,11.6,11.6,0,0,0-2.352,4.465,4.26,4.26,0,0,0,1.7,4.456l.912-.545a14.894,14.894,0,0,0,9.1-7.609,11.784,11.784,0,0,0-.537-10.889Z" transform="translate(-109.829 -137.75)" fill="#fff"/>
      </g>
      <path id="Path_7900" data-name="Path 7900" d="M116.194,154.871c0-.043.579-.349,1.474-1.142a12.84,12.84,0,0,0,2.94-4h0a11.716,11.716,0,0,0,1.1-4.541,13.156,13.156,0,0,0-.2-2.667,8.759,8.759,0,0,0-.792-2.709h.409c-.3.554-.631,1.125-1.005,1.7a48.685,48.685,0,0,1-4.823,5.785,37.363,37.363,0,0,0-3.868,4.72,5.965,5.965,0,0,0-.852,2.122,2.905,2.905,0,0,0,.17,1.7,1.142,1.142,0,0,0,.784.656c.239,0,.358-.094.366-.06a.443.443,0,0,1-.375.153,1.236,1.236,0,0,1-.929-.665,3.067,3.067,0,0,1-.264-1.8,6.058,6.058,0,0,1,.852-2.249A34.37,34.37,0,0,1,115,147.049a52.235,52.235,0,0,0,4.763-5.76c.366-.545.69-1.108.988-1.644l.2-.375.187.375a9.628,9.628,0,0,1,.852,2.846,13.846,13.846,0,0,1,.187,2.761,14.323,14.323,0,0,1-.4,2.556,8.077,8.077,0,0,1-.852,2.173h0a12.091,12.091,0,0,1-3.127,4.013,7.67,7.67,0,0,1-1.15.792,1.5,1.5,0,0,1-.46.085Z" transform="translate(-74.254 -134.414)" fill="#263238"/>
      <path id="Path_7901" data-name="Path 7901" d="M112.65,303.192a3.865,3.865,0,0,1,.52-.383l1.542-1.031,5.709-3.723,8.52-5.487c1.61-1.022,3.289-2.1,5.027-3.221.852-.562,1.789-1.108,2.633-1.7a5.214,5.214,0,0,0,1.9-2.411,5.9,5.9,0,0,0-.06-3.1,11.826,11.826,0,0,0-1.074-2.9,39.842,39.842,0,0,1-2.684-5.359,7.668,7.668,0,0,1-.435-2.8,9.517,9.517,0,0,1,.554-2.616c.554-1.6,1.142-3.067,1.7-4.4a65.4,65.4,0,0,1,3.042-6.118c.4-.7.724-1.235.946-1.593a3.518,3.518,0,0,1,.366-.537,3.536,3.536,0,0,1-.29.579l-.852,1.636c-.75,1.423-1.8,3.5-2.905,6.16-.545,1.321-1.116,2.795-1.653,4.388a9.092,9.092,0,0,0-.511,2.556,7.481,7.481,0,0,0,.426,2.658,40.19,40.19,0,0,0,2.684,5.291,11.511,11.511,0,0,1,1.116,3,6.22,6.22,0,0,1,.051,3.331,5.572,5.572,0,0,1-2.053,2.624c-.852.648-1.789,1.159-2.658,1.7l-5.078,3.178-8.52,5.4-5.785,3.6-1.593.963A3.018,3.018,0,0,1,112.65,303.192Z" transform="translate(-74.603 -151.658)" fill="#263238"/>
      <path id="Path_7902" data-name="Path 7902" d="M184.315,282.75a2.089,2.089,0,0,1-.145.452c-.1.3-.264.724-.486,1.261-.443,1.091-1.1,2.658-1.985,4.567s-1.985,4.158-3.3,6.6c-.665,1.227-1.372,2.5-2.139,3.8a11.852,11.852,0,0,1-2.914,3.723A11.528,11.528,0,0,1,169,305.022c-1.483.341-2.94.511-4.311.716a23,23,0,0,0-3.809.852c-1.159.375-2.19.895-3.187,1.261a7.514,7.514,0,0,1-2.8.6,7.293,7.293,0,0,1-2.113-.435,4.26,4.26,0,0,0-1.312-.213c-.3,0-.46.051-.46,0a1.074,1.074,0,0,1,.46-.128,3.843,3.843,0,0,1,1.355.145,7.754,7.754,0,0,0,2.07.349,7.548,7.548,0,0,0,2.692-.639c.971-.383,1.994-.92,3.178-1.321a22.577,22.577,0,0,1,3.868-.852c1.372-.222,2.82-.4,4.26-.741a10.94,10.94,0,0,0,4.175-1.8,11.469,11.469,0,0,0,2.812-3.587q1.15-1.943,2.147-3.775c1.338-2.428,2.462-4.652,3.408-6.544s1.619-3.408,2.1-4.5l.571-1.227A1.961,1.961,0,0,1,184.315,282.75Z" transform="translate(-80.278 -155.644)" fill="#263238"/>
      <path id="Path_7903" data-name="Path 7903" d="M306.213,409.7a4.155,4.155,0,0,1-.2-.579l-.528-1.7-1.892-6.331q-.6-2.045-1.321-4.465a32.712,32.712,0,0,1-1.3-5.274c-.545-3.817-.954-8.086-1.363-12.678v-.085a58.837,58.837,0,0,1,1.892-5.964,12.874,12.874,0,0,1,1.627-2.88,16.191,16.191,0,0,1,2.377-2.394l13.564-10.863c2.07-1.7,4.107-3.212,5.879-4.763s2.871-3.51,4.132-5.112a15.337,15.337,0,0,0,2.07-4.95,36.46,36.46,0,0,0,.7-4.039c.128-1.1.23-1.96.3-2.556a4.1,4.1,0,0,1,.085-.673.716.716,0,0,1,0-.23.851.851,0,0,1,0,.23v.682c-.043.588-.1,1.465-.222,2.556a33.475,33.475,0,0,1-.63,4.073,15.337,15.337,0,0,1-2.045,5.112c-.29.417-.613.852-.92,1.253l-.92,1.329a14.56,14.56,0,0,1-2.309,2.556c-1.789,1.585-3.8,3.118-5.871,4.805l-13.53,10.889a15.269,15.269,0,0,0-2.309,2.326,12.321,12.321,0,0,0-1.585,2.778,59.045,59.045,0,0,0-1.883,5.9v-.085c.392,4.592.784,8.87,1.3,12.67a32.673,32.673,0,0,0,1.253,5.249c.452,1.61.852,3.11,1.261,4.465.75,2.692,1.355,4.848,1.781,6.373l.452,1.7A3.95,3.95,0,0,1,306.213,409.7Z" transform="translate(-102.266 -163.251)" fill="#263238"/>
      <path id="Path_7904" data-name="Path 7904" d="M246.834,464.34l-5.274,8.376h18.1l1.9-8.376Z" transform="translate(-93.677 -182.512)" fill="#263238"/>
      <path id="Path_7905" data-name="Path 7905" d="M100.744,185.72a3.706,3.706,0,0,0,2.215,2.692,1.031,1.031,0,0,0,.545.094.98.98,0,0,0,.452-.264,3.937,3.937,0,0,0,1.3-3.34.658.658,0,0,0-.622-.758,5.113,5.113,0,0,0-1.193,0,5.206,5.206,0,0,0-1.653.349,2,2,0,0,0-1.142,1.184" transform="translate(-72.828 -141.049)" fill="#263238"/>
      <path id="Path_7906" data-name="Path 7906" d="M115.249,153.4c.094.094-1.167,1.338-2.343,3.161a28.668,28.668,0,0,0-1.644,2.948l-.17.332v-.349c0-.3-.2-.435-.162-.469s.247.043.375.426h-.2a11.928,11.928,0,0,1,1.483-3.118,8.776,8.776,0,0,1,2.667-2.931Z" transform="translate(-74.348 -136.505)" fill="#263238"/>
      <path id="Path_7907" data-name="Path 7907" d="M117.207,156.3a10.472,10.472,0,0,0-2.428,1.312c-1.184.954-2.028,1.934-2.139,1.832a6.007,6.007,0,0,1,1.866-2.181,4.891,4.891,0,0,1,1.84-.937C116.832,156.2,117.207,156.24,117.207,156.3Z" transform="translate(-74.602 -136.925)" fill="#263238"/>
      <path id="Path_7908" data-name="Path 7908" d="M314.6,465.883l-4.55,6.706,17.16.3-.145-9.406Z" transform="translate(-103.811 -182.385)" fill="#263238"/>
      <g id="Group_12392" data-name="Group 12392" transform="translate(100.674 102.817)" opacity="0.3">
        <path id="Path_7909" data-name="Path 7909" d="M194.032,257.078a2.1,2.1,0,0,0-2.343-.315,4.337,4.337,0,0,0-1.7,1.38,13.446,13.446,0,0,0-.571-2.888,1.764,1.764,0,0,0-.392-.852c-.409-.383-1.389,0-1.806.341a2.043,2.043,0,0,0-.9,1.15c-.6,2.769.622,5.726,1.363,8.461a36.228,36.228,0,0,0,5.9-3.953A2.428,2.428,0,0,0,194.032,257.078Z" transform="translate(-186.153 -254.242)" fill="#4d8a8b"/>
      </g>
      <g id="Group_12393" data-name="Group 12393" transform="translate(163.481 156.749)" opacity="0.3">
        <path id="Path_7910" data-name="Path 7910" d="M266.873,317.54c-1.551,3.408-1.21,7.532-2.829,10.957-.8,1.7-2.053,3.144-2.871,4.831-1.474,3.042-1.875,6.228-.29,9.211l1.261.528a32.671,32.671,0,0,1,1.883-6.041,24.08,24.08,0,0,0,1.661-3.093,16.283,16.283,0,0,0,1.227-4.644C267,325.336,267.163,321.476,266.873,317.54Z" transform="translate(-259.867 -317.54)" fill="#4d8a8b"/>
      </g>
      <path id="Path_7911" data-name="Path 7911" d="M268.959,367.387a2.557,2.557,0,0,1-.23-.528l-.562-1.551-2.011-5.734-1.372-4c-.5-1.414-.9-2.982-1.406-4.6l-.733-2.505-.383-1.3a10.722,10.722,0,0,1-.341-1.346,8.52,8.52,0,0,1,.17-2.863,25.887,25.887,0,0,1,.682-2.837,22.954,22.954,0,0,1,2.19-5.308,23.609,23.609,0,0,0,1.227-2.394,10.778,10.778,0,0,0,.665-2.462,47.7,47.7,0,0,0,.324-4.771c.06-1.508.085-2.905.068-4.184a31.856,31.856,0,0,0-.588-6.015c-.136-.7-.281-1.235-.375-1.6a3.738,3.738,0,0,1-.136-.554,2.31,2.31,0,0,1,.222.528c.128.358.29.895.46,1.593a28.849,28.849,0,0,1,.733,6.041c.043,1.287,0,2.692,0,4.2a44.361,44.361,0,0,1-.29,4.823,11.078,11.078,0,0,1-.673,2.556,22.678,22.678,0,0,1-1.235,2.445,23.117,23.117,0,0,0-2.147,5.223,26.072,26.072,0,0,0-.673,2.795,8.239,8.239,0,0,0-.179,2.718c.417,1.747.98,3.468,1.423,5.112s.852,3.178,1.363,4.609.912,2.752,1.321,3.979l1.874,5.768c.2.656.366,1.176.486,1.585A2.5,2.5,0,0,1,268.959,367.387Z" transform="translate(-96.682 -160.096)" fill="#263238"/>
      <g id="Group_12394" data-name="Group 12394" transform="translate(46.269 37.242)" opacity="0.3">
        <path id="Path_7912" data-name="Path 7912" d="M130.284,194.227c1.074-3.366,1.568-7.123-.111-10.224a9.952,9.952,0,0,0-2.326-2.462,34.082,34.082,0,0,0-5.547-4.26,16.359,16.359,0,0,1,8.938,3.34,9.611,9.611,0,0,1,2.036,1.857,7.907,7.907,0,0,1,1.338,5.623,23.372,23.372,0,0,1-1.585,5.692Z" transform="translate(-122.3 -177.28)" fill="#4d8a8b"/>
      </g>
      <g id="Group_12395" data-name="Group 12395" transform="translate(36.041 11.925)" opacity="0.3">
        <path id="Path_7913" data-name="Path 7913" d="M112.182,157.666a1.525,1.525,0,0,1-1.7-.963,3.059,3.059,0,0,1,0-2.079c.8-2.462,3.016-4.175,5.206-5.555a8.716,8.716,0,0,1,3.476-1.474.52.52,0,0,1,.341,0,.588.588,0,0,1,.2.332,5.743,5.743,0,0,1-.29,4.269,11.451,11.451,0,0,1-2.5,2.94,11.571,11.571,0,0,1-2.556,2,5.87,5.87,0,0,1-2.709.639" transform="translate(-110.296 -147.566)" fill="#4d8a8b"/>
      </g>
      <path id="Path_7914" data-name="Path 7914" d="M300.326,291.179l.2.562a12.335,12.335,0,0,1,.281,1.7,55.372,55.372,0,0,1,0,6.91c-.068,1.525-.17,3.238-.315,5.112-.077.937-.162,1.926-.247,2.957s-.17,2.113-.366,3.221a18.113,18.113,0,0,1-2.658,6.748,31.984,31.984,0,0,1-5.777,5.964h0v.043h0c-3.28,2.556-6.816,5.41-10.65,8.52-1.9,1.559-3.868,3.187-5.854,4.916q-1.5,1.278-2.982,2.7a17.528,17.528,0,0,0-1.389,1.483,8.885,8.885,0,0,0-1.048,1.781c-1.142,2.556-1.133,5.547-1.108,8.52,0,1.491.06,3.008.162,4.524a39.564,39.564,0,0,0,.648,4.6,169,169,0,0,0,5.317,19.086v.085l-.068.06-18.822,15.251-5.036,4.081a34.4,34.4,0,0,0-4.763,4.567,50.457,50.457,0,0,0-7.387,11.443l-.043.094H223.37l.119-.222a36.523,36.523,0,0,1,3.775-5.189c1.355-1.661,2.761-3.306,4.175-4.959,2.837-3.3,5.76-6.6,8.742-9.96l9.04-10.224c.75-.852,1.517-1.7,2.249-2.624a7.736,7.736,0,0,0,.537-.673,3.093,3.093,0,0,0,.46-.7,5.42,5.42,0,0,0,.392-1.627,43.061,43.061,0,0,0-.383-6.987c-.1-1.184-.2-2.369-.2-3.57a10.685,10.685,0,0,0-.673-3.408,66.429,66.429,0,0,0-3.144-6.476c-1.312-4.7-2.931-9.3-4.516-14s-3.2-9.441-4.831-14.246c-.8-2.394-1.61-4.814-2.377-7.259a37.112,37.112,0,0,1-1.039-3.749,11.128,11.128,0,0,1,.358-3.9l.111.222a97.983,97.983,0,0,0-15.916-4.882c-5.47-1.338-11-2.854-16.5-4.575-11.017-3.408-22.153-7.2-33.536-11.076h0L154.5,284.55h.17l-3.2.656c-.537.119-1.082.247-1.627.392a16,16,0,0,0-1.6.579,10.693,10.693,0,0,1-3.527.341,24.948,24.948,0,0,1-3.544-.409h.17a24.207,24.207,0,0,1-8.7,3.553l-3.178.588c-4.26.852-8.589,1.772-12.934,2.761l.136-.094c-1.082,1.7-2.283,3.647-3.493,5.564v-.2a60.95,60.95,0,0,1,1.312,6.118,63.9,63.9,0,0,0,1.235,6.28,21.863,21.863,0,0,0,7.217,10.685l.068.051v.077a19.709,19.709,0,0,0,1.5,4.26c.187.324.409.673.665.75a1.193,1.193,0,0,0,.946-.239,7.668,7.668,0,0,0,1.7-1.6l.852-1.005-.443,1.21L124.091,336.4l-.111.307-.239-.221-12.5-11.128-.051-.043v-.06L102.5,297.237v-.145c.75-1.909,1.568-3.868,2.454-5.854.452-.988.92-1.985,1.44-2.965a14.94,14.94,0,0,1,.852-1.448,4.26,4.26,0,0,1,1.167-1.261c4.022-2.863,8.171-5.427,12.278-8.052l12.337-7.719-.077.085c.153-.332.307-.656.452-.988v.239c-2.684-2.965-5.359-5.922-7.8-9.066a11.713,11.713,0,0,1-.852-1.227,4.4,4.4,0,0,1-.682-1.389,17.8,17.8,0,0,1-.452-2.974,57.593,57.593,0,0,1-.153-5.964,54.881,54.881,0,0,1,.435-5.913,21.4,21.4,0,0,1,1.7-5.683,81.8,81.8,0,0,1,5.5-10.361v.119q0-11-.085-21.855v-5.41l.043-2.7a13.7,13.7,0,0,0-.077-2.65,9.2,9.2,0,0,0-2.147-4.7c-.281-.324-.588-.707-.852-.98a1.619,1.619,0,0,0-1.108-.332,6.373,6.373,0,0,0-2.462.673l.1-.111a39.083,39.083,0,0,1-2.428,4.9,6.305,6.305,0,0,1-2.053,1.866,15.617,15.617,0,0,1-2.445,1.227l.1-.085a52.761,52.761,0,0,1-3.135,4.26,35.154,35.154,0,0,1-3.63,3.834c-2.556,2.411-5.112,4.712-7.779,6.978l.068-.162a35.294,35.294,0,0,1-.29,4.925,6,6,0,0,1-.153.622,1.082,1.082,0,0,1-.409.588,3.255,3.255,0,0,1-1.21.46,12.517,12.517,0,0,1-2.445.239h-.332l.153-.324v-.043h0a.128.128,0,0,0,.051.094c0,.06.153.06.128.06h0l-.264.17-.511.426c-.349.29-.682.6-1.014.9a4.141,4.141,0,0,1-2.556,1.082,8.665,8.665,0,0,1-5.223-1.593,9.636,9.636,0,0,1-3.536-4.115,9.986,9.986,0,0,1-.656-5.359,28.5,28.5,0,0,1,1.15-5.232c.477-1.7.988-3.408,1.517-5.112s1.065-3.357,1.619-5.018a50.987,50.987,0,0,1,1.849-4.916,6.663,6.663,0,0,0,.452-2.471,21.371,21.371,0,0,0-.1-2.556c-.145-1.7-.409-3.408-.417-5.172a3.407,3.407,0,0,1,0-.656l.153-.673c.145-.418.307-.852.452-1.218.341-.792.682-1.585,1.057-2.352.724-1.559,1.508-3.076,2.283-4.584,3.135-6.032,6.407-11.929,9.679-17.646h0c3.7-4.482,7.319-8.921,11.128-13.113.247-.264.486-.52.741-.767.128-.128.256-.256.392-.375l.213-.179.128-.085.094-.043a.239.239,0,0,1,.256.043,12.074,12.074,0,0,1,1.014,1.934,11.077,11.077,0,0,1,.852,4.149,13.1,13.1,0,0,1-2.684,7.847l-.179-.307a66.457,66.457,0,0,1,13.633-.673,54.6,54.6,0,0,1,13.147,2.036,35.121,35.121,0,0,1,11.52,5.964,58.324,58.324,0,0,1,4.831,4.192,44.578,44.578,0,0,1,4.107,4.8,93.79,93.79,0,0,1,6.569,10.582c.988,1.772,1.951,3.553,2.837,5.351s1.7,3.587,2.556,5.368a114.438,114.438,0,0,0,5.47,10.293c2.028,3.2,4.26,6.416,7.668,8.06a65.839,65.839,0,0,1,8.606,6.816,64.345,64.345,0,0,1,7.251,7.728c.52.7,1.031,1.406,1.483,2.147a22.436,22.436,0,0,1,1.193,2.275,19.239,19.239,0,0,0,3.025,3.979,40.564,40.564,0,0,0,3.689,3.289c.639.52,1.278,1.022,1.883,1.576.153.136.29.3.443.426l.443.366,1.014.648c2.761,1.619,5.564,3.042,8.316,4.405s5.487,2.624,8.163,3.843c5.368,2.386,10.557,4.516,15.575,6.262,2.514.852,4.993,1.568,7.4,2.3a63.427,63.427,0,0,1,6.876,2.556,74.214,74.214,0,0,1,11.647,6.407,57.088,57.088,0,0,1,8.878,7.217,36.441,36.441,0,0,1,3.153,3.885l2.7,3.613c3.408,4.567,5.9,8.137,7.489,10.6.792,1.235,1.355,2.2,1.7,2.854a10.7,10.7,0,0,1,.486,1.005l-.128-.247c-.094-.162-.2-.426-.383-.75-.366-.648-.929-1.6-1.7-2.829-1.61-2.454-4.124-5.964-7.523-10.565l-2.718-3.6a35.665,35.665,0,0,0-3.153-3.868,57.878,57.878,0,0,0-8.9-7.217,74.325,74.325,0,0,0-11.63-6.365,63.09,63.09,0,0,0-6.859-2.514c-2.4-.724-4.9-1.423-7.413-2.292-5.036-1.7-10.224-3.86-15.609-6.254-2.675-1.2-5.41-2.462-8.171-3.826s-5.564-2.786-8.341-4.414l-1.022-.656-.494-.392c-.153-.136-.273-.29-.426-.417-.6-.545-1.235-1.048-1.874-1.559a42.251,42.251,0,0,1-3.715-3.306,19.6,19.6,0,0,1-3.076-4.039c-.392-.775-.75-1.542-1.193-2.266a25.175,25.175,0,0,0-1.457-2.113,71.988,71.988,0,0,0-15.8-14.485l-1.193-.716c-.392-.264-.792-.52-1.176-.8l-1.065-.946-.971-1.039a37.7,37.7,0,0,1-3.331-4.644,116.448,116.448,0,0,1-5.47-10.327q-1.278-2.671-2.556-5.368c-.852-1.8-1.849-3.562-2.837-5.334a93.572,93.572,0,0,0-6.671-10.344,44.959,44.959,0,0,0-4.081-4.763,60.807,60.807,0,0,0-4.8-4.158,34.755,34.755,0,0,0-11.409-5.964,54.6,54.6,0,0,0-13.062-1.977,66.159,66.159,0,0,0-13.522.673l-.486.077.307-.383a12.636,12.636,0,0,0,2.556-7.592,10.685,10.685,0,0,0-.852-4.013,8.524,8.524,0,0,0-.443-.937l-.256-.452-.128-.222.043-.111v-.051h0c.06,0-.128.077.128-.094h0v.145h0l-.094.06a1.585,1.585,0,0,0-.187.162l-.375.349-.733.758c-3.783,4.184-7.413,8.623-11.076,13.1h0c-3.263,5.751-6.527,11.613-9.654,17.637-.784,1.508-1.559,3.016-2.275,4.567-.375.767-.707,1.551-1.048,2.326-.145.4-.307.8-.435,1.193l-.136.588a3.749,3.749,0,0,0,0,.622c0,1.7.273,3.408.417,5.112A24.328,24.328,0,0,1,91.995,187a7.268,7.268,0,0,1-.486,2.633c-.716,1.568-1.261,3.229-1.832,4.882s-1.091,3.323-1.619,5-1.031,3.408-1.517,5.07a29.269,29.269,0,0,0-1.133,5.163,9.628,9.628,0,0,0,.631,5.112,9.185,9.185,0,0,0,3.2,3.988,8.214,8.214,0,0,0,4.959,1.517,3.749,3.749,0,0,0,2.335-.963c.332-.307.665-.622,1.014-.92l.545-.435a2.133,2.133,0,0,1,.307-.2l.1-.051h.1a.3.3,0,0,1,.2.068.341.341,0,0,1,.068.136.222.222,0,0,1,0,.077.452.452,0,0,1,0,.094.443.443,0,0,1-.051.111l-.179-.315a13.633,13.633,0,0,0,2.36-.23,2.965,2.965,0,0,0,1.039-.392c.264-.153.315-.562.4-.946a35.111,35.111,0,0,0,.281-4.848v-.1l.068-.06c5.163-4.584,10.727-8.972,14.485-15v-.051h.068a15.807,15.807,0,0,0,2.369-1.193,5.862,5.862,0,0,0,1.917-1.7,39.352,39.352,0,0,0,2.4-4.84v-.077h.068a7,7,0,0,1,2.65-.716,2.053,2.053,0,0,1,1.389.443,12.548,12.548,0,0,1,.912,1.031,9.585,9.585,0,0,1,2.241,4.916,13.938,13.938,0,0,1,.085,2.727v8.094q.051,10.855.094,21.846v.119a81.539,81.539,0,0,0-5.47,10.3,20.7,20.7,0,0,0-1.627,5.572,53.616,53.616,0,0,0-.435,5.862c0,1.96,0,3.936.145,5.9a17.042,17.042,0,0,0,.443,2.888,8.222,8.222,0,0,0,1.483,2.462c2.428,3.118,5.112,6.084,7.779,9.04l.1.111-.06.119c-.153.341-.307.682-.469,1.022v.051h-.051l-12.337,7.719c-4.1,2.624-8.273,5.2-12.244,8.026a3.851,3.851,0,0,0-1.065,1.159c-.3.452-.562.929-.852,1.414-.511.963-.98,1.951-1.423,2.931-.852,1.977-1.7,3.936-2.454,5.828v-.145c2.974,9.594,5.964,19.111,8.674,27.972l-.068-.1,12.431,11.136-.358.085c1.431-3.962,2.854-7.915,4.149-11.52l.375.2a7.811,7.811,0,0,1-1.8,1.7,1.61,1.61,0,0,1-1.312.281,1.926,1.926,0,0,1-.912-.954,20.508,20.508,0,0,1-1.542-4.354l.085.128a21.77,21.77,0,0,1-4.541-4.95,21.233,21.233,0,0,1-2.837-5.964,61.347,61.347,0,0,1-1.244-6.322c-.383-2.053-.733-4.149-1.287-6.024v-.119l.051-.085c1.21-1.917,2.411-3.834,3.493-5.564l.051-.077h.085c4.354-1,8.691-1.951,12.942-2.769l3.178-.579a22.487,22.487,0,0,0,3.042-.809,23.243,23.243,0,0,0,5.487-2.667l.085-.06h.085a25.243,25.243,0,0,0,3.476.4,10.344,10.344,0,0,0,3.408-.324c.494-.179,1.074-.443,1.619-.579s1.108-.273,1.644-.392l3.2-.665h.094l.077.051,15.72,11.485h-.06c11.341,3.894,22.511,7.668,33.519,11.077,5.5,1.7,10.974,3.314,16.47,4.584a91.464,91.464,0,0,1,15.984,4.908l.145.068v.162a11.077,11.077,0,0,0-.358,3.758,38.012,38.012,0,0,0,1.031,3.672c.767,2.445,1.568,4.857,2.369,7.259l4.72,14.093,2.343,7.012c.383,1.167.758,2.335,1.133,3.493.162.6.366,1.15.494,1.772.085.324.119.6.2.852a6.1,6.1,0,0,0,.315.852,70.524,70.524,0,0,1,3.153,6.51,10.966,10.966,0,0,1,.69,3.553c0,1.184.085,2.36.2,3.536a42.431,42.431,0,0,1,.366,7.055,5.282,5.282,0,0,1-.417,1.747,3.321,3.321,0,0,1-.494.758c-.17.239-.358.469-.545.69-.733.929-1.474,1.781-2.258,2.633l-9.049,10.224q-4.473,5.027-8.742,9.952c-1.423,1.644-2.82,3.289-4.175,4.95a36.008,36.008,0,0,0-3.723,5.112l-.153-.222h14.7l-.136.094a50.706,50.706,0,0,1,7.438-11.511,34.928,34.928,0,0,1,4.805-4.6l5.044-4.081,18.83-15.226-.043.145a170.639,170.639,0,0,1-5.266-19.188,37.737,37.737,0,0,1-.648-4.627c-.1-1.534-.128-3.042-.162-4.533a42.185,42.185,0,0,1,.128-4.422,13.044,13.044,0,0,1,1.014-4.175,9.007,9.007,0,0,1,1.074-1.815,16.007,16.007,0,0,1,1.414-1.517c.988-.946,1.994-1.832,2.991-2.7,2-1.7,3.962-3.349,5.871-4.908,3.809-3.11,7.379-5.964,10.667-8.52h0v-.043h0a32.539,32.539,0,0,0,5.768-5.964,17.893,17.893,0,0,0,2.65-6.689c.2-1.108.264-2.181.375-3.212s.17-2.019.256-2.957q.23-2.82.332-5.112a57.079,57.079,0,0,0,0-6.9,14.69,14.69,0,0,0-.264-1.7C300.378,291.375,300.326,291.179,300.326,291.179Z" transform="translate(-70.486 -134.133)" fill="#263238"/>
    </g>
    <g id="freepik--Plants--inject-116" transform="translate(120.011 141.985)">
      <path id="Path_7915" data-name="Path 7915" d="M273.429,213a1.347,1.347,0,0,0,0,.247,5.627,5.627,0,0,0,.128.716c.051.3.119.707.23,1.159s.264.98.417,1.559a36.28,36.28,0,0,0,4.345,9.3,58.185,58.185,0,0,0,9.994,11.5,186.506,186.506,0,0,0,14.706,11.494,116.982,116.982,0,0,1,14.323,11.86A49.87,49.87,0,0,1,326.545,273a33.366,33.366,0,0,1,3.255,9.654l.23,1.593c.051.46.068.852.094,1.167s.051.537.068.724a.814.814,0,0,1,0,.247.8.8,0,0,0,0-.247v-.724a9.093,9.093,0,0,0-.06-1.184c-.06-.469-.111-1.005-.179-1.6a32.506,32.506,0,0,0-3.136-9.781,49.546,49.546,0,0,0-8.963-12.312A113.845,113.845,0,0,0,303.5,248.607c-5.325-3.919-10.446-7.6-14.689-11.434a59.472,59.472,0,0,1-9.943-11.392,37.778,37.778,0,0,1-4.448-9.176l-.46-1.542c-.119-.452-.2-.852-.273-1.15s-.128-.52-.179-.7a.929.929,0,0,0-.077-.213Z" transform="translate(-177.977 -207.651)" fill="#263238"/>
      <path id="Path_7916" data-name="Path 7916" d="M301.484,264.309c.119-.256.545-.332.9-.358a17.279,17.279,0,0,1,8.478,1.483,12.193,12.193,0,0,1,5.692,5.112h-.545a14.221,14.221,0,0,1-7.754-1.355,33.642,33.642,0,0,1-6.28-4.03C301.671,264.9,301.339,264.6,301.484,264.309Z" transform="translate(-182.123 -215.182)" fill="#455a64"/>
      <path id="Path_7917" data-name="Path 7917" d="M306.15,236.118c.273-.077.613.179.852.426a17.2,17.2,0,0,1,4.669,7.225,12.244,12.244,0,0,1,.128,7.668l-.358-.417a14.263,14.263,0,0,1-4.26-6.6,34.388,34.388,0,0,1-1.3-7.345C305.843,236.663,305.843,236.211,306.15,236.118Z" transform="translate(-182.776 -211.07)" fill="#455a64"/>
      <path id="Path_7918" data-name="Path 7918" d="M329.957,206.763c.247.136.3.562.307.929a17.339,17.339,0,0,1-2.019,8.358,12.21,12.21,0,0,1-5.445,5.393l.051-.545a14.254,14.254,0,0,1,1.84-7.668,34.811,34.811,0,0,1,4.414-6.024C329.352,206.959,329.684,206.6,329.957,206.763Z" transform="translate(-185.282 -206.722)" fill="#455a64"/>
      <path id="Path_7919" data-name="Path 7919" d="M308.56,266.859a3.809,3.809,0,0,0,.852.656,17.9,17.9,0,0,0,2.556,1.406c2.2,1.082,5.462,1.994,8.946,3.2a20.952,20.952,0,0,1,8.043,4.7,15.678,15.678,0,0,1,2.266,3.153,3.349,3.349,0,0,0-.375-1A10.019,10.019,0,0,0,329.2,276.6a19.922,19.922,0,0,0-8.12-4.925c-3.519-1.227-6.765-2.07-8.972-3.059S308.611,266.791,308.56,266.859Z" transform="translate(-183.175 -215.62)" fill="#263238"/>
      <path id="Path_7920" data-name="Path 7920" d="M275.268,246.309c.077-.273.477-.426.852-.528a17.3,17.3,0,0,1,8.6-.162,12.2,12.2,0,0,1,6.561,3.919l-.537.085a14.349,14.349,0,0,1-7.864.153,34.72,34.72,0,0,1-6.936-2.752C275.566,246.855,275.183,246.616,275.268,246.309Z" transform="translate(-178.248 -212.409)" fill="#455a64"/>
      <path id="Path_7921" data-name="Path 7921" d="M282.69,247.6a4.014,4.014,0,0,0,.954.486,18.177,18.177,0,0,0,2.769.9c2.386.639,5.777.9,9.449,1.44a23.422,23.422,0,0,1,8.716,3.476c2.053,1.312,3.238,2.266,3.28,2.207a3.793,3.793,0,0,0-.775-.733c-.52-.443-1.3-1.057-2.318-1.755a22.153,22.153,0,0,0-8.827-3.706c-3.715-.528-7.08-.75-9.458-1.3S282.724,247.513,282.69,247.6Z" transform="translate(-179.348 -212.769)" fill="#263238"/>
      <path id="Path_7922" data-name="Path 7922" d="M253.769,210.534c.17-.23.6-.23.963-.187a17.185,17.185,0,0,1,8.069,2.982,12.2,12.2,0,0,1,4.686,6.032l-.537-.119a14.255,14.255,0,0,1-7.379-2.718,34.6,34.6,0,0,1-5.462-5.112C253.854,211.156,253.582,210.789,253.769,210.534Z" transform="translate(-175.059 -207.255)" fill="#455a64"/>
      <path id="Path_7923" data-name="Path 7923" d="M260.3,214.279a4.187,4.187,0,0,0,.477.6,14.23,14.23,0,0,0,1.551,1.389,37.124,37.124,0,0,0,5.828,3.6c1.184.622,2.309,1.21,3.306,1.781a18.99,18.99,0,0,1,2.556,1.7c1.363,1.074,2.113,1.857,2.164,1.806s-.136-.239-.46-.613a17.2,17.2,0,0,0-4-3.263c-1-.588-2.122-1.193-3.3-1.815a51.121,51.121,0,0,1-5.853-3.408C261.118,215,260.36,214.22,260.3,214.279Z" transform="translate(-176.035 -207.84)" fill="#263238"/>
      <path id="Path_7924" data-name="Path 7924" d="M308,240.6a3.758,3.758,0,0,0,.153,1.014c.136.648.383,1.576.741,2.709s.852,2.462,1.44,3.9a24.709,24.709,0,0,0,2.42,4.516c.537.75,1.15,1.389,1.7,2.028l1.627,1.832c1.022,1.167,1.917,2.249,2.633,3.178,1.44,1.866,2.2,3.118,2.258,3.076a3.408,3.408,0,0,0-.46-.92c-.324-.579-.852-1.389-1.525-2.352s-1.568-2.079-2.556-3.272l-1.619-1.849c-.554-.648-1.159-1.287-1.7-2a26.232,26.232,0,0,1-2.4-4.405c-.63-1.423-1.133-2.735-1.525-3.843s-.682-2.011-.852-2.641A5.05,5.05,0,0,0,308,240.6Z" transform="translate(-183.093 -211.735)" fill="#263238"/>
      <path id="Path_7925" data-name="Path 7925" d="M283.237,215.209c.281-.043.571.273.8.554a17.364,17.364,0,0,1,3.408,7.9,12.227,12.227,0,0,1-1.082,7.558l-.29-.469a14.271,14.271,0,0,1-3.118-7.2,34.251,34.251,0,0,1-.094-7.464C282.845,215.695,282.956,215.243,283.237,215.209Z" transform="translate(-179.35 -207.978)" fill="#455a64"/>
      <path id="Path_7926" data-name="Path 7926" d="M284.595,219.87a10.533,10.533,0,0,0,0,2.7,39.474,39.474,0,0,0,.912,6.467,21.625,21.625,0,0,0,1.057,3.451,22.154,22.154,0,0,0,1.389,2.556,16.189,16.189,0,0,0,1.44,2.283,14.63,14.63,0,0,0-1.15-2.445q-.7-1.246-1.27-2.556a25.141,25.141,0,0,1-1.005-3.408,57.879,57.879,0,0,1-1.039-6.382,26.484,26.484,0,0,0-.332-2.667Z" transform="translate(-179.617 -208.668)" fill="#263238"/>
      <path id="Path_7927" data-name="Path 7927" d="M325.955,214.33c.068,0-.5,1.15-1.142,3.05a27.607,27.607,0,0,0-.912,3.408,26.518,26.518,0,0,0-.3,8.52,29.349,29.349,0,0,0,.665,3.451c.511,1.934,1.005,3.084.937,3.118a3.214,3.214,0,0,1-.409-.784,18.282,18.282,0,0,1-.852-2.249,22.861,22.861,0,0,1-.767-3.485,27.264,27.264,0,0,1-.239-4.362,28.335,28.335,0,0,1,.537-4.328,23.865,23.865,0,0,1,1.014-3.408,19.031,19.031,0,0,1,.98-2.19,3.513,3.513,0,0,1,.486-.741Z" transform="translate(-185.302 -207.848)" fill="#263238"/>
      <path id="Path_7928" data-name="Path 7928" d="M190.213,430.39a7.668,7.668,0,0,1,5.283,2.795,13.488,13.488,0,0,1,2.633,5.5c.971,3.843.273,8.35-.852,12.15-4.124-1.542-6.62-5.964-7.736-8.341-1.781-3.7-2.744-11.46.69-12.1" transform="translate(-165.326 -239.817)" fill="#4d8a8b"/>
      <path id="Path_7929" data-name="Path 7929" d="M205.629,458.028a6.535,6.535,0,0,1-.213-6.535,8.674,8.674,0,0,1,5.266-4.115,3.664,3.664,0,0,1,3.067.2,2.8,2.8,0,0,1,1.031,2.624,5.64,5.64,0,0,1-1.227,2.658c-2.053,2.7-4.541,4.942-7.924,5.172" transform="translate(-167.8 -242.294)" fill="#4d8a8b"/>
      <path id="Path_7930" data-name="Path 7930" d="M205.161,468.745a13.1,13.1,0,0,1-.486-2.556,12.235,12.235,0,0,1,0-2.863,26.537,26.537,0,0,1,.528-3.459,12.976,12.976,0,0,1,2.837-5.658,8.788,8.788,0,0,1,1.414-1.27,2.156,2.156,0,0,1,.613-.349c.051.06-.792.613-1.806,1.849a13.9,13.9,0,0,0-2.641,5.555,29.931,29.931,0,0,0-.554,3.408,13.129,13.129,0,0,0-.085,2.786A18.929,18.929,0,0,1,205.161,468.745Z" transform="translate(-167.792 -243.102)" fill="#263238"/>
      <path id="Path_7931" data-name="Path 7931" d="M192.09,437.25a8.653,8.653,0,0,1,.588,1.193c.349.775.852,1.9,1.44,3.306,1.2,2.8,2.812,6.688,4.482,11.025s3.076,8.316,4.03,11.213c.477,1.448.852,2.624,1.091,3.408a6.357,6.357,0,0,1,.332,1.278,7.82,7.82,0,0,1-.494-1.227l-1.227-3.408c-1.031-2.871-2.479-6.816-4.149-11.153l-4.354-11.076-1.312-3.366a6.39,6.39,0,0,1-.426-1.193Z" transform="translate(-165.942 -240.832)" fill="#263238"/>
      <path id="Path_7932" data-name="Path 7932" d="M198.185,462.636a15.226,15.226,0,0,0-12.636-5.828c-1.227.068-2.658.452-3.067,1.61s.477,2.369,1.423,3.161a13,13,0,0,0,14.34,1.355" transform="translate(-164.505 -243.724)" fill="#4d8a8b"/>
      <path id="Path_7933" data-name="Path 7933" d="M188.88,460a2.217,2.217,0,0,1,.7,0,18.89,18.89,0,0,1,1.883.17,17.2,17.2,0,0,1,5.964,1.84,10.829,10.829,0,0,1,2.727,2.173,10.464,10.464,0,0,1,1.568,2.36,11.654,11.654,0,0,1,.673,1.781,2.557,2.557,0,0,1,.136.69c-.085,0-.349-.937-1.091-2.326a11.186,11.186,0,0,0-1.593-2.232A10.905,10.905,0,0,0,197.2,462.4a19.3,19.3,0,0,0-5.811-1.926A20.617,20.617,0,0,1,188.88,460Z" transform="translate(-165.467 -244.193)" fill="#263238"/>
      <path id="Path_7934" data-name="Path 7934" d="M175.08,355.727a3.357,3.357,0,0,1,.673,0l1.9.136c1.7.119,4.056.264,7.021.392s6.484.23,10.412.426a120.6,120.6,0,0,1,12.738,1.244,60.643,60.643,0,0,1,12.414,3.408,41.682,41.682,0,0,1,9.236,5.07,30.732,30.732,0,0,1,5.18,4.806,18.408,18.408,0,0,1,1.193,1.517,4.172,4.172,0,0,1,.383.545,3.008,3.008,0,0,1-.46-.494c-.3-.324-.665-.852-1.253-1.448a33.4,33.4,0,0,0-5.274-4.652,42.309,42.309,0,0,0-9.2-4.925,60.831,60.831,0,0,0-12.32-3.323,126.672,126.672,0,0,0-12.687-1.278l-10.4-.537c-2.965-.17-5.368-.358-7.021-.537-.852-.085-1.466-.179-1.9-.23A3.356,3.356,0,0,1,175.08,355.727Z" transform="translate(-163.425 -228.767)" fill="#263238"/>
      <path id="Path_7935" data-name="Path 7935" d="M194,368.086c-.051-.29.256-.588.545-.809a17.177,17.177,0,0,1,7.95-3.51,12.781,12.781,0,0,1,7.788,1.082l-.469.29a14.246,14.246,0,0,1-7.268,3.221,36.512,36.512,0,0,1-7.668.145C194.468,368.478,194,368.41,194,368.086Z" transform="translate(-166.224 -229.93)" fill="#455a64"/>
      <path id="Path_7936" data-name="Path 7936" d="M180.99,342.449c.179-.222.613-.2.98-.136a18.489,18.489,0,0,1,8.205,3.451,12.781,12.781,0,0,1,4.661,6.348l-.545-.145a15.2,15.2,0,0,1-7.5-3.153,36.748,36.748,0,0,1-5.479-5.436C181.084,343.08,180.811,342.7,180.99,342.449Z" transform="translate(-164.291 -226.779)" fill="#455a64"/>
      <path id="Path_7937" data-name="Path 7937" d="M201.33,366.346c0-.085,1.551,0,3.97-.486s5.64-1.517,9.3-2.471a20.678,20.678,0,0,1,9.713-.426,10.608,10.608,0,0,1,2.8,1.082,3.681,3.681,0,0,1,.9.622,16.579,16.579,0,0,0-3.775-1.372,21.769,21.769,0,0,0-9.509.562c-3.63.946-6.893,2-9.372,2.335a18.836,18.836,0,0,1-2.948.239A3.884,3.884,0,0,1,201.33,366.346Z" transform="translate(-167.309 -229.783)" fill="#263238"/>
      <path id="Path_7938" data-name="Path 7938" d="M161.426,367.407c-.1-.264.136-.622.366-.895a16.938,16.938,0,0,1,7.08-4.967,12.559,12.559,0,0,1,7.8-.392l-.392.375a14.016,14.016,0,0,1-6.475,4.541,35.418,35.418,0,0,1-7.421,1.585C162.005,367.705,161.537,367.722,161.426,367.407Z" transform="translate(-161.401 -229.507)" fill="#455a64"/>
      <path id="Path_7939" data-name="Path 7939" d="M168.26,364.051c0-.085,1.517-.315,3.8-1.235s5.24-2.556,8.657-4.218a22.553,22.553,0,0,1,9.577-1.849,26.687,26.687,0,0,1,2.974.17,4.356,4.356,0,0,1,1.091.179c0,.085-1.559-.06-4.056,0a24,24,0,0,0-9.372,1.943c-3.408,1.619-6.373,3.3-8.742,4.1a17.307,17.307,0,0,1-2.854.8,3.544,3.544,0,0,1-1.074.111Z" transform="translate(-162.416 -228.919)" fill="#263238"/>
      <path id="Path_7940" data-name="Path 7940" d="M185.19,345.23a5.343,5.343,0,0,1,.852.63c.537.426,1.321,1.022,2.309,1.7s2.19,1.534,3.562,2.369a28.407,28.407,0,0,0,4.635,2.36c.852.307,1.7.5,2.556.733l2.445.656c1.551.435,2.948.852,4.09,1.3s2.07.852,2.684,1.116a4.26,4.26,0,0,1,.937.52c0,.068-1.414-.562-3.723-1.312-1.15-.383-2.556-.784-4.1-1.2l-2.445-.622c-.852-.23-1.7-.417-2.633-.75a26.219,26.219,0,0,1-4.712-2.428,38.515,38.515,0,0,1-3.527-2.471c-.971-.767-1.7-1.4-2.232-1.866a4.122,4.122,0,0,1-.7-.741Z" transform="translate(-164.921 -227.216)" fill="#263238"/>
    </g>
    <g id="freepik--Cloud--inject-116" transform="translate(235.903 97.082)">
      <path id="Path_7941" data-name="Path 7941" d="M410.076,186.474c.648-3.519-2.454-9.117-5.325-11.247a9.867,9.867,0,0,0-10.165-.852,9.637,9.637,0,0,0-16.112-7.89c-1.184-5.334-4.805-10.378-10.02-12.005s-11.758,1.193-13.13,6.475c-5.053-4.03-13.5-2.658-17.041,2.778a6.732,6.732,0,0,1-1.815,2.275c-1.448.912-3.306.239-4.984-.051A10.8,10.8,0,0,0,319.7,173.3c-6.484-3.894-21.037,5.7-22.281,13.155Z" transform="translate(-297.42 -154.021)" fill="#4d8a8b"/>
      <g id="Group_12396" data-name="Group 12396" transform="translate(0)" opacity="0.7">
        <path id="Path_7942" data-name="Path 7942" d="M410.076,186.474c.648-3.519-2.454-9.117-5.325-11.247a9.867,9.867,0,0,0-10.165-.852,9.637,9.637,0,0,0-16.112-7.89c-1.184-5.334-4.805-10.378-10.02-12.005s-11.758,1.193-13.13,6.475c-5.053-4.03-13.5-2.658-17.041,2.778a6.732,6.732,0,0,1-1.815,2.275c-1.448.912-3.306.239-4.984-.051A10.8,10.8,0,0,0,319.7,173.3c-6.484-3.894-21.037,5.7-22.281,13.155Z" transform="translate(-297.42 -154.021)" fill="#fff"/>
      </g>
    </g>
    <g id="freepik--Floor--inject-116" transform="translate(0 369.639)">
      <path id="Path_7943" data-name="Path 7943" d="M411.55,474.132c0,.128-87.538.222-195.491.222s-195.508-.094-195.508-.222,87.521-.222,195.508-.222S411.55,473.987,411.55,474.132Z" transform="translate(-20.55 -473.91)" fill="#263238"/>
    </g>
  </g>
</svg>
