<svg xmlns="http://www.w3.org/2000/svg" width="37.724" height="40.245" viewBox="0 0 37.724 40.245">
  <g id="box" transform="translate(-16.032 0)">
    <g id="Group_12413" data-name="Group 12413" transform="translate(16.032 -0.001)">
      <g id="Group_12412" data-name="Group 12412" transform="translate(0 0)">
        <path id="Path_8002" data-name="Path 8002" d="M53.423,8.879,35.15.058a.59.59,0,0,0-.513,0L16.365,8.879a.589.589,0,0,0-.333.531V30.833a.589.589,0,0,0,.333.531l18.273,8.821a.59.59,0,0,0,.513,0l18.273-8.821a.589.589,0,0,0,.333-.531V9.41A.59.59,0,0,0,53.423,8.879ZM34.894,1.244,51.811,9.41l-4.9,2.367a.585.585,0,0,0-.1-.063L30.005,3.6ZM28.674,4.27l16.892,8.155-3.46,1.67L25.221,5.944Zm17.287,9.273v6.174l-3.232,1.56V15.1Zm6.616,16.92L35.484,38.715V18.6l4.077-1.968a.59.59,0,1,0-.513-1.062l-4.154,2.006-1.635-.789a.59.59,0,0,0-.513,1.062L34.3,18.6V38.715L17.211,30.463V10.349l13.017,6.284a.59.59,0,0,0,.513-1.062L17.977,9.41l5.856-2.827,17.709,8.549.008.01v7.074a.59.59,0,0,0,.846.531l4.411-2.129a.589.589,0,0,0,.333-.531V12.974l5.437-2.625V30.463Z" transform="translate(-16.032 0.001)" fill="#4d8a8b"/>
      </g>
    </g>
    <g id="Group_12415" data-name="Group 12415" transform="translate(18.549 26.824)">
      <g id="Group_12414" data-name="Group 12414" transform="translate(0)">
        <path id="Path_8003" data-name="Path 8003" d="M51.576,342.615l-2.682-1.295a.59.59,0,0,0-.513,1.062l2.682,1.295a.59.59,0,0,0,.513-1.062Z" transform="translate(-48.048 -341.261)" fill="#4d8a8b"/>
      </g>
    </g>
    <g id="Group_12417" data-name="Group 12417" transform="translate(18.552 24.028)">
      <g id="Group_12416" data-name="Group 12416" transform="translate(0)">
        <path id="Path_8004" data-name="Path 8004" d="M54.088,308.233l-5.146-2.484a.59.59,0,1,0-.513,1.062l5.146,2.484a.59.59,0,0,0,.513-1.062Z" transform="translate(-48.096 -305.69)" fill="#4d8a8b"/>
      </g>
    </g>
  </g>
</svg>
