<svg id="Tracking_Delivery" data-name="Tracking Delivery" xmlns="http://www.w3.org/2000/svg" width="17.897" height="14.685" viewBox="0 0 17.897 14.685">
  <g id="Group_4" data-name="Group 4" transform="translate(0)">
    <path id="Path_9" data-name="Path 9" d="M19.722,16.438c-.252-.28-1.5-1.712-1.5-2.6a1.836,1.836,0,1,1,3.671,0c0,.89-1.244,2.322-1.5,2.6a.459.459,0,0,1-.679,0Zm.34-3.52a.918.918,0,0,0-.918.918,4.09,4.09,0,0,0,.918,1.583,4.188,4.188,0,0,0,.918-1.583A.918.918,0,0,0,20.062,12.918ZM6.753,18.425H17.308a3.212,3.212,0,1,1,0,6.425H9.966a.459.459,0,0,1,0-.918h7.342a2.295,2.295,0,1,0,0-4.589H6.753a2.753,2.753,0,0,1,0-5.507c10.068,0,9.063.073,8.852-.133a.461.461,0,1,1,.652-.652c1.019,1.023.955.941,1,1.055a.459.459,0,0,1-.087.514c-1,1-1,1.051-1.244,1.051a.459.459,0,0,1-.326-.785c.211-.207,1.221-.133-8.852-.133a1.836,1.836,0,0,0,0,3.671Z" transform="translate(-4 -12)" fill="#222831"/>
    <path id="Path_10" data-name="Path 10" d="M33.459,34H37.13a.459.459,0,0,1,.459.459V38.13a.459.459,0,0,1-.459.459H33.459A.459.459,0,0,1,33,38.13V34.459A.459.459,0,0,1,33.459,34Zm.459,3.671h2.753V34.918h-.918v.459a.459.459,0,1,1-.918,0v-.459h-.918Z" transform="translate(-33 -23.904)" fill="#222831"/>
  </g>
</svg>
