<svg xmlns="http://www.w3.org/2000/svg" width="17" height="17" viewBox="0 0 17 17">
  <g id="Buy" transform="translate(-0.333 -0.333)">
    <path id="Buy-2" data-name="Buy" d="M12.877,15.69A1.287,1.287,0,1,1,14.168,17,1.3,1.3,0,0,1,12.877,15.69Zm-9.555,0A1.287,1.287,0,1,1,4.612,17,1.3,1.3,0,0,1,3.322,15.69ZM4.748,13a2.133,2.133,0,0,1-1.467-.585,2.223,2.223,0,0,1-.69-1.444L1.81,1.516.527,1.291A.651.651,0,0,1,.65,0a.7.7,0,0,1,.1.008L2.774.319A.653.653,0,0,1,3.3.909l.161,1.943a.524.524,0,0,0,.518.487H15.45a1.435,1.435,0,0,1,1.2.581,1.913,1.913,0,0,1,.323,1.491l-.807,5.69A2.195,2.195,0,0,1,14.015,13ZM9.666,7.2a.645.645,0,0,0,.637.65h2.352a.645.645,0,0,0,.637-.65.638.638,0,0,0-.637-.651H10.3A.638.638,0,0,0,9.666,7.2Z" transform="translate(0.333 0.333)" fill="#4d8a8b"/>
  </g>
</svg>
