<svg xmlns="http://www.w3.org/2000/svg" width="628.001" height="387.282" viewBox="0 0 628.001 387.282">
  <g id="Group_12221" data-name="Group 12221" transform="translate(-675 -1374.54)">
    <path id="Path_7181" data-name="Path 7181" d="M1315.918,1567.386a142.682,142.682,0,0,0-140.9-120.275c-2.129,0-4.243.068-6.35.161a177.694,177.694,0,1,0-82.138,272,113.688,113.688,0,0,0,121.151,9.38,141.621,141.621,0,0,0,16.491-4.92,91.2,91.2,0,1,0,91.749-156.344Z" transform="translate(-142.811)" fill="#4d8a8b" opacity="0.3"/>
    <path id="Path_7182" data-name="Path 7182" d="M1288.721,3320.025c0-15.879-131.607-28.75-293.953-28.75s-293.948,12.871-293.948,28.75,131.6,28.748,293.948,28.748S1288.721,3335.9,1288.721,3320.025Z" transform="translate(-21.378 -1586.952)" fill="#4d8a8b"/>
    <g id="Group_12203" data-name="Group 12203" transform="translate(675 1476.427)">
      <g id="Group_12202" data-name="Group 12202" transform="translate(0 0)">
        <rect id="Rectangle_26386" data-name="Rectangle 26386" width="366.856" height="225.009" transform="translate(205.264)" fill="#60656d"/>
        <rect id="Rectangle_26387" data-name="Rectangle 26387" width="366.856" height="199.655" transform="translate(205.264)" fill="#fbd46b"/>
        <rect id="Rectangle_26388" data-name="Rectangle 26388" width="366.856" height="23.514" transform="translate(205.264 14.475)" fill="#fbd46b" opacity="0.2"/>
        <rect id="Rectangle_26389" data-name="Rectangle 26389" width="366.856" height="23.518" transform="translate(205.264 69.092)" fill="#fbd46b" opacity="0.2"/>
        <rect id="Rectangle_26390" data-name="Rectangle 26390" width="366.856" height="23.515" transform="translate(205.264 123.715)" fill="#fbd46b" opacity="0.2"/>
        <rect id="Rectangle_26391" data-name="Rectangle 26391" width="366.856" height="23.513" transform="translate(205.264 178.334)" fill="#fbd46b" opacity="0.2"/>
        <path id="Path_7183" data-name="Path 7183" d="M1241.989,3238.764H675.663a.663.663,0,0,1-.663-.663v-17.428a.663.663,0,0,1,.663-.663H1241.99a.663.663,0,0,1,.663.663V3238.1A.664.664,0,0,1,1241.989,3238.764Z" transform="translate(-675 -3004.375)" fill="#60656d"/>
        <path id="Path_7184" data-name="Path 7184" d="M893.471,2102.96v192.194H715.962c-7.759,0-15.152.279-15.152.279s1.092-28.405,15.152-28.405h1.724l44.29-114.282a47.286,47.286,0,0,1,34.274-29.167Z" transform="translate(-696.369 -2079.519)" fill="#60656d"/>
        <g id="Group_12198" data-name="Group 12198" transform="translate(60.498 181.093)">
          <g id="Group_12195" data-name="Group 12195">
            <g id="Group_12194" data-name="Group 12194">
              <path id="Path_7185" data-name="Path 7185" d="M1114.453,3063.165a43.917,43.917,0,1,1-43.916-43.916A43.913,43.913,0,0,1,1114.453,3063.165Z" transform="translate(-1026.619 -3019.249)" fill="#222831"/>
              <path id="Path_7186" data-name="Path 7186" d="M1163.493,3125.063a31.053,31.053,0,1,1-31.053-31.053A31.055,31.055,0,0,1,1163.493,3125.063Z" transform="translate(-1088.524 -3081.147)" fill="#fff"/>
            </g>
            <path id="Path_7187" data-name="Path 7187" d="M1223.148,3200.4a15.4,15.4,0,1,1-15.4-15.4A15.4,15.4,0,0,1,1223.148,3200.4Z" transform="translate(-1163.83 -3156.482)" fill="#fbd46b"/>
          </g>
          <g id="Group_12197" data-name="Group 12197" transform="translate(395.66)">
            <g id="Group_12196" data-name="Group 12196">
              <path id="Path_7188" data-name="Path 7188" d="M3414.063,3063.165a43.917,43.917,0,1,1-43.919-43.916A43.914,43.914,0,0,1,3414.063,3063.165Z" transform="translate(-3326.229 -3019.249)" fill="#222831"/>
              <path id="Path_7189" data-name="Path 7189" d="M3463.083,3125.063a31.056,31.056,0,1,1-31.056-31.053A31.056,31.056,0,0,1,3463.083,3125.063Z" transform="translate(-3388.111 -3081.147)" fill="#fff"/>
            </g>
            <path id="Path_7190" data-name="Path 7190" d="M3522.784,3200.4a15.4,15.4,0,1,1-15.4-15.4A15.4,15.4,0,0,1,3522.784,3200.4Z" transform="translate(-3463.464 -3156.482)" fill="#fbd46b"/>
          </g>
        </g>
        <path id="Path_7191" data-name="Path 7191" d="M1075.749,2250.341a35.122,35.122,0,0,0-25.461,21.676l-17.923,46.244h115.611v-83.237Z" transform="translate(-970.878 -2188.86)" fill="#fbd46b"/>
        <path id="Path_7192" data-name="Path 7192" d="M1147.977,2235.03l-72.227,15.317a35.121,35.121,0,0,0-25.461,21.676l-17.923,46.244Z" transform="translate(-970.878 -2188.866)" fill="#fff" opacity="0.56"/>
        <g id="Group_12201" data-name="Group 12201" transform="translate(313.395 48.617)">
          <g id="Group_12199" data-name="Group 12199" transform="translate(24.489)">
            <path id="Path_7193" data-name="Path 7193" d="M2723.693,2291.73a42.443,42.443,0,1,1-42.439-42.441A42.441,42.441,0,0,1,2723.693,2291.73Z" transform="translate(-2638.808 -2249.289)" fill="#fff"/>
            <path id="Path_7194" data-name="Path 7194" d="M2658.325,2293.455a80.365,80.365,0,0,0,2.254,17.777,50.041,50.041,0,0,0-13.5,5.663c.338.451.682.9,1.033,1.337.019.029.051.062.076.1.373.457.749.907,1.135,1.347a48.207,48.207,0,0,1,12.206-5.038c2.713,8.754,6.956,15.455,12.076,18.824a41.555,41.555,0,0,0,15.292,0c5.12-3.369,9.363-10.07,12.075-18.824a48.136,48.136,0,0,1,12.2,5.038c.385-.432.759-.882,1.122-1.324.054-.073.111-.144.169-.21.319-.4.641-.819.95-1.233a.036.036,0,0,0,.006-.01,49.964,49.964,0,0,0-13.5-5.665,80.355,80.355,0,0,0,2.26-17.777h19.468c.025-.574.041-1.152.041-1.728s-.016-1.157-.041-1.733h-19.468a80.379,80.379,0,0,0-2.26-17.779,50.023,50.023,0,0,0,13.5-5.662l0,0c-.322-.437-.654-.861-.991-1.278a1.689,1.689,0,0,0-.127-.161c-.351-.437-.714-.864-1.078-1.293a.32.32,0,0,1-.048-.043,48.025,48.025,0,0,1-12.2,5.03c-2.716-8.75-6.953-15.455-12.069-18.819a42.1,42.1,0,0,0-15.3,0c-5.113,3.365-9.356,10.069-12.069,18.819a48.089,48.089,0,0,1-12.206-5.03c-.389.446-.774.9-1.144,1.361,0,.008-.013.011-.016.018-.373.459-.733.923-1.081,1.4a49.981,49.981,0,0,0,13.494,5.661,80.393,80.393,0,0,0-2.254,17.779h-19.471c-.026.575-.045,1.151-.045,1.733s.019,1.154.045,1.728Zm24.661-42.271c6,1.17,11.314,8.307,14.53,18.467a76.8,76.8,0,0,1-14.53,1.667Zm0,23.592a81.687,81.687,0,0,0,15.506-1.728,76.148,76.148,0,0,1,2.231,16.945h-17.737Zm0,18.678h17.737a76.249,76.249,0,0,1-2.231,16.948,81.543,81.543,0,0,0-15.506-1.731v-15.217Zm0,18.673a76.919,76.919,0,0,1,14.53,1.669c-3.216,10.161-8.527,17.3-14.53,18.466Zm-3.465,20.135c-6-1.168-11.32-8.3-14.533-18.466a77,77,0,0,1,14.533-1.669Zm0-81.079v20.134a76.838,76.838,0,0,1-14.533-1.667C2668.2,2259.488,2673.517,2252.354,2679.52,2251.185Zm-15.506,21.865a81.589,81.589,0,0,0,15.506,1.728v15.217H2661.78A75.747,75.747,0,0,1,2664.015,2273.049Zm15.506,20.406v15.217a81.463,81.463,0,0,0-15.506,1.731,75.844,75.844,0,0,1-2.235-16.948Z" transform="translate(-2638.808 -2249.286)" fill="#fbd46b"/>
          </g>
          <g id="Group_12200" data-name="Group 12200" transform="translate(0 95.353)">
            <path id="Path_7195" data-name="Path 7195" d="M2511.611,2824.889v1.439h-15.133V2804.4h14.664v1.442h-13.061v8.645h11.68v1.406h-11.68v8.994Z" transform="translate(-2496.478 -2804.244)" fill="#fff"/>
            <path id="Path_7196" data-name="Path 7196" d="M2615.063,2826.323l-7.552-10.148-7.52,10.148h-1.874l8.425-11.305-7.829-10.622h1.878l6.985,9.428,6.988-9.428h1.785l-7.829,10.589,8.425,11.339Z" transform="translate(-2580.629 -2804.24)" fill="#fff"/>
            <path id="Path_7197" data-name="Path 7197" d="M2745.934,2811.8c0,4.606-3.319,7.362-8.834,7.362h-6.264v7.173h-1.6V2804.4h7.861C2742.617,2804.4,2745.934,2807.165,2745.934,2811.8Zm-1.626,0c0-3.79-2.509-5.95-7.208-5.95h-6.264v11.873h6.264C2741.8,2817.719,2744.308,2815.556,2744.308,2811.8Z" transform="translate(-2689.191 -2804.246)" fill="#fff"/>
            <path id="Path_7198" data-name="Path 7198" d="M2872.866,2826.323l-5.238-7.329a15.374,15.374,0,0,1-2.126.156h-6.264v7.173h-1.6V2804.4h7.861c5.515,0,8.833,2.761,8.833,7.393a6.727,6.727,0,0,1-5.139,6.862l5.486,7.673Zm-7.364-8.58c4.7,0,7.208-2.193,7.208-5.953,0-3.79-2.509-5.95-7.208-5.95h-6.264v11.9Z" transform="translate(-2795.501 -2804.24)" fill="#fff"/>
            <path id="Path_7199" data-name="Path 7199" d="M3003.861,2824.889v1.439h-15.132V2804.4h14.664v1.442h-13.064v8.645h11.687v1.406h-11.687v8.994Z" transform="translate(-2904.035 -2804.244)" fill="#fff"/>
            <path id="Path_7200" data-name="Path 7200" d="M3097.65,2822.759l.72-1.194a10.423,10.423,0,0,0,7.236,2.761c4.387,0,6.328-1.915,6.328-4.294,0-6.576-13.692-2.63-13.692-10.718,0-3.1,2.385-5.826,7.772-5.826a11.77,11.77,0,0,1,6.612,1.973l-.6,1.286a10.806,10.806,0,0,0-6.012-1.849c-4.262,0-6.175,1.973-6.175,4.386,0,6.575,13.7,2.694,13.7,10.648,0,3.1-2.477,5.8-7.9,5.8C3102.381,2825.73,3099.248,2824.512,3097.65,2822.759Z" transform="translate(-2994.215 -2803.488)" fill="#fff"/>
            <path id="Path_7201" data-name="Path 7201" d="M3208.54,2822.759l.721-1.194a10.437,10.437,0,0,0,7.24,2.761c4.386,0,6.328-1.915,6.328-4.294,0-6.576-13.688-2.63-13.688-10.718,0-3.1,2.381-5.826,7.765-5.826a11.736,11.736,0,0,1,6.608,1.973l-.59,1.286a10.82,10.82,0,0,0-6.019-1.849c-4.259,0-6.168,1.973-6.168,4.386,0,6.575,13.688,2.694,13.688,10.648,0,3.1-2.474,5.8-7.893,5.8C3213.275,2825.73,3210.14,2824.512,3208.54,2822.759Z" transform="translate(-3086.026 -2803.488)" fill="#fff"/>
          </g>
        </g>
      </g>
    </g>
    <g id="Group_12207" data-name="Group 12207" transform="translate(1179.956 1492.913)">
      <g id="Group_12204" data-name="Group 12204" transform="translate(20.573 47.239)">
        <path id="Path_7202" data-name="Path 7202" d="M3738.28,2337.557s-5.5-1.76-7.574,1.575-1.9,14.87,2.5,20.483,16.558,24.494,47.349,24.494v-8.869s-14.75-2.429-23.182-14.639-16.022-18.665-16.022-18.665S3740.082,2336.965,3738.28,2337.557Z" transform="translate(-3729.421 -2337.093)" fill="#f99d9d"/>
        <path id="Path_7203" data-name="Path 7203" d="M4026.63,2552.4l.1-.2a7.3,7.3,0,0,1,2.244-2.679,20.927,20.927,0,0,1,3.561-2.165c1.69-.663,4.141-.858,3.606,0s-1.916,2.286-1.607,3.046,4.635-.057,4.635,4.852c0,3.7-2.486,5.335-6.171,5.335-4.756,0-5.984-.838-5.984-.838Z" transform="translate(-3975.494 -2510.704)" fill="#f99d9d"/>
      </g>
      <g id="Group_12205" data-name="Group 12205" transform="translate(44.478 74.856)">
        <rect id="Rectangle_26392" data-name="Rectangle 26392" width="35.901" height="6.337" transform="translate(0 0.699)" fill="#d08d4a"/>
        <rect id="Rectangle_26393" data-name="Rectangle 26393" width="35.901" height="0.494" transform="translate(0 6.543)" fill="#ffc269"/>
        <rect id="Rectangle_26394" data-name="Rectangle 26394" width="34.209" height="26.183" transform="translate(0.845 7.037)" fill="#eba057"/>
        <path id="Path_7204" data-name="Path 7204" d="M3907.478,2541.351l-34.208-2.851h34.208Z" transform="translate(-3872.425 -2531.463)" fill="#d3884a" opacity="0.57"/>
        <rect id="Rectangle_26395" data-name="Rectangle 26395" width="5.065" height="9.889" transform="translate(15.416)" fill="#ffc269"/>
      </g>
      <path id="Path_7205" data-name="Path 7205" d="M3783.3,2193.354s-.641,4.259,0,5.646,2.448,2.871,1.275,3.406.077,6.392-1.562,7.563-13.229.641-13.229.641l-.545,6.921s-5.856.743-5.856,0v-6.707l-3.835-11.186s-1.383-4.793,5.964-6.283S3783.3,2193.354,3783.3,2193.354Z" transform="translate(-3733.708 -2170.297)" fill="#f99d9d"/>
      <path id="Path_7206" data-name="Path 7206" d="M3634.253,3443.06l-2.553,7.67,3.835,1.137,3.267-7.956Z" transform="translate(-3627.94 -3205.533)" fill="#f99d9d"/>
      <path id="Path_7207" data-name="Path 7207" d="M3611.052,3474.41l9.085,2.558a11.235,11.235,0,0,0,5.968,5.682c4.686,2.131,6.392,0,5.678,3.977H3617.16s-5.824-.856-6.962-3.836S3611.052,3474.41,3611.052,3474.41Z" transform="translate(-3609.85 -3231.489)" fill="#ed6d52"/>
      <path id="Path_7208" data-name="Path 7208" d="M4076.58,3461.114l2.7,7.951,4.258-.845-2.128-8.67Z" transform="translate(-3996.277 -3219.186)" fill="#f99d9d"/>
      <path id="Path_7209" data-name="Path 7209" d="M4077.5,3489.657h1.632s3.832.144,4.4-1.557,3.695-1.211,3.695-1.211.571,2.345,3.975,2.2c2.1-.088,4.97-.282,6.819.314a1.661,1.661,0,0,1,.14,3.062l-4.584,2.2a28.568,28.568,0,0,1-12.337,2.8h-2.745S4074.939,3493.917,4077.5,3489.657Z" transform="translate(-3996.269 -3241.765)" fill="#ed6d52"/>
      <path id="Path_7210" data-name="Path 7210" d="M3718.914,2849.157l-10.01,2.128c-5.136-5.319-29.685-78.559-35-94.513v-.011c-.647-1.945-1.01-3.046-1.01-3.046-.577,5.95-3.134,15.7-6.561,26.735l-.01.022c-9.06,29.215-24.094,67.405-24.094,67.405l-7.249-2.131c7.249-8.521,14.486-122.693,14.486-122.693s34.091-5.971,38.77,2.131S3718.914,2849.157,3718.914,2849.157Z" transform="translate(-3630.655 -2607.652)" fill="#60656d"/>
      <path id="Path_7211" data-name="Path 7211" d="M3739.521,2413.649c-1.683,6.031-20.176,8.551-33.348,6.954a32.557,32.557,0,0,1-9.111-2.23c-2.126-.949-3.574-2.168-3.972-3.658-2.566-9.16-3.488-67.313,4.463-68.3s15.786-1.49,15.786-1.49,6.375,13.236,12.863,28.182c2.069,4.764,4.135,9.7,6.025,14.438C3736.973,2399.484,3740.483,2410.177,3739.521,2413.649Z" transform="translate(-3677.254 -2296.337)" fill="#e6e7e8"/>
      <path id="Path_7212" data-name="Path 7212" d="M3735.823,2139.453s14.1,1.058,15.251-2.557,2.26-11.295,0-12.144-1.619,2.981-1.619,2.981a15.751,15.751,0,0,0-8.2-2.447c-4.683,0-21.052-.746-23.749,12.032s11.075,18.461,11.075,18.461,1.986-3.69.283-5.823-2.773-10.115.631-9.028,2.92,5.763,3.915,4.342A33.966,33.966,0,0,0,3735.823,2139.453Z" transform="translate(-3698.69 -2113.944)" fill="#11405c"/>
      <path id="Path_7213" data-name="Path 7213" d="M3671.082,2075.408l-31.782,7.216-16,3.607s-1.262-.319,2.512-1.508,12.426-4.4,12.426-4.4,1.948-15.472,15.834-17.581S3671.082,2075.408,3671.082,2075.408Z" transform="translate(-3620.817 -2062.533)" fill="#ed6d52"/>
      <path id="Path_7214" data-name="Path 7214" d="M3734.779,2321.14h11.792s-2.241,6.744-2.257,7.675-16.484-2.091-16.484-2.091S3732.885,2321.53,3734.779,2321.14Z" transform="translate(-3707.531 -2276.645)" fill="#ed6d52"/>
      <path id="Path_7215" data-name="Path 7215" d="M3833.141,2658.88s-3.357,14.978-9.509,16.827l3.484,1.232s7.9-13.336,8.26-18.059Z" transform="translate(-3786.85 -2556.275)" fill="#fbd46b"/>
      <path id="Path_7216" data-name="Path 7216" d="M3723.28,2487.241a32.544,32.544,0,0,1-9.111-2.23c-5.467-11.582.765-58.412.765-58.412s10.676-4.31,4.925,3.479C3714.589,2437.235,3722,2480.108,3723.28,2487.241Z" transform="translate(-3694.361 -2362.975)" fill="#ed6d52"/>
      <path id="Path_7217" data-name="Path 7217" d="M3794.71,2282.36a8.339,8.339,0,0,0,4.272,2.49l-.328,4.182S3795.274,2286,3794.71,2282.36Z" transform="translate(-3762.904 -2244.538)" fill="#ce8484"/>
      <path id="Path_7218" data-name="Path 7218" d="M3740.344,2833.9l2.309,2.617-13.233,9.078v-3.388Z" transform="translate(-3708.847 -2701.182)" fill="#fff"/>
      <path id="Path_7219" data-name="Path 7219" d="M3783.681,2837.213c-.647-1.945-1.01-3.046-1.01-3.046-.577,5.95-3.134,15.7-6.561,26.735l-.009.022-8.531,24.272,15.238-67.093Z" transform="translate(-3740.433 -2688.104)" fill="#11405c"/>
      <g id="Group_12206" data-name="Group 12206" transform="translate(14.825 49.683)">
        <path id="Path_7220" data-name="Path 7220" d="M3714.119,2356.091s-3.695-5.47-7.574-4.729-10.871,8.962-10.52,16.288-.784,29.926,26.016,53.642l5.505-6.224s-17.007-18.07-16.771-33.126,3.3-20.417,3.3-20.417S3716.06,2357.063,3714.119,2356.091Z" transform="translate(-3696.012 -2351.292)" fill="#f99d9d"/>
        <path id="Path_7221" data-name="Path 7221" d="M3850.683,2723.124l.21-.061a7.505,7.505,0,0,1,3.615-.153,25.592,25.592,0,0,1,4.444,1.227c1.884.83,4.135,2.585,3.137,2.778s-3.086.121-3.293.891,5.212,9.262,7.026,10.866c.908.8.424,1.355-.293,1.7a3.343,3.343,0,0,1-2.805.013c-2.48-1.073-8.371-3.776-11.582-6.621-4.135-3.658-4.683-5.2-4.683-5.2Z" transform="translate(-3820.574 -2658.846)" fill="#f99d9d"/>
      </g>
      <path id="Path_7222" data-name="Path 7222" d="M3703.565,2368.615l-17.813,3.414s-3.768-19.658,4.712-26.972,14.269.641,14.269.641,2.522,7.546,1.836,9.307S3703.311,2363.947,3703.565,2368.615Z" transform="translate(-3672.002 -2293.889)" fill="#ed6d52"/>
    </g>
    <g id="Group_12209" data-name="Group 12209" transform="translate(1267.343 1482.644)">
      <path id="Path_7223" data-name="Path 7223" d="M4156.433,2225.077l-2.308,2.842-1.993-2.453a4.085,4.085,0,0,0-3.172-1.51h-22.365a4.088,4.088,0,0,1-4.087-4.09V2207.6a4.085,4.085,0,0,1,4.087-4.088h26.666a4.085,4.085,0,0,1,4.087,4.088v14.9A4.077,4.077,0,0,1,4156.433,2225.077Z" transform="translate(-4121.689 -2168.991)" fill="#fbd46b"/>
      <g id="Group_12208" data-name="Group 12208" transform="translate(0)">
        <path id="Path_7224" data-name="Path 7224" d="M4146.222,2030.511a16.452,16.452,0,1,0-24.043,0l12.022,20.82Z" transform="translate(-4117.748 -2002.852)" fill="#41b193"/>
        <path id="Path_7225" data-name="Path 7225" d="M4185.875,2063.765a7.216,7.216,0,1,1-7.217-7.214A7.218,7.218,0,0,1,4185.875,2063.765Z" transform="translate(-4162.205 -2047.312)" fill="#fff"/>
      </g>
    </g>
    <path id="Path_7226" data-name="Path 7226" d="M1040.9,2627.02v27.139c-7.89,0-14.262-6.068-14.262-13.571S1033.009,2627.02,1040.9,2627.02Z" transform="translate(-291.136 -1036.984)" fill="#11405c"/>
    <g id="Group_12210" data-name="Group 12210" transform="translate(1160.61 1455.665)">
      <path id="Path_7227" data-name="Path 7227" d="M3695.62,1852.365c0-.682,2.107-1.25,4.925-1.393.14-2.815.708-4.923,1.39-4.923s1.246,2.109,1.39,4.923c2.815.144,4.925.711,4.925,1.393s-2.111,1.248-4.925,1.39c-.144,2.813-.708,4.922-1.39,4.922s-1.25-2.109-1.39-4.922C3697.728,1853.612,3695.62,1853.041,3695.62,1852.365Z" transform="translate(-3661.517 -1846.048)" fill="#fbd46b"/>
      <path id="Path_7228" data-name="Path 7228" d="M3497.41,2051.682c0-.443,1.377-.816,3.223-.908.093-1.844.466-3.224.908-3.224s.819,1.38.912,3.224c1.843.093,3.223.465,3.223.908s-1.38.813-3.223.912c-.093,1.841-.465,3.221-.912,3.221s-.816-1.38-.908-3.221C3498.788,2052.5,3497.41,2052.129,3497.41,2051.682Z" transform="translate(-3497.41 -2012.88)" fill="#fbd46b"/>
      <path id="Path_7229" data-name="Path 7229" d="M3549.88,1862.879c0-.448,1.377-.818,3.223-.913.093-1.844.462-3.218.905-3.218s.816,1.374.915,3.218c1.843.1,3.216.465,3.216.913s-1.374.813-3.216.91c-.1,1.843-.466,3.218-.915,3.218s-.813-1.376-.905-3.218C3551.258,1863.692,3549.88,1863.322,3549.88,1862.879Z" transform="translate(-3540.852 -1856.563)" fill="#fbd46b"/>
    </g>
    <g id="Group_12215" data-name="Group 12215" transform="translate(846.954 1630.807)">
      <g id="Group_12213" data-name="Group 12213" transform="translate(6.326 0)">
        <g id="Group_12211" data-name="Group 12211" transform="translate(44.239)">
          <path id="Path_7230" data-name="Path 7230" d="M2007.827,2873.348s24.811,31.649-39.532,29.489C1968.3,2902.836,1981.8,2841.012,2007.827,2873.348Z" transform="translate(-1968.295 -2863.988)" fill="#fff"/>
          <path id="Path_7231" data-name="Path 7231" d="M1999.194,2865.686c-.373,15.514-30.9,37.216-30.9,37.216S1978.824,2854.743,1999.194,2865.686Z" transform="translate(-1968.297 -2864.054)" fill="#b8bcbc"/>
        </g>
        <g id="Group_12212" data-name="Group 12212">
          <path id="Path_7232" data-name="Path 7232" d="M1715.877,2873.348s-24.8,31.649,39.539,29.489C1755.416,2902.836,1741.906,2841.012,1715.877,2873.348Z" transform="translate(-1711.176 -2863.988)" fill="#fff"/>
          <path id="Path_7233" data-name="Path 7233" d="M1788.71,2865.686c.37,15.514,30.9,37.216,30.9,37.216S1809.08,2854.743,1788.71,2865.686Z" transform="translate(-1775.37 -2864.054)" fill="#b8bcbc"/>
        </g>
      </g>
      <g id="Group_12214" data-name="Group 12214" transform="translate(0 38.298)">
        <rect id="Rectangle_26396" data-name="Rectangle 26396" width="91.245" height="72.639" transform="translate(4.941 7.46)" fill="#ed6d52"/>
        <rect id="Rectangle_26397" data-name="Rectangle 26397" width="18.33" height="72.639" transform="translate(41.396 7.46)" fill="#dfdfde"/>
        <rect id="Rectangle_26398" data-name="Rectangle 26398" width="101.131" height="14.921" fill="#fbd46b"/>
      </g>
      <rect id="Rectangle_26399" data-name="Rectangle 26399" width="18.33" height="14.921" transform="translate(41.396 38.298)" fill="#fff"/>
    </g>
    <g id="Group_12220" data-name="Group 12220" transform="translate(908.737 1685.949)">
      <g id="Group_12218" data-name="Group 12218" transform="translate(3.377 0)">
        <g id="Group_12216" data-name="Group 12216" transform="translate(23.636)">
          <path id="Path_7234" data-name="Path 7234" d="M2211.626,3189.479s13.252,16.905-21.123,15.754C2190.5,3205.234,2197.721,3172.2,2211.626,3189.479Z" transform="translate(-2190.504 -3184.479)" fill="#fff"/>
          <path id="Path_7235" data-name="Path 7235" d="M2207.009,3185.383c-.2,8.288-16.507,19.884-16.507,19.884S2196.129,3179.539,2207.009,3185.383Z" transform="translate(-2190.502 -3184.512)" fill="#b8bcbc"/>
        </g>
        <g id="Group_12217" data-name="Group 12217">
          <path id="Path_7236" data-name="Path 7236" d="M2055.64,3189.479s-13.248,16.905,21.126,15.754C2076.765,3205.234,2069.552,3172.2,2055.64,3189.479Z" transform="translate(-2053.129 -3184.479)" fill="#fff"/>
          <path id="Path_7237" data-name="Path 7237" d="M2094.57,3185.383c.2,8.288,16.507,19.884,16.507,19.884S2105.449,3179.539,2094.57,3185.383Z" transform="translate(-2087.44 -3184.512)" fill="#b8bcbc"/>
        </g>
      </g>
      <g id="Group_12219" data-name="Group 12219" transform="translate(0 20.459)">
        <rect id="Rectangle_26400" data-name="Rectangle 26400" width="48.745" height="38.809" transform="translate(2.643 3.987)" fill="#fbd46b"/>
        <rect id="Rectangle_26401" data-name="Rectangle 26401" width="9.793" height="38.809" transform="translate(22.116 3.987)" fill="#dfdfde"/>
        <rect id="Rectangle_26402" data-name="Rectangle 26402" width="54.031" height="7.974" fill="#e5a638"/>
      </g>
      <rect id="Rectangle_26403" data-name="Rectangle 26403" width="9.793" height="7.974" transform="translate(22.116 20.459)" fill="#fff"/>
    </g>
    <path id="Path_7238" data-name="Path 7238" d="M966.082,1597.191H843.36a13.334,13.334,0,0,1,8.276-5.579c-.006-.1-.006-.195-.006-.3a20.244,20.244,0,0,1,20.251-20.249,21.492,21.492,0,0,1,2.262.129,38.594,38.594,0,0,1,72.466,4.386A21.725,21.725,0,0,1,966.082,1597.191Z" transform="translate(-139.393 -143.516)" fill="#fdf2eb"/>
    <path id="Path_7239" data-name="Path 7239" d="M3136.683,1464.891H3028.319a11.744,11.744,0,0,1,7.31-4.927,2.358,2.358,0,0,1-.01-.262,17.873,17.873,0,0,1,17.881-17.879,18.693,18.693,0,0,1,2,.112,34.076,34.076,0,0,1,63.986,3.876A19.174,19.174,0,0,1,3136.683,1464.891Z" transform="translate(-1948.418 -38.754)" fill="#fdf2eb"/>
  </g>
</svg>
