<svg xmlns="http://www.w3.org/2000/svg" width="404.228" height="361.57" viewBox="0 0 404.228 361.57">
  <g id="Make_it_rain-pana" data-name="Make it rain-pana" transform="translate(-23.57 -55.02)">
    <g id="freepik--background-complete--inject-71" transform="translate(72.243 57.274)">
      <path id="Path_8743" data-name="Path 8743" d="M194.753,438.859c20.9-13.577,26.421-39.891,26.421-63.715,0-3.972.58-8.141-1.187-11.693s-6.1-6.079-9.712-4.526c-3,1.285-4.4,4.677-6.15,7.453a23.253,23.253,0,0,1-9.613,8.587c-2.571,1.223-5.731,1.919-8.185.455-3.356-2-3.57-6.748-3.445-10.711l.893-22.083c.152-3.945.3-7.98-.794-11.774s-3.7-7.364-7.427-8.542-8.444.83-9.363,4.668c-.384,1.6-.116,3.276-.277,4.909s-.991,3.428-2.571,3.829-3.133-.759-4.276-1.955c-3.936-4.133-6.534-9.363-8.926-14.558s-4.749-10.515-8.3-14.987-8.551-8.1-14.193-8.614-11.8,2.776-13.389,8.283,1.437,11.283,4.82,15.906A88.367,88.367,0,0,0,136.8,337.9c1.214.893,2.535,1.919,2.963,3.4.768,2.678-1.785,5.2-4.463,5.972-2.981.893-6.168.464-9.256.723s-6.48,1.509-7.739,4.383c-1.785,3.981,1.473,8.328,4.7,11.211a75.693,75.693,0,0,0,21.923,13.666c2.865,1.16,5.891,2.2,8.167,4.32s3.57,5.713,2.062,8.453-5.177,3.5-8.2,2.83-5.695-2.41-8.56-3.57c-5.356-2.24-12.381-2.1-16.013,2.472-2.392,3.008-2.74,7.293-1.7,11.015s3.267,6.953,5.65,9.962c8.355,10.506,19.218,19.1,31.661,23.9s24.1,6.373,36.749,2.223" transform="translate(-81.935 -83.105)" fill="#ebebeb"/>
      <path id="Path_8744" data-name="Path 8744" d="M193.078,440.041c-.544-9.453-.089-3.776-3.2-15.9a354.834,354.834,0,0,0-12.764-38.588q-1.955-5.034-3.865-9.944c-1.276-3.258-2.535-6.489-3.972-9.578a175.984,175.984,0,0,0-9.247-17.263c-3.2-5.356-6.445-10.31-9.506-14.924s-6.016-8.846-8.864-12.6A140.58,140.58,0,0,0,126.9,304.561c-1.883-1.83-3.4-3.2-4.463-4.115l-1.187-1.026a3,3,0,0,0-.42-.339,2.25,2.25,0,0,0,.375.393l1.134,1.089c1,.946,2.481,2.348,4.338,4.2a147.815,147.815,0,0,1,14.541,16.8c2.812,3.758,5.731,8.034,8.774,12.622s6.248,9.6,9.435,14.933a178.058,178.058,0,0,1,9.176,17.218c1.419,3.071,2.678,6.248,3.945,9.542l3.856,9.944A362.509,362.509,0,0,1,189.2,424.313c3.142,12.077,2.74,6.346,3.347,15.763" transform="translate(-82.688 -83.483)" fill="#e0e0e0"/>
      <path id="Path_8745" data-name="Path 8745" d="M174.869,368.795a8.4,8.4,0,0,0,.446-1.669c.241-1.089.544-2.678.893-4.624.7-3.919,1.464-9.355,2.294-15.353s1.678-11.417,2.428-15.308c.366-1.946.678-3.517.893-4.606a7.659,7.659,0,0,0,.277-1.7,8.211,8.211,0,0,0-.553,1.633c-.312,1.071-.705,2.633-1.143,4.57-.893,3.883-1.785,9.3-2.678,15.308s-1.526,11.283-2.08,15.371c-.268,1.848-.491,3.41-.669,4.659a7.48,7.48,0,0,0-.107,1.723Z" transform="translate(-88.49 -86.324)" fill="#e0e0e0"/>
      <path id="Path_8746" data-name="Path 8746" d="M118.33,361.435a10.488,10.488,0,0,0,2.017.312c1.3.161,3.178.384,5.5.732,4.633.661,11.006,1.785,17.977,3.356s13.22,3.267,17.709,4.624c2.249.661,4.052,1.241,5.3,1.642a11.212,11.212,0,0,0,1.964.553,10.229,10.229,0,0,0-1.874-.821c-1.223-.482-3.008-1.143-5.24-1.875-4.463-1.482-10.711-3.258-17.7-4.838a179.622,179.622,0,0,0-18.075-3.187c-2.33-.277-4.222-.42-5.534-.5A11.95,11.95,0,0,0,118.33,361.435Z" transform="translate(-82.419 -90.175)" fill="#e0e0e0"/>
      <path id="Path_8747" data-name="Path 8747" d="M197.51,430.383a2.453,2.453,0,0,0,.375-.607l.893-1.785c.8-1.571,1.9-3.874,3.222-6.748,2.678-5.731,6.052-13.773,9.694-22.69s6.971-16.96,9.5-22.762c1.241-2.812,2.258-5.124,3.008-6.846.33-.741.589-1.357.812-1.866a2.267,2.267,0,0,0,.232-.669,3.125,3.125,0,0,0-.366.607l-.893,1.785c-.8,1.58-1.9,3.883-3.222,6.757-2.678,5.731-6.061,13.773-9.7,22.69s-6.971,16.96-9.5,22.762c-1.232,2.812-2.249,5.124-3.008,6.837l-.8,1.874A3.036,3.036,0,0,0,197.51,430.383Z" transform="translate(-90.922 -90.714)" fill="#e0e0e0"/>
      <path id="Path_8748" data-name="Path 8748" d="M122.73,411.15a2.821,2.821,0,0,0,.661.295l1.937.723,7.141,2.589c6.043,2.187,14.344,5.3,23.511,8.757s17.5,6.5,23.583,8.56c3.044,1.026,5.516,1.839,7.23,2.365l1.982.589a2.329,2.329,0,0,0,.705.161,2.8,2.8,0,0,0-.661-.3l-1.937-.723-7.141-2.58c-6.034-2.187-14.335-5.3-23.5-8.757s-17.5-6.5-23.592-8.56c-3.035-1.035-5.507-1.839-7.221-2.365l-1.982-.6a2.445,2.445,0,0,0-.714-.152Z" transform="translate(-82.892 -95.519)" fill="#e0e0e0"/>
      <path id="Path_8749" data-name="Path 8749" d="M382.257,230.555s-10.765-5.686-20.717,19.709-13.246,39.8-13.246,39.8-2.767,5.356-6.57,2.419-9.5-11.9-15.246-9.622c-5.972,2.357-7.319,9.4-5.159,19.352s6.088,31.92,6.436,33.919-.5,4.963-3.419,3.356-20.36-17.576-27.439-8.846,3.49,35.454,4.588,38.382.634,4.293-.732,5.186-6.712-5.034-11.863-9.372-11.872-8.462-15.54-3.08-2.963,26.136,19.968,57.725l11.6,13.943,17.986-2.776c38.141-8.3,52.486-23.324,53.342-29.777s-6.918-7.855-13.648-8.034-14.666.652-15.094-.893.134-2.883,2.91-4.347,28.465-14.371,28.992-25.591-23.11-10.934-26.359-11.675-1.875-3.57-.321-4.775,19.147-15.032,27.385-21.012,11.916-12.14,9.042-17.852c-2.776-5.525-12.97-2.678-17.79-2.972s-3.285-6.177-3.285-6.177,7.141-12.952,16.62-38.525-2.678-28.51-2.678-28.51" transform="translate(-98.888 -76.066)" fill="#ebebeb"/>
      <path id="Path_8750" data-name="Path 8750" d="M309.39,432.281c7.043-18.745,16.96-44.577,28.073-73.078s21.075-54.289,28.215-73.007l8.426-22.172,2.3-6.025.607-1.562c.143-.357.223-.527.223-.527a1.447,1.447,0,0,1-.17.544l-.562,1.58-2.2,6.07c-1.91,5.266-4.731,12.863-8.257,22.235-7.043,18.745-16.96,44.586-28.064,73.069s-21.083,54.3-28.224,73.016" transform="translate(-102.937 -78.847)" fill="#e0e0e0"/>
      <path id="Path_8751" data-name="Path 8751" d="M341.29,303.39a5.964,5.964,0,0,1,.571,1.178c.339.768.794,1.9,1.348,3.3,1.107,2.8,2.526,6.712,4.017,11.06s2.767,8.167,3.767,11.131l1.169,3.365a5.738,5.738,0,0,1,.375,1.259,6.31,6.31,0,0,1-.58-1.178c-.339-.768-.794-1.9-1.33-3.312-1.08-2.812-2.446-6.739-3.936-11.086L342.816,308l-1.187-3.356a5.961,5.961,0,0,1-.339-1.259Z" transform="translate(-106.363 -83.946)" fill="#e0e0e0"/>
      <path id="Path_8752" data-name="Path 8752" d="M355.79,336.917c-.062-.143,7.873-3.428,17.718-7.328s17.852-6.962,17.924-6.82-7.873,3.437-17.718,7.337S355.844,337.069,355.79,336.917Z" transform="translate(-107.92 -86.027)" fill="#e0e0e0"/>
      <path id="Path_8753" data-name="Path 8753" d="M334.52,386.229a5.882,5.882,0,0,1,1.321-.187l3.624-.348c3.053-.295,7.275-.714,11.907-1.357s8.828-1.339,11.845-1.883l3.57-.634a5.809,5.809,0,0,1,1.33-.17,6.447,6.447,0,0,1-1.285.384c-.83.214-2.044.5-3.57.812-3.008.643-7.194,1.419-11.845,2.053s-8.926,1-11.961,1.2c-1.535.089-2.776.143-3.633.161a5.757,5.757,0,0,1-1.3-.027Z" transform="translate(-105.636 -92.351)" fill="#e0e0e0"/>
      <path id="Path_8754" data-name="Path 8754" d="M314.39,357.8a5.457,5.457,0,0,1,.8.937l2.026,2.678c1.687,2.276,3.99,5.454,6.507,8.98s4.775,6.739,6.382,9.078l1.874,2.785a5.553,5.553,0,0,1,.634,1.071,5.2,5.2,0,0,1-.812-.937c-.544-.732-1.223-1.633-2.026-2.678-1.687-2.285-3.99-5.454-6.507-8.98s-4.767-6.739-6.373-9.078l-1.883-2.785A4.766,4.766,0,0,1,314.39,357.8Z" transform="translate(-103.474 -89.789)" fill="#e0e0e0"/>
      <path id="Path_8755" data-name="Path 8755" d="M290.21,397.93a7.892,7.892,0,0,1,1.018,1.214l2.615,3.428c2.178,2.91,5.159,6.953,8.426,11.443s6.2,8.569,8.31,11.541l2.464,3.57a7.974,7.974,0,0,1,.839,1.348,8.511,8.511,0,0,1-1.018-1.214l-2.606-3.437c-2.187-2.91-5.168-6.953-8.435-11.443s-6.248-8.569-8.31-11.541l-2.464-3.57a9.068,9.068,0,0,1-.839-1.339Z" transform="translate(-100.877 -94.099)" fill="#e0e0e0"/>
      <path id="Path_8756" data-name="Path 8756" d="M316.34,432.46a8.65,8.65,0,0,1,1.669-.286l4.579-.607c3.865-.509,9.194-1.232,15.058-2.2s11.149-1.964,14.969-2.722l4.534-.893a10.353,10.353,0,0,1,1.669-.268,8.39,8.39,0,0,1-1.625.482c-1.053.277-2.589.643-4.463,1.071-3.811.893-9.1,1.928-14.969,2.892s-11.22,1.633-15.1,2.044c-1.937.2-3.508.348-4.6.42A10.521,10.521,0,0,1,316.34,432.46Z" transform="translate(-103.684 -97.058)" fill="#e0e0e0"/>
      <path id="Path_8757" data-name="Path 8757" d="M370.215,158.39s-5.124,6.7-15.112,4.8c-6.177-1.178-18.423-1.785-20,2.785l1.839,13.773a38.123,38.123,0,0,1,16.388-.134c8.132,1.955,19.878-3.811,19.878-3.811Z" transform="translate(-105.698 -68.375)" fill="#ebebeb"/>
      <path id="Path_8758" data-name="Path 8758" d="M355.069,178.513a6.641,6.641,0,0,1-5.9-8.132c.893-3.338,5.891-4.883,9.23-3.963a6.248,6.248,0,0,1,4.383,7.712C361.862,177.433,358.523,178.8,355.069,178.513Z" transform="translate(-107.19 -69.209)" fill="#f5f5f5"/>
      <path id="Path_8759" data-name="Path 8759" d="M354.6,176.316c0-.107.286-.143.732-.17a7.382,7.382,0,0,0,1.785-.214,2.919,2.919,0,0,0,.955-.482,1.357,1.357,0,0,0,.527-.83,1.044,1.044,0,0,0-.3-.893,1.7,1.7,0,0,0-1.169-.3h-.893a3.41,3.41,0,0,1-1.089-.232,2.16,2.16,0,0,1-.536-.312,2.036,2.036,0,0,1-.446-.473,2.151,2.151,0,0,1-.339-1.151,2.187,2.187,0,0,1,.964-1.785,3.178,3.178,0,0,1,1.482-.544,4.274,4.274,0,0,1,1.2,0,5.356,5.356,0,0,1,.83.205c.446.161.669.3.652.4s-.286.152-.732.179a8.374,8.374,0,0,0-1.785.205,2.49,2.49,0,0,0-.893.482.892.892,0,0,0-.339.794.732.732,0,0,0,.134.384.624.624,0,0,0,.143.125.749.749,0,0,0,.205.107,5.356,5.356,0,0,0,1.517.116,4.784,4.784,0,0,1,1.071.143,2.838,2.838,0,0,1,.571.232,2.179,2.179,0,0,1,.509.384,2.4,2.4,0,0,1,.625,2.187,2.526,2.526,0,0,1-1.169,1.58,3.571,3.571,0,0,1-1.464.5,4.847,4.847,0,0,1-2.035-.241C354.8,176.566,354.579,176.414,354.6,176.316Z" transform="translate(-107.708 -69.502)" fill="#ebebeb"/>
      <path id="Path_8760" data-name="Path 8760" d="M358.414,177.791c-.205,0-.634-2.2-.964-4.981s-.428-5.043-.223-5.07.634,2.2.964,4.981S358.62,177.719,358.414,177.791Z" transform="translate(-108.063 -69.379)" fill="#ebebeb"/>
      <path id="Path_8761" data-name="Path 8761" d="M357.129,177.722c-.2,0-.607-2-.893-4.517s-.375-4.588-.17-4.606.616,2,.893,4.517S357.334,177.7,357.129,177.722Z" transform="translate(-107.938 -69.471)" fill="#ebebeb"/>
      <g id="Group_12750" data-name="Group 12750" transform="translate(230.776 92.532)" opacity="0.5">
        <path id="Path_8762" data-name="Path 8762" d="M338.273,178.589l-1.633-12.541.1-.08c4.883-3.57,13.889-2.08,19.852-1.08,1.026.17,2,.33,2.839.446,5.6.786,9.765-3.624,9.872-4.124h.446l2.026,13.478-.116.08a25.886,25.886,0,0,1-20.709,3.213c-4.749-1.384-12.363.545-12.434.562Zm-1.16-12.336,1.535,11.782c1.366-.33,7.989-1.785,12.425-.5a25.413,25.413,0,0,0,20.173-3.062L369.4,161.915a9.708,9.708,0,0,1-.893.893,11.823,11.823,0,0,1-9.158,3.026c-.839-.116-1.785-.277-2.847-.455-5.829-1.035-14.639-2.508-19.387.875Z" transform="translate(-336.64 -161.21)" fill="#fafafa"/>
      </g>
      <path id="Path_8763" data-name="Path 8763" d="M290.858,71.537s-8.034,2.678-15.174-4.463c-4.463-4.463-14.282-11.756-18.156-8.873L251.36,70.7a37.954,37.954,0,0,1,13.666,9.042c5.659,6.159,18.62,7.935,18.62,7.935Z" transform="translate(-96.705 -57.545)" fill="#ebebeb"/>
      <path id="Path_8764" data-name="Path 8764" d="M267.811,79.349a6.632,6.632,0,0,1-.357-10.042c2.624-2.258,7.614-.759,9.872,1.866a6.248,6.248,0,0,1-.678,8.846C274.024,82.3,270.489,81.545,267.811,79.349Z" transform="translate(-98.205 -58.69)" fill="#f5f5f5"/>
      <path id="Path_8765" data-name="Path 8765" d="M268.717,77.113c.08-.08.321,0,.7.268a7.587,7.587,0,0,0,1.58.794,2.624,2.624,0,0,0,1.062.134,1.339,1.339,0,0,0,.893-.393,1.053,1.053,0,0,0,.241-.893c-.054-.277-.33-.58-.8-.893-.223-.161-.482-.33-.75-.536a3.293,3.293,0,0,1-.777-.794,2.6,2.6,0,0,1-.277-.571,2.026,2.026,0,0,1,.268-1.785,2.223,2.223,0,0,1,.83-.723,2.249,2.249,0,0,1,.973-.232,3.133,3.133,0,0,1,1.526.384,4.41,4.41,0,0,1,.973.7,5.6,5.6,0,0,1,.571.643c.277.375.384.616.312.687s-.312,0-.705-.259a8.167,8.167,0,0,0-1.571-.8,2.517,2.517,0,0,0-1.026-.116.893.893,0,0,0-.723.473.714.714,0,0,0-.1.393.436.436,0,0,0,.045.179,1.132,1.132,0,0,0,.107.205,5.411,5.411,0,0,0,1.2.946,4.9,4.9,0,0,1,.812.714,2.972,2.972,0,0,1,.339.509,1.955,1.955,0,0,1,.205.607,2.365,2.365,0,0,1-.7,2.16,2.535,2.535,0,0,1-1.857.661,3.7,3.7,0,0,1-1.491-.4,4.659,4.659,0,0,1-1.553-1.339C268.744,77.435,268.646,77.176,268.717,77.113Z" transform="translate(-98.567 -59.043)" fill="#ebebeb"/>
      <path id="Path_8766" data-name="Path 8766" d="M271,80.317c-.179-.1.705-2.187,1.991-4.668s2.464-4.463,2.678-4.329-.705,2.187-1.982,4.668S271.149,80.406,271,80.317Z" transform="translate(-98.812 -59.024)" fill="#ebebeb"/>
      <path id="Path_8767" data-name="Path 8767" d="M270,79.578c-.179-.089.616-2,1.785-4.249s2.249-4.008,2.437-3.91-.616,2-1.785,4.249S270.149,79.676,270,79.578Z" transform="translate(-98.704 -59.035)" fill="#ebebeb"/>
      <g id="Group_12751" data-name="Group 12751" transform="translate(156.404 1.22)" opacity="0.5">
        <path id="Path_8768" data-name="Path 8768" d="M253.32,70.237l5.659-11.318h.125c6.052-.25,12.684,6.034,17.076,10.185.75.723,1.464,1.392,2.1,1.964,4.2,3.776,10.122,2.446,10.5,2.089l.375.232-5.9,12.3h-.143a25.886,25.886,0,0,1-18.914-8.846c-3.169-3.794-10.56-6.454-10.631-6.48Zm5.963-10.881-5.356,10.631c1.312.5,7.623,2.99,10.586,6.534a25.457,25.457,0,0,0,18.441,8.73l5.507-11.5a9.409,9.409,0,0,1-1.214.25c-1.3.17-5.829.5-9.292-2.606-.625-.571-1.348-1.25-2.107-1.973C271.574,65.355,265.085,59.2,259.283,59.357Z" transform="translate(-253.32 -58.912)" fill="#fafafa"/>
      </g>
      <path id="Path_8769" data-name="Path 8769" d="M164.955,138.155s-8.426-.58-12.336-9.962c-2.428-5.8-8.694-16.335-13.389-15.174l-10.47,9.14a37.944,37.944,0,0,1,9.14,13.612c2.865,7.864,14.148,14.478,14.148,14.478Z" transform="translate(-83.539 -63.493)" fill="#f5f5f5"/>
      <path id="Path_8770" data-name="Path 8770" d="M140.9,136.374a6.632,6.632,0,0,1,3.57-9.4c3.294-1.071,7.319,2.232,8.4,5.525a6.248,6.248,0,0,1-4.017,7.9C145.554,141.471,142.573,139.472,140.9,136.374Z" transform="translate(-84.757 -64.979)" fill="#ebebeb"/>
      <path id="Path_8771" data-name="Path 8771" d="M142.712,134.63c.1,0,.277.161.536.518a7.8,7.8,0,0,0,1.151,1.339,2.9,2.9,0,0,0,.893.536,1.393,1.393,0,0,0,.973,0,1.044,1.044,0,0,0,.571-.741,1.714,1.714,0,0,0-.384-1.143c-.152-.241-.33-.491-.491-.786a3.392,3.392,0,0,1-.411-1.035,2.089,2.089,0,0,1,0-.625,1.732,1.732,0,0,1,.152-.634,2.053,2.053,0,0,1,.777-.893,2.151,2.151,0,0,1,1.044-.357,2.419,2.419,0,0,1,.982.161,3.16,3.16,0,0,1,1.268.937,3.918,3.918,0,0,1,.625,1.018,4.462,4.462,0,0,1,.286.812c.116.455.125.723,0,.759s-.286-.143-.553-.509a8.034,8.034,0,0,0-1.143-1.348,2.562,2.562,0,0,0-.893-.5.893.893,0,0,0-.893.152.75.75,0,0,0-.241.33.438.438,0,0,0,0,.187,1.16,1.16,0,0,0,0,.232,5.356,5.356,0,0,0,.741,1.33,4.463,4.463,0,0,1,.473.973,2.534,2.534,0,0,1,.116.6,2.2,2.2,0,0,1,0,.643,2.392,2.392,0,0,1-1.482,1.723,2.508,2.508,0,0,1-1.955-.107,3.57,3.57,0,0,1-1.232-.937,4.8,4.8,0,0,1-.893-1.83C142.614,134.934,142.623,134.666,142.712,134.63Z" transform="translate(-85.03 -65.413)" fill="#f5f5f5"/>
      <path id="Path_8772" data-name="Path 8772" d="M143.4,138.5c-.134-.161,1.491-1.785,3.624-3.57s3.981-3.142,4.106-2.981-1.491,1.785-3.624,3.57S143.533,138.652,143.4,138.5Z" transform="translate(-85.111 -65.534)" fill="#f5f5f5"/>
      <path id="Path_8773" data-name="Path 8773" d="M142.8,137.415c-.134-.152,1.33-1.607,3.267-3.249s3.624-2.83,3.749-2.678-1.33,1.616-3.267,3.249S142.977,137.576,142.8,137.415Z" transform="translate(-85.046 -65.485)" fill="#f5f5f5"/>
      <g id="Group_12752" data-name="Group 12752" transform="translate(47.113 50.562)" opacity="0.5">
        <path id="Path_8774" data-name="Path 8774" d="M130.88,122.473l9.56-8.283h.125c5.686,2.1,9.39,10.444,11.845,15.969.428.946.83,1.848,1.187,2.606,2.437,5.115,8.408,6.15,8.926,5.963l.259.357-10.167,9.1-.134-.062a25.93,25.93,0,0,1-14.059-15.469c-1.464-4.722-7.266-10.015-7.328-10.069Zm9.649-7.775-8.989,7.784c1.035.955,5.9,5.677,7.275,10.086a25.448,25.448,0,0,0,13.675,15.174l9.5-8.5a8.848,8.848,0,0,1-1.214-.241c-1.268-.339-5.579-1.785-7.578-5.972-.366-.768-.759-1.669-1.187-2.624C149.607,124.964,145.974,116.805,140.529,114.7Z" transform="translate(-130.88 -114.19)" fill="#ebebeb"/>
      </g>
      <path id="Path_8775" data-name="Path 8775" d="M98.907,229.67a10.711,10.711,0,0,1-8.578,6.82c-4.276.759-12.327,3.4-12.229,6.73l4.588,8.435a26.341,26.341,0,0,1,10.542-4.124c5.731-.741,11.89-7.355,11.89-7.355Z" transform="translate(-78.099 -76.03)" fill="#f5f5f5"/>
      <path id="Path_8776" data-name="Path 8776" d="M93.988,247.14a4.6,4.6,0,0,1-5.82-3.794c-.232-2.383,2.606-4.606,4.99-4.829a4.338,4.338,0,0,1,4.731,3.9C98.112,244.8,96.291,246.5,93.988,247.14Z" transform="translate(-79.179 -76.978)" fill="#ebebeb"/>
      <path id="Path_8777" data-name="Path 8777" d="M93.063,246.016c0-.071.152-.161.437-.286a5.589,5.589,0,0,0,1.071-.571,1.945,1.945,0,0,0,.5-.544.893.893,0,0,0,.134-.661.732.732,0,0,0-.411-.5,1.205,1.205,0,0,0-.83.089c-.187.071-.384.152-.607.214a2.213,2.213,0,0,1-.759.125,1.785,1.785,0,0,1-.428-.071,1.4,1.4,0,0,1-.4-.2,1.535,1.535,0,0,1-.5-.661,1.625,1.625,0,0,1-.08-.768,1.562,1.562,0,0,1,.259-.634,2.106,2.106,0,0,1,.821-.714,2.678,2.678,0,0,1,.786-.268,4.229,4.229,0,0,1,.58-.071c.33,0,.509,0,.518.1s-.143.17-.42.295a5.607,5.607,0,0,0-1.08.571,1.508,1.508,0,0,0-.473.536.607.607,0,0,0,0,.589.482.482,0,0,0,.179.214l.125.054h.161a3.712,3.712,0,0,0,1.009-.3,3.3,3.3,0,0,1,.723-.17,1.732,1.732,0,0,1,.428,0,1.143,1.143,0,0,1,.42.125,1.651,1.651,0,0,1,.946,1.25,1.785,1.785,0,0,1-.366,1.312,2.383,2.383,0,0,1-.821.678,3.169,3.169,0,0,1-1.375.348C93.259,246.132,93.081,246.088,93.063,246.016Z" transform="translate(-79.503 -77.193)" fill="#f5f5f5"/>
      <path id="Path_8778" data-name="Path 8778" d="M95.83,246.1a23.663,23.663,0,0,1-3.24-6.195,12.3,12.3,0,0,1,1.857,2.981A11.6,11.6,0,0,1,95.83,246.1Z" transform="translate(-79.655 -77.129)" fill="#f5f5f5"/>
      <path id="Path_8779" data-name="Path 8779" d="M95.006,246.4a9.554,9.554,0,0,1-1.7-2.678,9.935,9.935,0,0,1-1.241-2.937,9.935,9.935,0,0,1,1.7,2.678,10.23,10.23,0,0,1,1.25,2.937Z" transform="translate(-79.598 -77.224)" fill="#f5f5f5"/>
      <g id="Group_12753" data-name="Group 12753" transform="translate(0.804 155.408)" opacity="0.5">
        <path id="Path_8780" data-name="Path 8780" d="M83.168,250.636,79,242.942v-.08c2.267-3.517,8.453-4.767,12.55-5.588.705-.143,1.375-.277,1.946-.411a7.668,7.668,0,0,0,5.356-5.1l.277-.116,4.606,8.23-.054.071a17.906,17.906,0,0,1-12.55,7.141c-3.4.277-7.846,3.392-7.891,3.428Zm-3.785-7.676,3.892,7.23c.8-.553,4.722-3.124,7.9-3.383a17.6,17.6,0,0,0,12.273-6.953l-4.3-7.685a5.243,5.243,0,0,1-.348.785,8.212,8.212,0,0,1-5.168,4.213c-.571.134-1.241.268-1.946.411-4.017.8-10.069,2.026-12.3,5.382Z" transform="translate(-79 -231.65)" fill="#ebebeb"/>
      </g>
      <path id="Path_8781" data-name="Path 8781" d="M464.411,143.334a10.711,10.711,0,0,1-10.943.527c-3.919-1.883-12-4.463-13.853-1.687l-1.214,9.533a26.136,26.136,0,0,1,10.97,2.812c5.088,2.74,13.952.973,13.952.973Z" transform="translate(-116.791 -66.503)" fill="#f5f5f5"/>
      <path id="Path_8782" data-name="Path 8782" d="M450.9,153.728a4.588,4.588,0,0,1-2.5-6.48c1.205-2.062,4.8-2.214,6.864-1.009a4.329,4.329,0,0,1,1.562,5.927C455.626,154.236,453.154,154.558,450.9,153.728Z" transform="translate(-117.808 -66.988)" fill="#ebebeb"/>
      <path id="Path_8783" data-name="Path 8783" d="M451,152.112c0-.062.214,0,.518,0a5.114,5.114,0,0,0,1.205.161,2.053,2.053,0,0,0,.723-.152.973.973,0,0,0,.5-.455.741.741,0,0,0-.045-.643,1.2,1.2,0,0,0-.732-.411c-.187-.054-.393-.107-.616-.187a2.446,2.446,0,0,1-.687-.339,1.954,1.954,0,0,1-.3-.3,1.429,1.429,0,0,1-.205-.4,1.464,1.464,0,0,1,0-.83,1.491,1.491,0,0,1,.384-.661,1.411,1.411,0,0,1,.58-.366,2.223,2.223,0,0,1,1.08-.107,3.107,3.107,0,0,1,.794.241,4.978,4.978,0,0,1,.518.286c.268.187.393.321.366.384s-.214.054-.518,0a5.827,5.827,0,0,0-1.214-.17,1.7,1.7,0,0,0-.7.161.616.616,0,0,0-.366.464.473.473,0,0,0,0,.277.312.312,0,0,0,.071.116.454.454,0,0,0,.116.107,3.57,3.57,0,0,0,.991.348,2.8,2.8,0,0,1,.7.286,2.208,2.208,0,0,1,.339.25,2.008,2.008,0,0,1,.268.348,1.642,1.642,0,0,1,0,1.571,1.785,1.785,0,0,1-1.053.893,2.678,2.678,0,0,1-1.071.08,3.293,3.293,0,0,1-1.312-.527C451.107,152.318,451,152.175,451,152.112Z" transform="translate(-118.145 -67.194)" fill="#f5f5f5"/>
      <path id="Path_8784" data-name="Path 8784" d="M453.3,153.707a11.9,11.9,0,0,1,.241-3.5,11.872,11.872,0,0,1,.75-3.428,12.676,12.676,0,0,1-.241,3.5,11.872,11.872,0,0,1-.75,3.428Z" transform="translate(-118.387 -67.128)" fill="#f5f5f5"/>
      <path id="Path_8785" data-name="Path 8785" d="M452.454,153.464a9.909,9.909,0,0,1,.2-3.178,9.675,9.675,0,0,1,.705-3.106,10.219,10.219,0,0,1-.2,3.178,10.051,10.051,0,0,1-.705,3.106Z" transform="translate(-118.295 -67.171)" fill="#f5f5f5"/>
      <g id="Group_12754" data-name="Group 12754" transform="translate(322.644 75.294)" opacity="0.5">
        <path id="Path_8786" data-name="Path 8786" d="M439.56,151.031l1.134-8.667h.089c3.892-1.535,9.64,1.071,13.452,2.794.652.295,1.268.58,1.785.8a7.676,7.676,0,0,0,7.328-1.009l.295.062-1.071,9.372h-.089a17.9,17.9,0,0,1-14.362-1.526c-2.928-1.785-8.355-1.83-8.408-1.83Zm1.419-8.444-1.071,8.141c.973,0,5.659.223,8.391,1.866a17.567,17.567,0,0,0,14.023,1.535l.991-8.757a5.355,5.355,0,0,1-.732.437,8.23,8.23,0,0,1-6.659.4l-1.785-.812C450.378,143.712,444.755,141.168,440.979,142.587Z" transform="translate(-439.56 -141.898)" fill="#ebebeb"/>
      </g>
    </g>
    <g id="freepik--Floor--inject-71" transform="translate(23.57 416.117)">
      <path id="Path_8787" data-name="Path 8787" d="M427.8,459.792c0,.134-90.493.241-202.1.241s-202.123-.08-202.123-.241,90.475-.232,202.123-.232S427.8,459.667,427.8,459.792Z" transform="translate(-23.57 -459.56)" fill="#263238"/>
    </g>
    <g id="freepik--Character--inject-71" transform="translate(39.311 185.975)">
      <path id="Path_8788" data-name="Path 8788" d="M226.752,236.2a49.315,49.315,0,0,1-3.187-9.14,16.5,16.5,0,0,1,.562-9.551,10,10,0,0,1,6.989-6.15c1.955-.384,4.052-.062,5.927-.75,2.169-.8,3.615-2.794,5.3-4.374a16.888,16.888,0,0,1,9.685-4.41,10.015,10.015,0,0,1,5.552.8,5.632,5.632,0,0,1,3.187,4.4,26.778,26.778,0,0,1,6.784-1.633,8.989,8.989,0,0,1,6.534,1.937,5.481,5.481,0,0,1,1.509,6.32,4.463,4.463,0,0,1,5.748,1.625,5.757,5.757,0,0,1-.366,6.248,10.711,10.711,0,0,1-6.418,3.686,15.547,15.547,0,0,1-6.793-.187" transform="translate(-60.739 -201.73)" fill="#263238"/>
      <path id="Path_8789" data-name="Path 8789" d="M232.549,300.958l31.241-2.5c.2-3.651-.062-17.763-.062-17.763s13-2.026,13.157-15.023-2.089-42.845-2.089-42.845h0a45.175,45.175,0,0,0-45.4,5.7l-1.928,1.482Z" transform="translate(-61.207 -203.601)" fill="#b78876"/>
      <path id="Path_8790" data-name="Path 8790" d="M266.08,287.31a30.224,30.224,0,0,1-16.96-4.82s4.008,9.355,16.96,8.185Z" transform="translate(-63.532 -210.403)" fill="#aa6550"/>
      <path id="Path_8791" data-name="Path 8791" d="M228.23,246.359c-.214-.1-8.926-2.678-8.64,6.248s9.14,6.775,9.149,6.516S228.23,246.359,228.23,246.359Z" transform="translate(-60.36 -206.478)" fill="#b78876"/>
      <path id="Path_8792" data-name="Path 8792" d="M226.182,256.159a3.836,3.836,0,0,1-.411.241,1.535,1.535,0,0,1-1.151.054c-.955-.312-1.785-1.785-1.883-3.374a5.133,5.133,0,0,1,.357-2.232,1.785,1.785,0,0,1,1.134-1.223.794.794,0,0,1,.893.393c.125.241.071.42.116.437s.187-.161.107-.518a1.018,1.018,0,0,0-.366-.553,1.214,1.214,0,0,0-.893-.2,2.187,2.187,0,0,0-1.571,1.428,5.177,5.177,0,0,0-.455,2.5c.107,1.785,1.08,3.437,2.374,3.767a1.642,1.642,0,0,0,1.41-.286C226.174,256.4,226.218,256.159,226.182,256.159Z" transform="translate(-60.625 -206.825)" fill="#aa6550"/>
      <path id="Path_8793" data-name="Path 8793" d="M275.274,245.637a1.857,1.857,0,0,1-1.785,1.866,1.785,1.785,0,0,1-1.919-1.669,1.857,1.857,0,0,1,1.785-1.874,1.785,1.785,0,0,1,1.919,1.678Z" transform="translate(-65.943 -206.264)" fill="#263238"/>
      <path id="Path_8794" data-name="Path 8794" d="M276.853,243.517c-.232.25-1.633-.794-3.633-.786s-3.463,1-3.678.759.125-.544.768-1.018a5.106,5.106,0,0,1,2.946-.893,4.963,4.963,0,0,1,2.892.893C276.755,242.972,276.969,243.41,276.853,243.517Z" transform="translate(-65.719 -206.009)" fill="#263238"/>
      <path id="Path_8795" data-name="Path 8795" d="M253.274,245.637a1.857,1.857,0,0,1-1.785,1.866,1.785,1.785,0,0,1-1.919-1.669,1.857,1.857,0,0,1,1.785-1.874,1.785,1.785,0,0,1,1.919,1.678Z" transform="translate(-63.581 -206.264)" fill="#263238"/>
      <path id="Path_8796" data-name="Path 8796" d="M254.857,243.937c-.232.241-1.633-.794-3.633-.794s-3.463,1.009-3.678.759c-.107-.107.125-.544.768-1.009A5.044,5.044,0,0,1,251.26,242a4.9,4.9,0,0,1,2.892.893C254.759,243.392,254.973,243.83,254.857,243.937Z" transform="translate(-63.361 -206.054)" fill="#263238"/>
      <path id="Path_8797" data-name="Path 8797" d="M263.748,258.767a13.052,13.052,0,0,1,3.249-.589c.509-.054.991-.152,1.08-.5a2.677,2.677,0,0,0-.339-1.509l-1.509-3.892c-2.1-5.525-3.615-10.078-3.392-10.158s2.107,4.338,4.2,9.819q.759,2.044,1.446,3.91a2.937,2.937,0,0,1,.268,2,1.285,1.285,0,0,1-.839.75,3.269,3.269,0,0,1-.893.116,12.659,12.659,0,0,1-3.267.054Z" transform="translate(-65.003 -206.067)" fill="#263238"/>
      <path id="Path_8798" data-name="Path 8798" d="M257.24,262.32c.321,0,.33,2.142,2.187,3.686s4.16,1.3,4.177,1.607c0,.134-.518.42-1.491.446a5.418,5.418,0,0,1-3.49-1.223,4.7,4.7,0,0,1-1.7-3.088C256.848,262.838,257.089,262.3,257.24,262.32Z" transform="translate(-64.369 -208.237)" fill="#263238"/>
      <path id="Path_8799" data-name="Path 8799" d="M276.1,239.576c-.357.446-1.732,0-3.383,0s-3.062.3-3.383-.17c-.143-.232.08-.687.7-1.116a4.9,4.9,0,0,1,5.445.17C276.065,238.844,276.253,239.353,276.1,239.576Z" transform="translate(-65.699 -205.576)" fill="#263238"/>
      <path id="Path_8800" data-name="Path 8800" d="M251.889,235.761c-.223.25-.732.143-1.4,0a12.363,12.363,0,0,0-4.945-.161c-.678.08-1.2.152-1.4-.107s0-.812.7-1.384a5.257,5.257,0,0,1,6.454.214C251.942,234.957,252.1,235.537,251.889,235.761Z" transform="translate(-62.989 -205.099)" fill="#263238"/>
      <path id="Path_8801" data-name="Path 8801" d="M275.258,226.327a30.5,30.5,0,0,1-18.941-.964c-6.739-2.553-14.371-3.356-15.888-1.9s-1.2,8.1-7.355,10.667c0,0,1.714,12.559-3.356,12.613s-3.9-19.78-3.9-19.78l11.684-7.248,13.139-3.865,12.568-1.268,12.05,2.41Z" transform="translate(-61.017 -203.11)" fill="#263238"/>
      <path id="Path_8802" data-name="Path 8802" d="M315.951,340.073s22.637,23.306,30.617,19.843c21.7-9.372,39.337-29.224,45.407-36.338.259-1.339.518-2.91.741-4.784a14.283,14.283,0,0,0-.268-4.847,22.066,22.066,0,0,0-1.91-5.766c-.991-1.6.437-3.517,2-2.865s5.356,4.874,6.15,10.818a2.437,2.437,0,0,0,3.374,1.544c3.927-1.294,17.272-6.471,19.637-7.025,2.115-.491,4.642-.366,3.231,1.178s-11.247,7.3-11.247,7.3,12.746-7.8,13.8-5.891c.723,1.321-1.964,4.356-10.908,8.676,0,0,10.551-6.346,12.354-6.141,4.052.473-8.569,8.239-8.569,8.239,8.926-5.356,8.471-5.722,9.435-4.677.723.777-.839,2.553-5.222,6.123-3.57,2.9-6.659,6.614-11.836,11.318h0s-53.557,74.488-87.253,51.629c-18.165-12.327-23.154-18.54-33.464-27.876" transform="translate(-68.139 -212.84)" fill="#b78876"/>
      <path id="Path_8803" data-name="Path 8803" d="M429.879,329.078c.134.223,2.928-1.3,6.248-3.419s5.891-4.008,5.739-4.222-2.946,1.321-6.248,3.428S429.754,328.882,429.879,329.078Z" transform="translate(-82.943 -214.583)" fill="#aa6550"/>
      <path id="Path_8804" data-name="Path 8804" d="M427.169,325.56c.125.223,3.2-1.241,6.864-3.276s6.525-3.865,6.4-4.1-3.2,1.241-6.864,3.276S427.018,325.328,427.169,325.56Z" transform="translate(-82.652 -214.234)" fill="#aa6550"/>
      <path id="Path_8805" data-name="Path 8805" d="M424.38,321.888c.125.232,3.053-1.107,6.543-2.981s6.248-3.57,6.1-3.82-3.053,1.107-6.543,2.981S424.255,321.656,424.38,321.888Z" transform="translate(-82.353 -213.9)" fill="#aa6550"/>
      <path id="Path_8806" data-name="Path 8806" d="M155,364.8s-11.408,30.42-20.1,30.447c-23.654.071-47.746-11.024-56.154-15.112-.768-1.125-1.642-2.464-2.6-4.088a14.478,14.478,0,0,1-1.7-4.543,22.566,22.566,0,0,1-.553-6.052c.268-1.857-1.785-3.053-2.981-1.785s-2.963,6.614-1.3,12.38a2.437,2.437,0,0,1-2.473,2.767c-4.115.384-18.415.982-20.816,1.428-2.133.4-4.4,1.526-2.49,2.374,1.392.616,7.748,1.491,11.122,1.919-4.1-.464-12.746-1.259-12.889.393-.089.973,1.428,2.026,5.168,2.749-2.553-.17-4.856-.205-5.472.161-3.57,2.053,11.149,4.106,11.149,4.106-10.3-1.348-10.06-1.839-10.524-.5-.348,1,1.785,2.008,7.239,3.57,4.463,1.232,8.748,3.383,15.38,5.623,0,0,78.925,46.791,100.624,12.354,11.7-18.566,13.791-26.261,19.495-38.954Z" transform="translate(-41.204 -219.064)" fill="#b78876"/>
      <path id="Path_8807" data-name="Path 8807" d="M59.545,396.134c0,.259-3.2,0-7.141-.634s-7-1.3-6.945-1.562,3.231,0,7.141.634S59.572,395.875,59.545,396.134Z" transform="translate(-41.661 -222.36)" fill="#aa6550"/>
      <path id="Path_8808" data-name="Path 8808" d="M60.473,391.808c0,.259-3.428.152-7.6-.241s-7.534-.893-7.507-1.2,3.419-.143,7.6.25S60.491,391.585,60.473,391.808Z" transform="translate(-41.652 -221.971)" fill="#aa6550"/>
      <path id="Path_8809" data-name="Path 8809" d="M61.625,387.34c0,.259-3.24.214-7.194-.116s-7.141-.794-7.141-1.053,3.24-.205,7.194.116S61.643,387.081,61.625,387.34Z" transform="translate(-41.858 -221.519)" fill="#aa6550"/>
      <path id="Path_8810" data-name="Path 8810" d="M327.326,359.689l-37.338-41.667c-10.4-10.22-15.951-13.273-30.42-14.987-2.365-.277-4.249-.455-5.6-.625a55.27,55.27,0,0,1-33.321,0h0c-5.15.214-9.417,1.785-13.791,2.678-13.8,2.678-23.726,12.693-26.484,21.967h0l-31.125,60.8,26.287,22.092,24.011-38.114,1.464,40.569-1.491,30.349,92.162.268L287.5,371.846,312.3,392.037Z" transform="translate(-52.807 -212.542)" fill="#4d8a8b"/>
      <path id="Path_8811" data-name="Path 8811" d="M206.016,351.57a5.73,5.73,0,0,1,.116,1.357c0,.893.062,2.124.089,3.686,0,3.106.062,7.409,0,12.157s-.08,9.051-.152,12.157c0,1.562-.08,2.821-.116,3.686a5.454,5.454,0,0,1-.134,1.348,5.355,5.355,0,0,1-.125-1.348c0-.893-.062-2.133-.089-3.686-.045-3.115-.062-7.409,0-12.166s.08-9.042.152-12.157c0-1.553.08-2.812.125-3.686A5.035,5.035,0,0,1,206.016,351.57Z" transform="translate(-58.855 -217.821)" fill="#263238"/>
      <path id="Path_8812" data-name="Path 8812" d="M305.423,403.58a13.746,13.746,0,0,1-.268-2.089c-.134-1.464-.3-3.392-.518-5.713-.4-4.829-.893-11.506-1.428-18.879s-.964-14.014-1.25-18.843c-.116-2.33-.223-4.267-.295-5.731a12.674,12.674,0,0,1,0-2.107,12.9,12.9,0,0,1,.277,2.089c.134,1.464.3,3.392.509,5.713.4,4.829.893,11.506,1.437,18.879s.955,14.05,1.241,18.888c.125,2.33.223,4.267.3,5.731a13.183,13.183,0,0,1-.009,2.062Z" transform="translate(-69.17 -217.676)" fill="#263238"/>
      <g id="Group_12755" data-name="Group 12755" transform="translate(124.953 119.271)" opacity="0.3">
        <path id="Path_8813" data-name="Path 8813" d="M306.155,335.582c0,.125-27.965.232-62.483.232s-62.483-.107-62.483-.232,27.965-.232,62.483-.232S306.155,335.448,306.155,335.582Z" transform="translate(-181.19 -335.35)" fill="#ebebeb"/>
      </g>
      <g id="Group_12756" data-name="Group 12756" transform="translate(107.35 156.296)" opacity="0.3">
        <path id="Path_8814" data-name="Path 8814" d="M313.687,377.062c0,.134-34.08.232-76.1.232s-76.113-.1-76.113-.232,34.071-.232,76.113-.232S313.687,376.982,313.687,377.062Z" transform="translate(-161.47 -376.83)" fill="#ebebeb"/>
      </g>
      <g id="Group_12757" data-name="Group 12757" transform="translate(148.598 198.517)" opacity="0.3">
        <path id="Path_8815" data-name="Path 8815" d="M296.084,424.362c0,.134-19.789.232-44.2.232s-44.2-.1-44.2-.232,19.789-.232,44.2-.232S296.084,424.237,296.084,424.362Z" transform="translate(-207.68 -424.13)" fill="#ebebeb"/>
      </g>
      <g id="Group_12758" data-name="Group 12758" transform="translate(158.256 91.466)" opacity="0.3">
        <path id="Path_8816" data-name="Path 8816" d="M218.732,443.108c-.125,0-.232-31.1-.232-69.445s.107-69.463.232-69.463.214,31.063.214,69.445S218.866,443.108,218.732,443.108Z" transform="translate(-218.5 -304.2)" fill="#ebebeb"/>
      </g>
      <g id="Group_12759" data-name="Group 12759" transform="translate(210.991 91.091)" opacity="0.3">
        <path id="Path_8817" data-name="Path 8817" d="M278.49,443.072v-1.419c0-.946,0-2.312-.045-4.052,0-3.57-.071-8.649-.116-14.924-.116-12.63-.277-30.027-.446-49.245s-.295-36.651-.3-49.254V309.252c0-1.785,0-3.106.045-4.052v-1.062a1.891,1.891,0,0,1,0-.357V305.2c0,.946,0,2.312.045,4.052,0,3.57.071,8.64.116,14.924.116,12.622.277,30.027.446,49.254s.295,36.6.3,49.236v20.048a1.9,1.9,0,0,1-.045.357Z" transform="translate(-277.58 -303.78)" fill="#ebebeb"/>
      </g>
      <g id="Group_12760" data-name="Group 12760" transform="translate(249.454 120.779)" opacity="0.3">
        <path id="Path_8818" data-name="Path 8818" d="M320.9,387.276c-.125,0-.232-11.247-.232-25.118s.107-25.118.232-25.118.232,11.238.232,25.118S321.036,387.276,320.9,387.276Z" transform="translate(-320.67 -337.04)" fill="#ebebeb"/>
      </g>
      <g id="Group_12761" data-name="Group 12761" transform="translate(116.446 133.918)" opacity="0.3">
        <path id="Path_8819" data-name="Path 8819" d="M171.892,399.149c-.134,0-.232-10.6-.232-23.69s.1-23.7.232-23.7.232,10.6.232,23.7S172.017,399.149,171.892,399.149Z" transform="translate(-171.66 -351.76)" fill="#ebebeb"/>
      </g>
      <path id="Path_8820" data-name="Path 8820" d="M225.38,302.493l5.088-10.693,16.665,11.747L263.575,292.5l5.784,9.39L252.881,312.6H241.867l-16.487-8.864" transform="translate(-60.983 -211.402)" fill="#4d8a8b"/>
      <path id="Path_8821" data-name="Path 8821" d="M247.161,304.766a1.24,1.24,0,0,1-.312.089,3.323,3.323,0,0,0-.893.241,5.24,5.24,0,0,0-2.481,2.1,26.626,26.626,0,0,0-2.294,4.463c-.393.893-.786,1.785-1.285,2.74a10.247,10.247,0,0,1-1.919,2.678l-.161.152-.161-.17-.946-.982c-3.3-3.463-6.114-6.757-8.033-9.2-.982-1.223-1.785-2.223-2.267-2.928a6.811,6.811,0,0,1-.768-1.125,6.864,6.864,0,0,1,.893,1.009l2.374,2.839c2.017,2.383,4.865,5.641,8.15,9.087l.946.982h-.321a9.516,9.516,0,0,0,1.839-2.562c.491-.893.893-1.83,1.294-2.678a25.419,25.419,0,0,1,2.419-4.463,5.248,5.248,0,0,1,2.678-2.08,2.99,2.99,0,0,1,.893-.161C247.045,304.712,247.161,304.712,247.161,304.766Z" transform="translate(-61.011 -212.586)" fill="#263238"/>
      <path id="Path_8822" data-name="Path 8822" d="M271.686,303.33a6.248,6.248,0,0,1-.812,1.071c-.562.669-1.384,1.616-2.455,2.731a66.33,66.33,0,0,1-9.185,7.891c-.723.509-1.446,1-2.142,1.455l-.321.205v-.393a20.977,20.977,0,0,0-1.357-5.481,14.049,14.049,0,0,0-2.2-3.945,5.472,5.472,0,0,0-2.365-1.785c-.661-.223-1.062-.25-1.053-.295s.1,0,.286,0a3.176,3.176,0,0,1,.821.134,5.463,5.463,0,0,1,2.544,1.741,13.88,13.88,0,0,1,2.356,4,21.173,21.173,0,0,1,1.437,5.615l-.357-.179c.687-.464,1.4-.946,2.124-1.455a74.131,74.131,0,0,0,9.212-7.739c1.107-1.08,1.964-1.991,2.562-2.615A7.871,7.871,0,0,1,271.686,303.33Z" transform="translate(-63.604 -212.641)" fill="#263238"/>
      <path id="Path_8823" data-name="Path 8823" d="M256.1,443.291v-1.4c0-.937,0-2.285-.054-4.008,0-3.508-.1-8.542-.179-14.755-.179-12.452-.58-29.653-1.446-48.638s-2.062-36.151-3.017-48.567c-.5-6.195-.893-11.211-1.178-14.71-.134-1.714-.241-3.053-.321-3.99,0-.446-.054-.786-.062-1.044a1.555,1.555,0,0,1,0-.357,1.747,1.747,0,0,0,.054.348c.054.232.062.607.116,1.044.1.937.232,2.276.4,3.99.348,3.463.8,8.48,1.33,14.692,1.044,12.407,2.276,29.581,3.151,48.576s1.214,36.2,1.312,48.656c.054,6.248.054,11.274,0,14.755v5.052a1.893,1.893,0,0,1-.107.357Z" transform="translate(-63.608 -212.908)" fill="#263238"/>
      <g id="Group_12762" data-name="Group 12762" transform="translate(185.757 92.153)" opacity="0.2">
        <path id="Path_8824" data-name="Path 8824" d="M249.31,305c2.026,1.151,2.776,3.713,2.785,6.034s-.544,4.642-.348,6.962a3.954,3.954,0,0,0,1.553,3.151c1.41.893,3.2.054,4.651-.741a39.289,39.289,0,0,0,8.792-5.927,12.693,12.693,0,0,0,3.57-9.506c-4.285,4.6-8.6,7.373-13.291,11a19.405,19.405,0,0,0-2.357-6.953c-1.214-2.107-2.937-4.285-5.356-4.017" transform="translate(-249.31 -304.97)"/>
      </g>
      <g id="Group_12763" data-name="Group 12763" transform="translate(170.449 93.43)" opacity="0.2">
        <path id="Path_8825" data-name="Path 8825" d="M232.16,310.435c1.58,3.1,3.24,6.248,5.963,8.453,1.205.955,2.972,1.678,4.231.786,1.009-.723,1.178-2.124,1.259-3.365.214-3.142,1.143-6.757,1.357-9.908-2.49,2.812-3.856,7.766-6.48,11.167-2.678-1.687-4.222-4.57-6.15-7.078" transform="translate(-232.16 -306.4)"/>
      </g>
      <g id="Group_12764" data-name="Group 12764" transform="translate(233.931 149.387)" opacity="0.2">
        <path id="Path_8826" data-name="Path 8826" d="M320.882,392.218l12.434-23.128c-3.678.366-6.15,3.838-8.033,7.016s-4.2,6.7-7.846,7.337c-2.535.437-5.07-.7-7.284-2.017s-4.356-2.883-6.873-3.437Z" transform="translate(-303.28 -369.09)"/>
      </g>
      <g id="Group_12765" data-name="Group 12765" transform="translate(108.314 166.267)" opacity="0.2">
        <path id="Path_8827" data-name="Path 8827" d="M196.541,388s-8.658,9.114-14.5,10.452a21.236,21.236,0,0,1-17.067-3.57,3.2,3.2,0,0,0-1.294-.687.973.973,0,0,0-1.134.7,1.41,1.41,0,0,0,.607,1.1q8.926,8.31,18.6,15.817Z" transform="translate(-162.55 -388)"/>
      </g>
      <g id="Group_12766" data-name="Group 12766" transform="translate(176.56 104.141)" opacity="0.2">
        <path id="Path_8828" data-name="Path 8828" d="M245.526,318.4q-4.927,39.355-6.436,79.032c-.152,4.133-.259,8.391,1.214,12.256,1.714,4.463,5.356,7.944,8.926,11.211,1.509,1.392,3.57,2.892,5.409,2.026a5.044,5.044,0,0,0,1.741-1.625c2.232-2.874,4.32-5.98,5.15-9.533,2.589-11.122-7.909-22.128-5.543-33.3" transform="translate(-239.007 -318.4)"/>
      </g>
      <path id="Path_8829" data-name="Path 8829" d="M245.073,308.145l7.882-.205,2.107,4.24-2.526,7.087H246.1l-3.41-6.346Z" transform="translate(-62.842 -213.136)" fill="#455a64"/>
      <path id="Path_8830" data-name="Path 8830" d="M246.066,320.63l-3.686,90.207,10.711,11.649,9.9-14.068L252.5,320.63Z" transform="translate(-62.808 -214.499)" fill="#455a64"/>
      <path id="Path_8831" data-name="Path 8831" d="M252.584,320.714a90.107,90.107,0,0,1-5.954-.1,10.88,10.88,0,0,1,5.954.1Z" transform="translate(-63.265 -214.458)" fill="#263238"/>
      <path id="Path_8832" data-name="Path 8832" d="M254.126,309.65a5.356,5.356,0,0,1-1,1.366,22.039,22.039,0,0,1-2.963,2.8,22.4,22.4,0,0,1-3.4,2.232,5.061,5.061,0,0,1-1.562.661c-.062-.125,2.223-1.3,4.677-3.258S254.019,309.551,254.126,309.65Z" transform="translate(-63.111 -213.319)" fill="#263238"/>
      <path id="Path_8833" data-name="Path 8833" d="M253.843,330.5A34.909,34.909,0,0,1,250,334.642a34.125,34.125,0,0,1-4.186,3.811,34.57,34.57,0,0,1,3.856-4.142,33.707,33.707,0,0,1,4.177-3.811Z" transform="translate(-63.177 -215.558)" fill="#263238"/>
      <path id="Path_8834" data-name="Path 8834" d="M254.344,337.78a87.248,87.248,0,0,1-8.944,8.855,42.838,42.838,0,0,1,4.311-4.6,42.365,42.365,0,0,1,4.633-4.258Z" transform="translate(-63.133 -216.34)" fill="#ebebeb"/>
      <path id="Path_8835" data-name="Path 8835" d="M255.312,344.5a57.4,57.4,0,0,1-5.016,5.3,58.368,58.368,0,0,1-5.356,4.981,56.776,56.776,0,0,1,5.016-5.311,55.968,55.968,0,0,1,5.356-4.972Z" transform="translate(-63.083 -217.062)" fill="#263238"/>
      <path id="Path_8836" data-name="Path 8836" d="M255.995,351.58a70.645,70.645,0,0,1-5.472,5.766,69.631,69.631,0,0,1-5.793,5.427,66.943,66.943,0,0,1,5.463-5.757,68.141,68.141,0,0,1,5.8-5.436Z" transform="translate(-63.061 -217.822)" fill="#ebebeb"/>
      <path id="Path_8837" data-name="Path 8837" d="M256.637,358.71a81.04,81.04,0,0,1-5.909,6.195,77.341,77.341,0,0,1-6.248,5.873,80.1,80.1,0,0,1,5.909-6.248,76.169,76.169,0,0,1,6.248-5.82Z" transform="translate(-63.034 -218.588)" fill="#263238"/>
      <path id="Path_8838" data-name="Path 8838" d="M257.4,365.68c.1.089-2.821,3.133-6.5,6.8a93.325,93.325,0,0,1-6.837,6.471,92.075,92.075,0,0,1,6.507-6.8A92.26,92.26,0,0,1,257.4,365.68Z" transform="translate(-62.989 -219.336)" fill="#ebebeb"/>
      <path id="Path_8839" data-name="Path 8839" d="M258.029,372.8c.089.089-3.044,3.347-6.989,7.284s-7.221,7.034-7.31,6.945,3.035-3.347,6.98-7.275S257.931,372.711,258.029,372.8Z" transform="translate(-62.953 -220.101)" fill="#263238"/>
      <path id="Path_8840" data-name="Path 8840" d="M258.793,379.8c.089.089-3.258,3.57-7.471,7.757s-7.7,7.516-7.792,7.427,3.249-3.57,7.471-7.757S258.7,379.711,258.793,379.8Z" transform="translate(-62.932 -220.853)" fill="#ebebeb"/>
      <path id="Path_8841" data-name="Path 8841" d="M259.231,387.12c.089.089-3.463,3.776-7.935,8.221s-8.167,7.989-8.266,7.9,3.463-3.776,7.935-8.221S259.141,387.013,259.231,387.12Z" transform="translate(-62.878 -221.639)" fill="#263238"/>
      <path id="Path_8842" data-name="Path 8842" d="M260.094,394c.089.089-3.66,3.972-8.373,8.667s-8.623,8.435-8.712,8.346,3.66-3.972,8.382-8.676S260.005,393.928,260.094,394Z" transform="translate(-62.876 -222.378)" fill="#ebebeb"/>
      <path id="Path_8843" data-name="Path 8843" d="M261.387,400.36c.089.1-4.106,4.418-9.363,9.658s-9.6,9.426-9.694,9.337,4.1-4.418,9.363-9.667S261.3,400.271,261.387,400.36Z" transform="translate(-62.803 -223.061)" fill="#263238"/>
      <path id="Path_8844" data-name="Path 8844" d="M246.14,423.824c-.089-.089,3.454-3.8,7.926-8.292s8.158-8.033,8.257-7.962-3.463,3.8-7.926,8.292S246.229,423.914,246.14,423.824Z" transform="translate(-63.212 -223.835)" fill="#ebebeb"/>
      <path id="Path_8845" data-name="Path 8845" d="M250.73,428.767a87.183,87.183,0,0,1,6.248-6.864,90.4,90.4,0,0,1,6.552-6.543,92.18,92.18,0,0,1-6.248,6.864,90.408,90.408,0,0,1-6.552,6.543Z" transform="translate(-63.705 -224.672)" fill="#263238"/>
      <path id="Path_8846" data-name="Path 8846" d="M253.06,323.73a27.675,27.675,0,0,1-3.41,3.7,27.222,27.222,0,0,1-3.74,3.383,28.068,28.068,0,0,1,3.41-3.713A27.357,27.357,0,0,1,253.06,323.73Z" transform="translate(-63.188 -214.831)" fill="#ebebeb"/>
      <path id="Path_8847" data-name="Path 8847" d="M149.937,396.839c-1.3-.116-1.785-1.883-1.375-3.124s1.4-2.24,1.785-3.49c.241-.705.348-1.553.964-1.982a1.937,1.937,0,0,1,2.232.1c3.633,3.106,6.311,6.132,10.274,9.5,3.82,3.231,7.935,7.382,11.97,10.354,2.267,1.678,5.043,3.41,5.356,6.248a4.526,4.526,0,0,1-4,4.793c-2.3.161-4.293-1.473-6.016-3.008q-10.783-9.622-21.574-19.236" transform="translate(-52.718 -221.727)" fill="#4d8a8b"/>
      <path id="Path_8848" data-name="Path 8848" d="M180.332,411.5a8.091,8.091,0,0,1-1.107-.794c-.7-.536-1.723-1.268-3.008-2.178a43.787,43.787,0,0,1-4.329-3.428l-4.99-4.534c-3.57-3.24-6.712-6.186-9-8.337l-2.678-2.571a6.7,6.7,0,0,1-.893-.982,7.722,7.722,0,0,1,1.062.893l2.794,2.455c2.339,2.089,5.543,5,9.078,8.23,1.785,1.625,3.428,3.16,4.954,4.57a47.971,47.971,0,0,0,4.249,3.481c1.259.946,2.258,1.732,2.928,2.3A6.784,6.784,0,0,1,180.332,411.5Z" transform="translate(-53.353 -221.806)" fill="#263238"/>
      <path id="Path_8849" data-name="Path 8849" d="M177.633,414.039a6.961,6.961,0,0,1-1.16-.661c-.723-.446-1.785-1.125-3.026-1.982-2.535-1.714-5.972-4.186-9.613-7.141s-6.811-5.731-9.033-7.828c-1.116-1.044-2.008-1.91-2.6-2.526a6.755,6.755,0,0,1-.893-.982,8.855,8.855,0,0,1,1.026.893l2.678,2.41c2.285,2.035,5.472,4.793,9.1,7.712s7.034,5.418,9.515,7.194l2.937,2.1A7.933,7.933,0,0,1,177.633,414.039Z" transform="translate(-53.029 -222.262)" fill="#263238"/>
      <g id="Group_12767" data-name="Group 12767" transform="translate(102.691 174.059)" opacity="0.3">
        <path id="Path_8850" data-name="Path 8850" d="M162.275,396.73a20.067,20.067,0,0,1-2.847,3.169,19.8,19.8,0,0,1-3.178,2.847,39.45,39.45,0,0,1,6.025-6.016Z" transform="translate(-156.25 -396.73)" fill="#ebebeb"/>
      </g>
      <g id="Group_12768" data-name="Group 12768" transform="translate(116.223 186.591)" opacity="0.3">
        <path id="Path_8851" data-name="Path 8851" d="M177.89,410.77a21.976,21.976,0,0,1-3.079,3.285,22.555,22.555,0,0,1-3.4,2.955,21.425,21.425,0,0,1,3.08-3.285,22.068,22.068,0,0,1,3.4-2.955Z" transform="translate(-171.41 -410.77)" fill="#ebebeb"/>
      </g>
      <g id="Group_12769" data-name="Group 12769" transform="translate(169.485 85.441)" opacity="0.5">
        <path id="Path_8852" data-name="Path 8852" d="M237.551,297.45a38.8,38.8,0,0,1-3.044,5.141,38.018,38.018,0,0,1-3.428,4.892,40.169,40.169,0,0,1,3.044-5.141A37,37,0,0,1,237.551,297.45Z" transform="translate(-231.08 -297.45)" fill="#ebebeb"/>
      </g>
      <g id="Group_12770" data-name="Group 12770" transform="translate(197.504 85.057)" opacity="0.5">
        <path id="Path_8853" data-name="Path 8853" d="M267.406,307.767a39.19,39.19,0,0,1-2.678-5.275,37.411,37.411,0,0,1-2.258-5.472,74.358,74.358,0,0,1,4.945,10.711Z" transform="translate(-262.47 -297.02)" fill="#ebebeb"/>
      </g>
      <path id="Path_8854" data-name="Path 8854" d="M332.117,396.2a2.838,2.838,0,0,1-2.963,1.687c-1.3-.143-2.49-.893-3.8-.991-.741-.08-1.589,0-2.142-.509a2.366,2.366,0,0,1-.4-2.187c.83-4.936,3.508-9.355,6.382-13.452s6.025-8.033,8.034-12.648c1.125-2.589,2.2-5.677,4.865-6.605a4.526,4.526,0,0,1,5.579,2.856c.669,2.214-.482,4.517-1.6,6.534L332.117,396.2" transform="translate(-71.434 -218.867)" fill="#4d8a8b"/>
      <path id="Path_8855" data-name="Path 8855" d="M341.525,366.68a7.7,7.7,0,0,1-.42,1.259c-.295.794-.75,1.937-1.321,3.338-1.151,2.8-2.821,6.65-4.793,10.836s-3.9,7.917-5.356,10.586c-.714,1.33-1.312,2.4-1.741,3.133a7.322,7.322,0,0,1-.705,1.116,8.032,8.032,0,0,1,.544-1.2l1.616-3.213c1.366-2.678,3.231-6.445,5.2-10.622s3.7-8.034,4.918-10.774c.589-1.321,1.08-2.419,1.455-3.276A7.371,7.371,0,0,1,341.525,366.68Z" transform="translate(-71.916 -219.444)" fill="#263238"/>
      <path id="Path_8856" data-name="Path 8856" d="M339.566,361.14a7.628,7.628,0,0,1-.678,1.205l-1.937,3.2c-1.633,2.678-3.838,6.445-6.141,10.711s-4.249,8.123-5.632,10.952l-1.625,3.365a8.508,8.508,0,0,1-.643,1.214,7.294,7.294,0,0,1,.473-1.285c.339-.821.848-1.991,1.5-3.428,1.3-2.874,3.213-6.8,5.516-11.042s4.57-7.971,6.248-10.631c.893-1.33,1.562-2.392,2.062-3.115a6.9,6.9,0,0,1,.857-1.143Z" transform="translate(-71.457 -218.849)" fill="#263238"/>
      <g id="Group_12771" data-name="Group 12771" transform="translate(254.595 166.883)" opacity="0.5">
        <path id="Path_8857" data-name="Path 8857" d="M335.624,392.805a15.173,15.173,0,0,1-4.838-1.509,15.513,15.513,0,0,1-4.356-2.6c.071-.116,2.008,1.053,4.543,2.178S335.66,392.68,335.624,392.805Z" transform="translate(-326.43 -388.691)" fill="#ebebeb"/>
      </g>
      <g id="Group_12772" data-name="Group 12772" transform="translate(265.405 146.951)" opacity="0.5">
        <path id="Path_8858" data-name="Path 8858" d="M347.877,371.966a40.312,40.312,0,0,1-4.731-2.678,41.342,41.342,0,0,1-4.606-2.928,26.905,26.905,0,0,1,4.847,2.535,26.512,26.512,0,0,1,4.49,3.071Z" transform="translate(-338.54 -366.36)" fill="#ebebeb"/>
      </g>
    </g>
    <g id="freepik--Stars--inject-71" transform="translate(99.299 55.02)">
      <path id="Path_8859" data-name="Path 8859" d="M364.094,55.02l-1.785,3.258-3.249,1.776,3.249,1.785,1.785,3.249,1.776-3.249,3.258-1.785-3.258-1.776Z" transform="translate(-135.327 -55.02)" fill="#455a64"/>
      <path id="Path_8860" data-name="Path 8860" d="M435.554,271.3l-1.785,3.249-3.249,1.785,3.249,1.776,1.785,3.249,1.776-3.249,3.258-1.776-3.258-1.785Z" transform="translate(-143.001 -78.246)" fill="#455a64"/>
      <path id="Path_8861" data-name="Path 8861" d="M113.444,66.36l-1.785,3.249-3.249,1.785,3.249,1.776,1.785,3.249,1.776-3.249,3.258-1.776-3.258-1.785Z" transform="translate(-108.41 -56.238)" fill="#455a64"/>
      <path id="Path_8862" data-name="Path 8862" d="M409.537,170.51l-1.1,2-2,1.089,2,1.1,1.1,2,1.1-2,1.991-1.1-1.991-1.089Z" transform="translate(-140.415 -67.422)" fill="#455a64"/>
      <path id="Path_8863" data-name="Path 8863" d="M246.947,106.92l-1.1,2.008-2,1.089,2,1.089,1.1,2.008,1.089-2.008,2-1.089-2-1.089Z" transform="translate(-122.955 -60.593)" fill="#455a64"/>
      <path id="Path_8864" data-name="Path 8864" d="M177.159,164.61l-.982,1.776-1.767.973,1.767.973.982,1.776.973-1.776,1.767-.973-1.767-.973Z" transform="translate(-115.498 -66.789)" fill="#455a64"/>
      <path id="Path_8865" data-name="Path 8865" d="M309.059,260.54l-.973,1.785-1.776.973,1.776.973.973,1.776.982-1.776,1.767-.973-1.767-.973Z" transform="translate(-129.662 -77.091)" fill="#455a64"/>
      <path id="Path_8866" data-name="Path 8866" d="M117.239,279.33l-.973,1.776-1.776.973,1.776.973.973,1.776.973-1.776,1.776-.973-1.776-.973Z" transform="translate(-109.063 -79.108)" fill="#455a64"/>
    </g>
    <g id="freepik--floating-money--inject-71" transform="translate(45.216 56.85)">
      <path id="Path_8867" data-name="Path 8867" d="M72.43,108.645s5.356-2.839,11.354,1.446c3.7,2.678,11.541,6.748,13.96,4.258l2.972-9.6A27.341,27.341,0,0,1,89.943,99.87C85.2,96.121,75.759,96.3,75.759,96.3Z" transform="translate(-50.463 -61.283)" fill="#4d8a8b"/>
      <g id="Group_12773" data-name="Group 12773" transform="translate(31.255 38.874)" opacity="0.4">
        <path id="Path_8868" data-name="Path 8868" d="M90.293,101.548a4.8,4.8,0,0,1,1.4,7.141c-1.616,1.91-5.356,1.41-7.257-.214a4.526,4.526,0,0,1-.527-6.382C85.526,100.165,88.133,100.29,90.293,101.548Z" transform="translate(-82.836 -100.62)" fill="#fff"/>
      </g>
      <path id="Path_8869" data-name="Path 8869" d="M90.5,103.631c0,.062-.232,0-.527-.116a5.587,5.587,0,0,0-1.214-.384,2.026,2.026,0,0,0-.768,0,1.026,1.026,0,0,0-.6.375.777.777,0,0,0-.071.669c.071.2.3.375.678.562.179.089.384.179.6.295a2.24,2.24,0,0,1,.643.482,1.785,1.785,0,0,1,.259.366,1.374,1.374,0,0,1,.143.446,1.446,1.446,0,0,1-.125.893,1.562,1.562,0,0,1-.509.616,1.651,1.651,0,0,1-.669.277,2.321,2.321,0,0,1-1.134-.1,2.928,2.928,0,0,1-.768-.393,3.615,3.615,0,0,1-.482-.384c-.241-.241-.348-.4-.3-.464s.223,0,.527.107a5.355,5.355,0,0,0,1.214.393,1.785,1.785,0,0,0,.75,0,.678.678,0,0,0,.464-.411.482.482,0,0,0,0-.295.517.517,0,0,0,0-.125.705.705,0,0,0-.107-.134,3.963,3.963,0,0,0-.955-.536,3.017,3.017,0,0,1-.661-.42,2.588,2.588,0,0,1-.3-.321,1.5,1.5,0,0,1-.214-.411,1.7,1.7,0,0,1,.223-1.7,1.839,1.839,0,0,1,1.25-.678,2.588,2.588,0,0,1,1.107.116,3.32,3.32,0,0,1,1.259.777C90.424,103.407,90.54,103.577,90.5,103.631Z" transform="translate(-51.881 -61.919)" fill="#4d8a8b"/>
      <path id="Path_8870" data-name="Path 8870" d="M88.8,101.48a12.345,12.345,0,0,1-.893,3.57,12.5,12.5,0,0,1-1.392,3.392,13.166,13.166,0,0,1,.893-3.57A12.863,12.863,0,0,1,88.8,101.48Z" transform="translate(-51.975 -61.839)" fill="#4d8a8b"/>
      <path id="Path_8871" data-name="Path 8871" d="M89.631,102a10.381,10.381,0,0,1-.777,3.24A9.527,9.527,0,0,1,87.56,108.3a10.854,10.854,0,0,1,.785-3.231A10.542,10.542,0,0,1,89.631,102Z" transform="translate(-52.088 -61.895)" fill="#4d8a8b"/>
      <g id="Group_12774" data-name="Group 12774" transform="translate(23.145 36.252)" opacity="0.5">
        <path id="Path_8872" data-name="Path 8872" d="M99.654,105.517l-2.74,8.712h-.089c-4.293.893-9.738-2.856-13.336-5.356-.625-.428-1.214-.83-1.723-1.16a8.034,8.034,0,0,0-7.73-.295l-.286-.116,2.8-9.453h.1a18.745,18.745,0,0,1,14.5,4.186c2.678,2.348,8.266,3.4,8.319,3.41Zm-2.99,8.435,2.58-8.194c-1-.2-5.784-1.25-8.292-3.445A18.4,18.4,0,0,0,76.8,98.189l-2.624,8.828a5.982,5.982,0,0,1,.839-.321,8.64,8.64,0,0,1,6.918.8l1.732,1.16C87.193,111.078,92.522,114.72,96.663,113.953Z" transform="translate(-73.75 -97.683)" fill="#fff"/>
      </g>
      <path id="Path_8873" data-name="Path 8873" d="M444.959,196.65s-.062,10.408-11.3,15.96c-6.962,3.437-19.459,12.023-17.611,17.62l12.068,12.184A46.859,46.859,0,0,1,444.129,230.1c9.453-4.133,16.719-18.54,16.719-18.54Z" transform="translate(-87.344 -72.059)" fill="#4d8a8b"/>
      <g id="Group_12775" data-name="Group 12775" transform="translate(343.339 141.016)" opacity="0.4">
        <path id="Path_8874" data-name="Path 8874" d="M444.689,229.939a8.194,8.194,0,0,1-11.854-3.57c-1.58-3.972,2.169-9.185,6.132-10.765A7.739,7.739,0,0,1,449.01,219.9C450.6,223.86,448.322,227.69,444.689,229.939Z" transform="translate(-432.465 -215.052)" fill="#fff"/>
      </g>
      <path id="Path_8875" data-name="Path 8875" d="M442.386,228.657c-.054-.125.179-.357.6-.705a9.67,9.67,0,0,0,1.562-1.517,3.571,3.571,0,0,0,.58-1.187,1.678,1.678,0,0,0-.1-1.2,1.268,1.268,0,0,0-.955-.643,2.133,2.133,0,0,0-1.375.562c-.286.205-.58.446-.893.669a4.32,4.32,0,0,1-1.241.589,2.777,2.777,0,0,1-.768.089,2.151,2.151,0,0,1-.785-.143,2.562,2.562,0,0,1-1.2-.893,2.749,2.749,0,0,1-.393-2.49,4.017,4.017,0,0,1,1.053-1.633,5.356,5.356,0,0,1,1.214-.848,5.773,5.773,0,0,1,.973-.411c.544-.179.893-.205.893-.1s-.161.366-.58.723a9.979,9.979,0,0,0-1.571,1.509,3.017,3.017,0,0,0-.545,1.16,1.143,1.143,0,0,0,.259,1.035.893.893,0,0,0,.42.268.642.642,0,0,0,.232,0,1.054,1.054,0,0,0,.277-.045,6.723,6.723,0,0,0,1.589-1.009,5.427,5.427,0,0,1,1.152-.669,3.819,3.819,0,0,1,.732-.187,2.375,2.375,0,0,1,.794,0,2.919,2.919,0,0,1,2.232,1.678,3.133,3.133,0,0,1,0,2.428,4.462,4.462,0,0,1-1.062,1.58,5.882,5.882,0,0,1-2.178,1.276C442.8,228.791,442.458,228.791,442.386,228.657Z" transform="translate(-89.644 -74.432)" fill="#4d8a8b"/>
      <path id="Path_8876" data-name="Path 8876" d="M447.089,227.6c-.179.179-2.258-1.7-4.642-4.186s-4.177-4.642-4-4.82,2.267,1.7,4.659,4.186S447.276,227.416,447.089,227.6Z" transform="translate(-89.768 -74.414)" fill="#4d8a8b"/>
      <path id="Path_8877" data-name="Path 8877" d="M445.817,228.525c-.179.179-2.089-1.509-4.249-3.767s-3.776-4.231-3.57-4.41,2.089,1.517,4.249,3.776S446.031,228.355,445.817,228.525Z" transform="translate(-89.719 -74.603)" fill="#4d8a8b"/>
      <g id="Group_12776" data-name="Group 12776" transform="translate(329.882 127.518)" opacity="0.5">
        <path id="Path_8878" data-name="Path 8878" d="M428.324,240.455,417.39,229.333l.054-.152c2.124-7.141,12.113-12.381,18.745-15.835,1.134-.589,2.214-1.151,3.124-1.66,6.1-3.392,6.909-10.827,6.641-11.408l.42-.348,11.988,11.809-.054.161a31.946,31.946,0,0,1-17.941,18.513c-5.695,2.178-11.756,9.729-11.818,9.819Zm-10.319-11.274,10.283,10.452c1.1-1.339,6.534-7.7,11.854-9.729a31.4,31.4,0,0,0,17.567-18.022l-11.211-11a10.492,10.492,0,0,1-.2,1.509c-.321,1.6-1.785,7.007-6.766,9.819-.893.509-1.991,1.08-3.133,1.669C429.931,217.22,420.175,222.308,418.006,229.181Z" transform="translate(-417.39 -199.93)" fill="#fff"/>
      </g>
      <path id="Path_8879" data-name="Path 8879" d="M451.072,96.942s-6.614,1.464-11.765-4.865c-3.178-3.927-10.4-10.613-13.719-8.64l-6,9.39a30.474,30.474,0,0,1,10.131,8.391c3.99,5.356,14.175,7.935,14.175,7.935Z" transform="translate(-87.744 -59.863)" fill="#4d8a8b"/>
      <g id="Group_12777" data-name="Group 12777" transform="translate(341.611 31.631)" opacity="0.4">
        <path id="Path_8880" data-name="Path 8880" d="M432.074,101.168a5.356,5.356,0,0,1,.58-8.034c2.294-1.58,6.141.054,7.721,2.339a5.043,5.043,0,0,1-1.3,7.007C436.787,104.042,434.029,103.15,432.074,101.168Z" transform="translate(-430.53 -92.507)" fill="#fff"/>
      </g>
      <path id="Path_8881" data-name="Path 8881" d="M433,99.5c.071-.054.25.062.536.277a5.954,5.954,0,0,0,1.187.768,2.035,2.035,0,0,0,.839.2,1.044,1.044,0,0,0,.741-.232.83.83,0,0,0,.277-.7,1.4,1.4,0,0,0-.562-.794c-.17-.152-.366-.3-.553-.491a2.678,2.678,0,0,1-.553-.705,1.785,1.785,0,0,1-.17-.473,1.687,1.687,0,0,1,0-.518,1.642,1.642,0,0,1,.393-.893,1.7,1.7,0,0,1,.723-.509,1.678,1.678,0,0,1,.794-.1,2.678,2.678,0,0,1,1.187.428,3.428,3.428,0,0,1,.714.643,3.8,3.8,0,0,1,.4.562c.2.321.259.527.2.58s-.25-.054-.544-.268a6.249,6.249,0,0,0-1.187-.777,1.946,1.946,0,0,0-.8-.179.732.732,0,0,0-.625.312.571.571,0,0,0-.107.3.3.3,0,0,0,0,.152.9.9,0,0,0,.071.17,4.088,4.088,0,0,0,.893.893,3.455,3.455,0,0,1,.589.643,2.27,2.27,0,0,1,.232.437,1.633,1.633,0,0,1,.116.5,1.919,1.919,0,0,1-.75,1.66,2.035,2.035,0,0,1-1.535.366,2.678,2.678,0,0,1-1.151-.446,3.571,3.571,0,0,1-1.125-1.205C433,99.711,432.935,99.5,433,99.5Z" transform="translate(-89.181 -61.177)" fill="#4d8a8b"/>
      <path id="Path_8882" data-name="Path 8882" d="M434.478,102.181a14.554,14.554,0,0,1,1.982-3.57c1.232-1.892,2.348-3.321,2.49-3.231s-.75,1.687-1.991,3.57S434.612,102.3,434.478,102.181Z" transform="translate(-89.341 -61.184)" fill="#4d8a8b"/>
      <path id="Path_8883" data-name="Path 8883" d="M433.748,101.529a11.709,11.709,0,0,1,1.785-3.24,11.723,11.723,0,0,1,2.276-2.91,11.577,11.577,0,0,1-1.785,3.24A11.7,11.7,0,0,1,433.748,101.529Z" transform="translate(-89.263 -61.183)" fill="#4d8a8b"/>
      <g id="Group_12778" data-name="Group 12778" transform="translate(333.319 24.136)" opacity="0.5">
        <path id="Path_8884" data-name="Path 8884" d="M421.24,92.661l5.49-8.551h.1c4.856.321,9.6,5.909,12.755,9.6.536.634,1.053,1.232,1.5,1.785a8.926,8.926,0,0,0,8.2,2.571l.277.214L443.8,107.6h-.107a20.771,20.771,0,0,1-14.335-8.73c-2.2-3.294-7.873-6.052-7.935-6.079Zm5.668-8.176-5.15,8.033c1.009.5,5.829,3.035,7.891,6.114a20.4,20.4,0,0,0,13.969,8.587l5.356-8.694a6.625,6.625,0,0,1-.991.089,9.569,9.569,0,0,1-7.185-2.874c-.455-.509-.973-1.116-1.517-1.785C436.2,90.331,431.576,84.9,426.908,84.485Z" transform="translate(-421.24 -84.11)" fill="#fff"/>
      </g>
      <path id="Path_8885" data-name="Path 8885" d="M358.5,105.74s-8.292,6.248-19.539.768c-6.962-3.428-21.342-8.114-24.707-3.231l-2.3,16.96a46.769,46.769,0,0,1,19.521,5.195c9.042,4.972,24.886,1.955,24.886,1.955Z" transform="translate(-76.185 -61.806)" fill="#4d8a8b"/>
      <g id="Group_12779" data-name="Group 12779" transform="translate(250.877 46.682)" opacity="0.4">
        <path id="Path_8886" data-name="Path 8886" d="M334.245,124.071a8.185,8.185,0,0,1-4.365-11.6c2.178-3.669,8.6-3.874,12.273-1.7a7.739,7.739,0,0,1,2.678,10.6C342.662,125.053,338.235,125.589,334.245,124.071Z" transform="translate(-328.88 -109.368)" fill="#fff"/>
      </g>
      <path id="Path_8887" data-name="Path 8887" d="M334.469,121.206c.054-.116.384-.08.893.045a9.114,9.114,0,0,0,2.151.3,3.321,3.321,0,0,0,1.294-.259,1.66,1.66,0,0,0,.893-.8,1.3,1.3,0,0,0-.071-1.151,2.178,2.178,0,0,0-1.294-.741c-.33-.1-.7-.2-1.089-.33a4.543,4.543,0,0,1-1.223-.625,3.2,3.2,0,0,1-.544-.553,2.357,2.357,0,0,1-.366-.714,2.624,2.624,0,0,1,0-1.482,2.749,2.749,0,0,1,.687-1.178,2.793,2.793,0,0,1,1.044-.643,3.91,3.91,0,0,1,1.937-.161,5.16,5.16,0,0,1,1.41.437,6.244,6.244,0,0,1,.893.518c.473.33.7.571.643.687s-.384.089-.893,0a9.73,9.73,0,0,0-2.151-.321,3,3,0,0,0-1.25.268,1.151,1.151,0,0,0-.66.839.821.821,0,0,0,0,.491.679.679,0,0,0,.116.205,1.525,1.525,0,0,0,.214.187,6.489,6.489,0,0,0,1.785.643,5.355,5.355,0,0,1,1.223.509,3.775,3.775,0,0,1,.607.464,2.928,2.928,0,0,1,.482.625,2.972,2.972,0,0,1,0,2.8,3.115,3.115,0,0,1-1.91,1.491,4.267,4.267,0,0,1-1.9.125,5.775,5.775,0,0,1-2.339-.955C334.62,121.572,334.406,121.313,334.469,121.206Z" transform="translate(-78.602 -63.061)" fill="#4d8a8b"/>
      <path id="Path_8888" data-name="Path 8888" d="M338.488,124.065c-.25,0,0-2.83.491-6.248s1.134-6.141,1.384-6.1,0,2.83-.482,6.248S338.747,124.1,338.488,124.065Z" transform="translate(-79.024 -62.939)" fill="#4d8a8b"/>
      <path id="Path_8889" data-name="Path 8889" d="M336.986,123.652c-.25,0-.071-2.58.393-5.668s1.062-5.57,1.312-5.534.071,2.58-.4,5.668S337.245,123.652,336.986,123.652Z" transform="translate(-78.861 -63.017)" fill="#4d8a8b"/>
      <g id="Group_12780" data-name="Group 12780" transform="translate(237.595 40.77)" opacity="0.5">
        <path id="Path_8890" data-name="Path 8890" d="M314,119.04l2.16-15.442.152-.062c6.98-2.678,17.192,2.062,23.958,5.195,1.169.544,2.267,1.053,3.222,1.464,6.4,2.767,12.8-1.116,13.095-1.678l.527.116-2.053,16.736-.161.054a31.929,31.929,0,0,1-25.609-2.955c-5.2-3.187-14.88-3.392-14.978-3.392Zm2.678-15.049-2.035,14.523c1.741.054,10.1.482,14.942,3.463a31.393,31.393,0,0,0,24.993,2.955l1.919-15.6a10.04,10.04,0,0,1-1.321.768c-1.455.714-6.614,2.883-11.881.607-.964-.42-2.071-.893-3.24-1.473-6.614-3.044-16.611-7.676-23.377-5.213Z" transform="translate(-314 -102.746)" fill="#fff"/>
      </g>
      <path id="Path_8891" data-name="Path 8891" d="M350.411,232.482s-8.248-1.785-10.774-11.6c-1.562-6.1-6.248-17.424-11.033-16.96l-11.684,7.534a38.007,38.007,0,0,1,7.087,14.773c1.7,8.185,11.916,16.362,11.916,16.362Z" transform="translate(-76.718 -72.838)" fill="#4d8a8b"/>
      <g id="Group_12781" data-name="Group 12781" transform="translate(248.786 143.909)" opacity="0.4">
        <path id="Path_8892" data-name="Path 8892" d="M326.95,227.154a6.641,6.641,0,0,1,4.847-8.8c3.41-.589,6.927,3.258,7.516,6.668a6.248,6.248,0,0,1-5.115,7.248C330.771,232.858,328.12,230.412,326.95,227.154Z" transform="translate(-326.537 -218.293)" fill="#fff"/>
      </g>
      <path id="Path_8893" data-name="Path 8893" d="M328.982,225.673q.147,0,.455.589a7.937,7.937,0,0,0,.946,1.491,2.785,2.785,0,0,0,.839.661,1.357,1.357,0,0,0,.973.116,1.026,1.026,0,0,0,.669-.643,1.785,1.785,0,0,0-.223-1.187c-.116-.259-.25-.536-.375-.848a3.615,3.615,0,0,1-.259-1.08,2.427,2.427,0,0,1,.054-.625,2.062,2.062,0,0,1,1.143-1.4,2.258,2.258,0,0,1,1.1-.2,2.365,2.365,0,0,1,.946.3,3.222,3.222,0,0,1,1.116,1.107,4.462,4.462,0,0,1,.473,1.1,4.824,4.824,0,0,1,.161.839c.054.473,0,.732-.08.759s-.259-.187-.473-.58a7.755,7.755,0,0,0-.937-1.5,2.338,2.338,0,0,0-.821-.625.946.946,0,0,0-.893,0,.821.821,0,0,0-.286.295.526.526,0,0,0-.054.179.66.66,0,0,0,0,.232,5.268,5.268,0,0,0,.536,1.419,4.151,4.151,0,0,1,.33,1.035,2.739,2.739,0,0,1,0,.607,2.17,2.17,0,0,1-.134.634,2.4,2.4,0,0,1-1.714,1.491,2.508,2.508,0,0,1-1.919-.393,3.517,3.517,0,0,1-1.08-1.107,4.615,4.615,0,0,1-.643-1.937C328.848,225.959,328.892,225.691,328.982,225.673Z" transform="translate(-77.997 -74.84)" fill="#4d8a8b"/>
      <path id="Path_8894" data-name="Path 8894" d="M329.079,229.654c-.116-.179,1.723-1.517,4.1-2.99s4.383-2.535,4.463-2.365-1.723,1.517-4.1,3S329.186,229.823,329.079,229.654Z" transform="translate(-78.024 -75.027)" fill="#4d8a8b"/>
      <path id="Path_8895" data-name="Path 8895" d="M328.649,228.483c-.116-.179,1.544-1.4,3.7-2.74s3.99-2.285,4.106-2.115-1.553,1.41-3.7,2.74S328.756,228.653,328.649,228.483Z" transform="translate(-77.977 -74.954)" fill="#4d8a8b"/>
      <g id="Group_12782" data-name="Group 12782" transform="translate(242.058 132.231)" opacity="0.5">
        <path id="Path_8896" data-name="Path 8896" d="M319,212.021l10.658-6.811.116.062c5.356,2.883,7.793,11.675,9.426,17.5.277,1.009.544,1.955.794,2.758,1.669,5.409,7.435,7.3,7.944,7.186l.2.384-11.372,7.543-.116-.071a25.886,25.886,0,0,1-11.684-17.334c-.777-4.883-5.748-10.961-5.8-11.024Zm10.711-6.3-10.086,6.445c.893,1.1,5.016,6.471,5.739,11.033a25.413,25.413,0,0,0,11.354,16.96l10.622-7.034a9.743,9.743,0,0,1-1.169-.411c-1.205-.527-5.266-2.562-6.632-7.007-.25-.812-.518-1.785-.8-2.767-1.6-5.748-4.017-14.344-9.1-17.218Z" transform="translate(-319 -205.21)" fill="#fff"/>
      </g>
      <path id="Path_8897" data-name="Path 8897" d="M263.073,161.518s-6.561,1.241-11.443-5.159c-3.017-3.954-9.935-10.765-13.264-8.926l-6.186,9.1a30.108,30.108,0,0,1,9.729,8.569c3.767,5.445,13.728,8.248,13.728,8.248Z" transform="translate(-67.618 -66.741)" fill="#4d8a8b"/>
      <g id="Group_12783" data-name="Group 12783" transform="translate(174.049 88.87)" opacity="0.4">
        <path id="Path_8898" data-name="Path 8898" d="M244.238,165.1a5.266,5.266,0,0,1,.812-7.917c2.3-1.482,6.052.241,7.543,2.544a4.963,4.963,0,0,1-1.491,6.855C248.79,168.073,246.1,167.109,244.238,165.1Z" transform="translate(-242.809 -156.632)" fill="#fff"/>
      </g>
      <path id="Path_8899" data-name="Path 8899" d="M245.207,163.428c.071-.054.25.062.518.286a5.784,5.784,0,0,0,1.151.794,2.24,2.24,0,0,0,.812.223,1.035,1.035,0,0,0,.741-.214.8.8,0,0,0,.295-.678,1.455,1.455,0,0,0-.527-.794c-.17-.152-.348-.312-.536-.5a2.794,2.794,0,0,1-.527-.714,1.956,1.956,0,0,1-.152-.473,1.614,1.614,0,0,1,0-.509,1.7,1.7,0,0,1,1.143-1.339,1.785,1.785,0,0,1,.785-.071,2.535,2.535,0,0,1,1.16.455,3.428,3.428,0,0,1,.678.661,3.73,3.73,0,0,1,.384.562c.179.321.232.527.17.571s-.241-.054-.518-.277a6.829,6.829,0,0,0-1.151-.8,2.044,2.044,0,0,0-.794-.2.705.705,0,0,0-.616.286.536.536,0,0,0-.116.3.4.4,0,0,0,0,.143.571.571,0,0,0,.071.17,3.936,3.936,0,0,0,.83.893,3.418,3.418,0,0,1,.553.652,1.785,1.785,0,0,1,.214.437,1.6,1.6,0,0,1,.1.491,1.874,1.874,0,0,1-.785,1.616,1.973,1.973,0,0,1-1.526.312,2.678,2.678,0,0,1-1.125-.473,3.757,3.757,0,0,1-1.071-1.214C245.189,163.678,245.144,163.508,245.207,163.428Z" transform="translate(-69.014 -68.062)" fill="#4d8a8b"/>
      <path id="Path_8900" data-name="Path 8900" d="M246.578,166.211a13.671,13.671,0,0,1,2.062-3.437,14.487,14.487,0,0,1,2.544-3.115,13.962,13.962,0,0,1-2.062,3.445A14.568,14.568,0,0,1,246.578,166.211Z" transform="translate(-69.163 -68.087)" fill="#4d8a8b"/>
      <path id="Path_8901" data-name="Path 8901" d="M245.878,165.5a11.479,11.479,0,0,1,1.857-3.142,11.694,11.694,0,0,1,2.33-2.8,11.579,11.579,0,0,1-1.848,3.142A11.854,11.854,0,0,1,245.878,165.5Z" transform="translate(-69.088 -68.076)" fill="#4d8a8b"/>
      <g id="Group_12784" data-name="Group 12784" transform="translate(166.017 81.29)" opacity="0.5">
        <path id="Path_8902" data-name="Path 8902" d="M233.81,156.4l5.659-8.257h.107c4.775.455,9.283,6.105,12.273,9.819.518.643,1,1.259,1.428,1.785a8.8,8.8,0,0,0,8.034,2.776l.268.223-5.963,9.006h-.107a20.45,20.45,0,0,1-13.862-9.024c-2.071-3.312-7.578-6.2-7.632-6.248Zm5.829-7.891-5.356,7.757c.982.536,5.659,3.169,7.6,6.248a20.182,20.182,0,0,0,13.523,8.873l5.57-8.417a6.648,6.648,0,0,1-.973.062,9.435,9.435,0,0,1-7.007-3.053c-.428-.509-.893-1.125-1.437-1.785C248.645,154.549,244.236,149.024,239.639,148.506Z" transform="translate(-233.81 -148.14)" fill="#fff"/>
      </g>
      <path id="Path_8903" data-name="Path 8903" d="M78.713,297.358S72.153,298.6,67.27,292.2c-3.017-3.954-9.935-10.765-13.264-8.926l-6.186,9.1a30.108,30.108,0,0,1,9.729,8.569c3.767,5.445,13.728,8.248,13.728,8.248Z" transform="translate(-47.82 -81.329)" fill="#4d8a8b"/>
      <g id="Group_12785" data-name="Group 12785" transform="translate(9.492 210.158)" opacity="0.4">
        <path id="Path_8904" data-name="Path 8904" d="M59.888,300.981a5.257,5.257,0,0,1,.812-7.917c2.3-1.482,6.052.241,7.534,2.544a4.963,4.963,0,0,1-1.491,6.855C64.44,303.918,61.744,302.954,59.888,300.981Z" transform="translate(-58.454 -292.512)" fill="#fff"/>
      </g>
      <path id="Path_8905" data-name="Path 8905" d="M60.856,299.268c.062-.054.241.063.509.286a5.786,5.786,0,0,0,1.151.794,2.241,2.241,0,0,0,.821.223,1.062,1.062,0,0,0,.741-.214.821.821,0,0,0,.286-.678,1.4,1.4,0,0,0-.527-.794c-.161-.152-.348-.312-.536-.5a2.776,2.776,0,0,1-.536-.678,1.634,1.634,0,0,1-.152-.473,1.393,1.393,0,0,1,0-.509,1.634,1.634,0,0,1,.4-.893,1.669,1.669,0,0,1,.741-.482,1.7,1.7,0,0,1,.777-.071,2.535,2.535,0,0,1,1.16.455,3.267,3.267,0,0,1,.687.661,3.572,3.572,0,0,1,.375.562c.179.321.241.527.179.58s-.25-.062-.527-.286a6.712,6.712,0,0,0-1.143-.8,2.125,2.125,0,0,0-.794-.2.75.75,0,0,0-.625.286.616.616,0,0,0-.116.3.384.384,0,0,0,0,.143.572.572,0,0,0,.071.17,3.936,3.936,0,0,0,.83.893,3.446,3.446,0,0,1,.562.652,2.848,2.848,0,0,1,.214.437,1.589,1.589,0,0,1,.089.491,1.883,1.883,0,0,1-.768,1.651,2.035,2.035,0,0,1-1.517.312,2.677,2.677,0,0,1-1.125-.482,3.57,3.57,0,0,1-1.107-1.259C60.838,299.491,60.785,299.313,60.856,299.268Z" transform="translate(-49.217 -82.649)" fill="#4d8a8b"/>
      <path id="Path_8906" data-name="Path 8906" d="M62.218,302.031a13.671,13.671,0,0,1,2.062-3.437,14.486,14.486,0,0,1,2.544-3.115,13.631,13.631,0,0,1-2.062,3.445A14.024,14.024,0,0,1,62.218,302.031Z" transform="translate(-49.365 -82.672)" fill="#4d8a8b"/>
      <path id="Path_8907" data-name="Path 8907" d="M61.528,301.344a11.3,11.3,0,0,1,1.848-3.142,11.936,11.936,0,0,1,2.33-2.8,11.579,11.579,0,0,1-1.848,3.142A11.709,11.709,0,0,1,61.528,301.344Z" transform="translate(-49.291 -82.664)" fill="#4d8a8b"/>
      <g id="Group_12786" data-name="Group 12786" transform="translate(1.455 202.56)" opacity="0.5">
        <path id="Path_8908" data-name="Path 8908" d="M49.45,292.239,55.118,284h.1c4.775.455,9.292,6.105,12.273,9.819.518.652,1,1.259,1.437,1.785a8.783,8.783,0,0,0,8.033,2.776l.268.223-5.954,9.006h-.116a20.45,20.45,0,0,1-13.9-9.051c-2.071-3.312-7.578-6.2-7.632-6.248Zm5.847-7.891L49.941,292.1c.982.536,5.65,3.169,7.587,6.248a20.146,20.146,0,0,0,13.541,8.855l5.561-8.417a6.591,6.591,0,0,1-.973.062,9.417,9.417,0,0,1-6.971-3.035c-.437-.509-.893-1.125-1.437-1.785C64.294,290.391,59.876,284.893,55.3,284.348Z" transform="translate(-49.45 -284)" fill="#fff"/>
      </g>
      <path id="Path_8909" data-name="Path 8909" d="M186.62,204.84s-2.437,7.944-12.309,9.613c-6.114,1.027-17.629,4.7-17.531,9.435l6.427,12.095a37.436,37.436,0,0,1,15.094-5.739c8.185-.991,17.049-10.345,17.049-10.345Z" transform="translate(-59.521 -72.939)" fill="#4d8a8b"/>
      <g id="Group_12787" data-name="Group 12787" transform="translate(110.079 143.053)" opacity="0.4">
        <path id="Path_8910" data-name="Path 8910" d="M179.4,229.666a6.534,6.534,0,0,1-8.239-5.481c-.3-3.4,3.767-6.534,7.141-6.828a6.186,6.186,0,0,1,6.695,5.623C185.3,226.381,182.691,228.783,179.4,229.666Z" transform="translate(-171.142 -217.334)" fill="#fff"/>
      </g>
      <path id="Path_8911" data-name="Path 8911" d="M178.1,228.056c0-.107.214-.232.625-.4a7.345,7.345,0,0,0,1.535-.8,2.6,2.6,0,0,0,.714-.777,1.277,1.277,0,0,0,.205-.937,1.027,1.027,0,0,0-.58-.705,1.714,1.714,0,0,0-1.187.116c-.259.089-.545.205-.893.295a3.124,3.124,0,0,1-1.08.161,2.33,2.33,0,0,1-.607-.1,1.785,1.785,0,0,1-.571-.295,2.008,2.008,0,0,1-.705-.946,2.08,2.08,0,0,1-.107-1.089,2.241,2.241,0,0,1,.375-.893A3.151,3.151,0,0,1,177,220.674a4.464,4.464,0,0,1,1.125-.375,5.356,5.356,0,0,1,.839-.089c.455,0,.714.045.732.143s-.205.241-.607.42a7.543,7.543,0,0,0-1.553.794,2.3,2.3,0,0,0-.678.759.893.893,0,0,0-.045.848.678.678,0,0,0,.259.3.571.571,0,0,0,.17.071.892.892,0,0,0,.232,0,5.257,5.257,0,0,0,1.437-.411,4.374,4.374,0,0,1,1.044-.241,2.677,2.677,0,0,1,.6,0,2,2,0,0,1,.607.187,2.357,2.357,0,0,1,1.33,1.785,2.508,2.508,0,0,1-.545,1.857,3.347,3.347,0,0,1-1.178.964,4.463,4.463,0,0,1-1.955.473C178.374,228.217,178.115,228.145,178.1,228.056Z" transform="translate(-61.523 -74.589)" fill="#4d8a8b"/>
      <path id="Path_8912" data-name="Path 8912" d="M182.051,228.2c-.179.1-1.339-1.785-2.6-4.267s-2.124-4.517-1.946-4.606,1.348,1.785,2.6,4.267S182.229,228.113,182.051,228.2Z" transform="translate(-61.745 -74.495)" fill="#4d8a8b"/>
      <path id="Path_8913" data-name="Path 8913" d="M180.861,228.621c-.179.1-1.25-1.633-2.383-3.856s-1.919-4.106-1.741-4.2,1.25,1.633,2.392,3.856S181.039,228.532,180.861,228.621Z" transform="translate(-61.662 -74.628)" fill="#4d8a8b"/>
      <g id="Group_12788" data-name="Group 12788" transform="translate(98.446 134.418)" opacity="0.5">
        <path id="Path_8914" data-name="Path 8914" d="M163.921,234.536,158.11,223.5l.071-.107c3.276-4.99,12.122-6.686,17.968-7.81,1.009-.2,1.955-.375,2.767-.553,5.445-1.2,7.784-6.695,7.712-7.2l.4-.17,6.462,11.791-.08.116a25.538,25.538,0,0,1-18,10.042c-4.856.348-11.229,4.74-11.292,4.784Zm-5.3-11.006,5.463,10.363c1.151-.768,6.766-4.392,11.309-4.722a25.091,25.091,0,0,0,17.584-9.747l-6.034-11.015a8.818,8.818,0,0,1-.5,1.116c-.607,1.143-2.946,4.954-7.427,5.936-.821.179-1.785.357-2.785.553C170.508,217.122,161.85,218.773,158.619,223.531Z" transform="translate(-158.11 -207.66)" fill="#fff"/>
      </g>
      <path id="Path_8915" data-name="Path 8915" d="M124.673,179.176s-8.167,6.445-19.521,1.125c-7.025-3.294-21.485-7.712-24.761-2.776L78.4,194.555a46.933,46.933,0,0,1,19.637,4.838c9.122,4.8,24.913,1.5,24.913,1.5Z" transform="translate(-51.104 -69.768)" fill="#4d8a8b"/>
      <g id="Group_12789" data-name="Group 12789" transform="translate(42.316 112.598)" opacity="0.4">
        <path id="Path_8916" data-name="Path 8916" d="M100.728,197.956a8.194,8.194,0,0,1-4.579-11.515c2.124-3.713,8.542-4.035,12.247-1.919a7.73,7.73,0,0,1,2.883,10.551C109.163,198.778,104.754,199.394,100.728,197.956Z" transform="translate(-95.227 -183.215)" fill="#fff"/>
      </g>
      <path id="Path_8917" data-name="Path 8917" d="M100.909,195.084c.054-.116.384-.08.893,0a9.035,9.035,0,0,0,2.16.268,3.312,3.312,0,0,0,1.285-.286,1.651,1.651,0,0,0,.893-.821,1.285,1.285,0,0,0-.089-1.143,2.187,2.187,0,0,0-1.3-.723c-.339-.1-.705-.179-1.1-.312a4.347,4.347,0,0,1-1.232-.6,3.2,3.2,0,0,1-.553-.544,2.5,2.5,0,0,1-.437-2.187,2.722,2.722,0,0,1,1.7-1.857,3.963,3.963,0,0,1,1.937-.2,5.356,5.356,0,0,1,1.419.42,7.07,7.07,0,0,1,.893.5c.482.321.705.562.652.669s-.375.1-.893,0a10.058,10.058,0,0,0-2.16-.277,2.946,2.946,0,0,0-1.241.295,1.125,1.125,0,0,0-.643.839.893.893,0,0,0,0,.5.955.955,0,0,0,.134.2,1.044,1.044,0,0,0,.205.187,6.65,6.65,0,0,0,1.785.607,5.7,5.7,0,0,1,1.232.491,4.144,4.144,0,0,1,.616.446,2.759,2.759,0,0,1,.491.625,2.937,2.937,0,0,1,.08,2.794,3.124,3.124,0,0,1-1.883,1.535,4.409,4.409,0,0,1-1.892.152,5.748,5.748,0,0,1-2.356-.893C101.07,195.45,100.855,195.191,100.909,195.084Z" transform="translate(-53.52 -70.985)" fill="#4d8a8b"/>
      <path id="Path_8918" data-name="Path 8918" d="M104.985,197.882c-.259,0-.089-2.83.366-6.248s1.027-6.159,1.276-6.123.089,2.83-.366,6.248S105.244,197.917,104.985,197.882Z" transform="translate(-53.946 -70.863)" fill="#4d8a8b"/>
      <path id="Path_8919" data-name="Path 8919" d="M103.485,197.459c-.25,0-.125-2.571.295-5.668s.955-5.588,1.205-5.561.116,2.58-.295,5.677S103.735,197.495,103.485,197.459Z" transform="translate(-53.784 -70.94)" fill="#4d8a8b"/>
      <g id="Group_12790" data-name="Group 12790" transform="translate(29.135 107.014)" opacity="0.5">
        <path id="Path_8920" data-name="Path 8920" d="M80.46,193.33l1.874-15.442.143-.054c6.927-2.812,17.236,1.785,24.1,4.749,1.169.527,2.285,1.009,3.249,1.41,6.445,2.678,12.773-1.348,13.059-1.928l.527.116-1.785,16.736-.161.054A31.947,31.947,0,0,1,95.8,196.5c-5.249-3.1-14.933-3.124-15.032-3.124Zm2.374-15.094-1.785,14.55c1.732,0,10.1.3,15,3.2a31.438,31.438,0,0,0,25.065,2.49l1.633-15.63a10.167,10.167,0,0,1-1.312.786c-1.437.75-6.561,3-11.872.821-.964-.393-2.08-.893-3.258-1.41C99.624,180.093,89.547,175.639,82.834,178.236Z" transform="translate(-80.46 -176.958)" fill="#fff"/>
      </g>
      <path id="Path_8921" data-name="Path 8921" d="M201.014,57.07s1.143,9.1-8.033,15.246c-5.695,3.811-15.621,12.711-13.389,17.442l11.934,9.256A41.426,41.426,0,0,1,204.111,86.4c7.793-4.7,12.5-18.129,12.5-18.129Z" transform="translate(-61.936 -57.07)" fill="#4d8a8b"/>
      <g id="Group_12791" data-name="Group 12791" transform="translate(129.505 14.835)" opacity="0.4">
        <path id="Path_8922" data-name="Path 8922" d="M204.281,86.463A7.23,7.23,0,0,1,193.5,84.678c-1.839-3.294.893-8.283,4.133-10.122a6.828,6.828,0,0,1,9.283,2.624C208.753,80.474,207.2,84.08,204.281,86.463Z" transform="translate(-192.905 -73.689)" fill="#fff"/>
      </g>
      <path id="Path_8923" data-name="Path 8923" d="M202.068,85.685c-.062-.089.116-.321.446-.678A8.445,8.445,0,0,0,203.7,83.5a3.008,3.008,0,0,0,.366-1.1,1.455,1.455,0,0,0-.223-1.035,1.116,1.116,0,0,0-.893-.455,1.928,1.928,0,0,0-1.143.652c-.223.214-.455.455-.732.7a4.071,4.071,0,0,1-1.018.652,2.874,2.874,0,0,1-.661.17,2.071,2.071,0,0,1-.705,0,2.285,2.285,0,0,1-1.143-.634,2.33,2.33,0,0,1-.6-1.044,2.625,2.625,0,0,1,0-1.08,3.571,3.571,0,0,1,.732-1.553,4.7,4.7,0,0,1,.964-.893,5.578,5.578,0,0,1,.8-.473c.464-.223.741-.286.8-.2s-.1.339-.428.7a9.051,9.051,0,0,0-1.2,1.509,2.553,2.553,0,0,0-.339,1.071,1,1,0,0,0,.339.893.8.8,0,0,0,.4.187.821.821,0,0,0,.205,0,.893.893,0,0,0,.232-.071,5.8,5.8,0,0,0,1.268-1.071,5.357,5.357,0,0,1,.893-.714,3.7,3.7,0,0,1,.616-.25,2.33,2.33,0,0,1,.7-.089,2.607,2.607,0,0,1,2.151,1.214,2.731,2.731,0,0,1,.295,2.115,3.749,3.749,0,0,1-.741,1.5,5.186,5.186,0,0,1-1.785,1.366C202.416,85.739,202.13,85.783,202.068,85.685Z" transform="translate(-63.829 -59.228)" fill="#4d8a8b"/>
      <path id="Path_8924" data-name="Path 8924" d="M205.965,84.28c-.143.17-2.178-1.223-4.552-3.124s-4.186-3.57-4.044-3.758,2.178,1.223,4.552,3.124S206.126,84.1,205.965,84.28Z" transform="translate(-63.879 -59.251)" fill="#4d8a8b"/>
      <path id="Path_8925" data-name="Path 8925" d="M204.981,85.246c-.134.179-2-1.08-4.151-2.8s-3.811-3.276-3.642-3.445,2,1.089,4.151,2.812S205.124,85.068,204.981,85.246Z" transform="translate(-63.859 -59.423)" fill="#4d8a8b"/>
      <g id="Group_12792" data-name="Group 12792" transform="translate(118.548 2.473)" opacity="0.5">
        <path id="Path_8926" data-name="Path 8926" d="M191.466,97.294,180.63,88.823V88.68c1.044-6.507,9.167-12.22,14.55-16,.893-.652,1.785-1.268,2.544-1.785,4.936-3.669,4.793-10.265,4.463-10.711l.321-.348,11.845,8.926v.143a28.144,28.144,0,0,1-13.559,18.254c-4.731,2.553-9.158,9.819-9.2,9.926Zm-10.319-8.676,10.194,7.962c.8-1.3,4.82-7.489,9.239-9.881a27.671,27.671,0,0,0,13.291-17.79l-11.059-8.355a8.161,8.161,0,0,1,0,1.348c-.089,1.428-.723,6.329-4.784,9.337-.741.553-1.625,1.169-2.553,1.785C190.2,76.782,182.255,82.369,181.148,88.618Z" transform="translate(-180.63 -59.84)" fill="#fff"/>
      </g>
    </g>
    <g id="freepik--Money--inject-71" transform="translate(72.164 375.806)">
      <rect id="Rectangle_27000" data-name="Rectangle 27000" width="47.005" height="10.167" transform="translate(268.774 10.06)" fill="#263238"/>
      <path id="Path_8927" data-name="Path 8927" d="M400.03,425.67l.777,10.167h6.632l.348-10.167Z" transform="translate(-112.591 -415.61)" fill="#e0e0e0"/>
      <rect id="Rectangle_27001" data-name="Rectangle 27001" width="47.005" height="10.167" transform="translate(257.375 10.06)" fill="#455a64"/>
      <path id="Path_8928" data-name="Path 8928" d="M413.22,427.422c0,.134-10.452.232-23.351.232s-23.36-.1-23.36-.232,10.452-.232,23.36-.232S413.22,427.3,413.22,427.422Z" transform="translate(-108.992 -415.773)" fill="#263238"/>
      <path id="Path_8929" data-name="Path 8929" d="M413.2,430.032c0,.125-10.452.232-23.351.232s-23.36-.107-23.36-.232,10.461-.232,23.36-.232S413.2,429.907,413.2,430.032Z" transform="translate(-108.99 -416.054)" fill="#263238"/>
      <path id="Path_8930" data-name="Path 8930" d="M413.2,432.642c0,.125-10.452.232-23.351.232s-23.36-.107-23.36-.232,10.461-.232,23.36-.232S413.2,432.508,413.2,432.642Z" transform="translate(-108.99 -416.334)" fill="#263238"/>
      <path id="Path_8931" data-name="Path 8931" d="M413.2,435.242c0,.134-10.452.232-23.351.232s-23.36-.1-23.36-.232,10.461-.232,23.36-.232S413.2,435.117,413.2,435.242Z" transform="translate(-108.99 -416.613)" fill="#263238"/>
      <path id="Path_8932" data-name="Path 8932" d="M387.25,425.67l.777,10.167h6.641l.339-10.167Z" transform="translate(-111.219 -415.61)" fill="#e0e0e0"/>
      <rect id="Rectangle_27002" data-name="Rectangle 27002" width="47.005" height="10.167" transform="translate(274.478)" fill="#263238"/>
      <path id="Path_8933" data-name="Path 8933" d="M406.42,414.4l.777,10.167h6.632l.348-10.167Z" transform="translate(-113.278 -414.4)" fill="#e0e0e0"/>
      <rect id="Rectangle_27003" data-name="Rectangle 27003" width="47.005" height="10.167" transform="translate(263.079)" fill="#455a64"/>
      <path id="Path_8934" data-name="Path 8934" d="M419.61,416.162c0,.125-10.461.232-23.351.232s-23.36-.107-23.36-.232,10.452-.232,23.36-.232S419.61,415.992,419.61,416.162Z" transform="translate(-109.678 -414.564)" fill="#263238"/>
      <path id="Path_8935" data-name="Path 8935" d="M419.59,418.762c0,.134-10.452.232-23.351.232s-23.36-.1-23.36-.232,10.461-.232,23.36-.232S419.59,418.637,419.59,418.762Z" transform="translate(-109.676 -414.844)" fill="#263238"/>
      <path id="Path_8936" data-name="Path 8936" d="M419.59,421.372c0,.125-10.452.232-23.351.232s-23.36-.107-23.36-.232,10.461-.232,23.36-.232S419.59,421.247,419.59,421.372Z" transform="translate(-109.676 -415.124)" fill="#263238"/>
      <path id="Path_8937" data-name="Path 8937" d="M419.59,423.972c0,.125-10.452.232-23.351.232s-23.36-.107-23.36-.232,10.461-.232,23.36-.232S419.59,423.847,419.59,423.972Z" transform="translate(-109.676 -415.403)" fill="#263238"/>
      <path id="Path_8938" data-name="Path 8938" d="M393.64,414.4l.777,10.167h6.632L401.4,414.4Z" transform="translate(-111.905 -414.4)" fill="#e0e0e0"/>
      <rect id="Rectangle_27004" data-name="Rectangle 27004" width="47.005" height="10.167" transform="translate(271.291 30.286)" fill="#263238"/>
      <path id="Path_8939" data-name="Path 8939" d="M402.84,448.32l.777,10.176h6.641l.339-10.176Z" transform="translate(-112.893 -418.043)" fill="#e0e0e0"/>
      <rect id="Rectangle_27005" data-name="Rectangle 27005" width="47.005" height="10.167" transform="translate(259.884 30.277)" fill="#455a64"/>
      <path id="Path_8940" data-name="Path 8940" d="M416.03,450.082c0,.134-10.452.232-23.351.232s-23.36-.1-23.36-.232,10.461-.232,23.36-.232S416.03,449.984,416.03,450.082Z" transform="translate(-109.294 -418.207)" fill="#263238"/>
      <path id="Path_8941" data-name="Path 8941" d="M416.02,452.692c0,.125-10.461.232-23.36.232s-23.351-.107-23.351-.232,10.452-.232,23.351-.232S416.02,452.558,416.02,452.692Z" transform="translate(-109.292 -418.487)" fill="#263238"/>
      <path id="Path_8942" data-name="Path 8942" d="M416.02,455.292c0,.134-10.461.241-23.36.241s-23.351-.107-23.351-.241,10.452-.232,23.351-.232S416.02,455.167,416.02,455.292Z" transform="translate(-109.292 -418.766)" fill="#263238"/>
      <path id="Path_8943" data-name="Path 8943" d="M416.02,457.9c0,.134-10.461.232-23.36.232s-23.351-.1-23.351-.232,10.452-.232,23.351-.232S416.02,457.777,416.02,457.9Z" transform="translate(-109.292 -419.047)" fill="#263238"/>
      <path id="Path_8944" data-name="Path 8944" d="M390.07,448.32l.777,10.176h6.632l.339-10.176Z" transform="translate(-111.522 -418.043)" fill="#e0e0e0"/>
      <rect id="Rectangle_27006" data-name="Rectangle 27006" width="47.005" height="10.167" transform="translate(276.995 20.227)" fill="#263238"/>
      <path id="Path_8945" data-name="Path 8945" d="M409.23,437.06l.777,10.167h6.641l.339-10.167Z" transform="translate(-113.579 -416.833)" fill="#e0e0e0"/>
      <rect id="Rectangle_27007" data-name="Rectangle 27007" width="47.005" height="10.167" transform="translate(265.587 20.227)" fill="#455a64"/>
      <path id="Path_8946" data-name="Path 8946" d="M422.38,438.812c0,.134-10.452.241-23.351.241s-23.36-.107-23.36-.241,10.461-.232,23.36-.232S422.38,438.687,422.38,438.812Z" transform="translate(-109.975 -416.997)" fill="#263238"/>
      <path id="Path_8947" data-name="Path 8947" d="M422.381,441.422c0,.134-10.452.232-23.351.232s-23.351-.1-23.351-.232,10.452-.232,23.351-.232S422.381,441.3,422.381,441.422Z" transform="translate(-109.977 -417.277)" fill="#263238"/>
      <path id="Path_8948" data-name="Path 8948" d="M422.381,444.032c0,.125-10.452.232-23.351.232s-23.351-.107-23.351-.232,10.452-.232,23.351-.232S422.381,443.9,422.381,444.032Z" transform="translate(-109.977 -417.557)" fill="#263238"/>
      <path id="Path_8949" data-name="Path 8949" d="M422.381,446.632c0,.134-10.452.241-23.351.241s-23.351-.107-23.351-.241,10.452-.232,23.351-.232S422.381,446.507,422.381,446.632Z" transform="translate(-109.977 -417.836)" fill="#263238"/>
      <path id="Path_8950" data-name="Path 8950" d="M396.45,437.06l.777,10.167h6.641l.339-10.167Z" transform="translate(-112.207 -416.833)" fill="#e0e0e0"/>
      <rect id="Rectangle_27008" data-name="Rectangle 27008" width="47.005" height="10.167" transform="translate(239.666 20.119)" fill="#4d8a8b"/>
      <rect id="Rectangle_27009" data-name="Rectangle 27009" width="47.005" height="10.167" transform="translate(239.666 20.119)" opacity="0.2"/>
      <path id="Path_8951" data-name="Path 8951" d="M367.42,436.94l.777,10.167h6.632l.348-10.167Z" transform="translate(-109.09 -416.821)" fill="#e0e0e0"/>
      <rect id="Rectangle_27010" data-name="Rectangle 27010" width="47.005" height="10.167" transform="translate(234.507 30.286)" fill="#4d8a8b"/>
      <rect id="Rectangle_27011" data-name="Rectangle 27011" width="47.005" height="10.167" transform="translate(234.507 30.286)" opacity="0.2"/>
      <path id="Path_8952" data-name="Path 8952" d="M361.64,448.32l.768,10.176h6.641l.339-10.176Z" transform="translate(-108.469 -418.043)" fill="#e0e0e0"/>
      <rect id="Rectangle_27012" data-name="Rectangle 27012" width="47.005" height="10.167" transform="translate(223.099 30.286)" fill="#4d8a8b"/>
      <g id="Group_12793" data-name="Group 12793" transform="translate(223.251 31.643)" opacity="0.2">
        <path id="Path_8953" data-name="Path 8953" d="M374.83,450.082c0,.134-10.461.232-23.36.232s-23.351-.1-23.351-.232,10.452-.232,23.351-.232S374.83,449.984,374.83,450.082Z" transform="translate(-328.12 -449.85)"/>
      </g>
      <g id="Group_12794" data-name="Group 12794" transform="translate(223.233 33.973)" opacity="0.2">
        <path id="Path_8954" data-name="Path 8954" d="M374.81,452.692c0,.125-10.461.232-23.351.232s-23.36-.107-23.36-.232,10.452-.232,23.36-.232S374.81,452.558,374.81,452.692Z" transform="translate(-328.1 -452.46)"/>
      </g>
      <g id="Group_12795" data-name="Group 12795" transform="translate(223.233 36.294)" opacity="0.2">
        <path id="Path_8955" data-name="Path 8955" d="M374.81,455.292c0,.134-10.461.241-23.351.241s-23.36-.107-23.36-.241,10.452-.232,23.36-.232S374.81,455.167,374.81,455.292Z" transform="translate(-328.1 -455.06)"/>
      </g>
      <g id="Group_12796" data-name="Group 12796" transform="translate(223.233 38.623)" opacity="0.2">
        <path id="Path_8956" data-name="Path 8956" d="M374.81,457.9c0,.134-10.461.232-23.351.232s-23.36-.1-23.36-.232,10.452-.232,23.36-.232S374.81,457.777,374.81,457.9Z" transform="translate(-328.1 -457.67)"/>
      </g>
      <path id="Path_8957" data-name="Path 8957" d="M348.86,448.32l.777,10.176h6.632l.348-10.176Z" transform="translate(-107.096 -418.043)" fill="#e0e0e0"/>
      <rect id="Rectangle_27013" data-name="Rectangle 27013" width="47.005" height="10.167" transform="translate(229.883 20.119)" fill="#4d8a8b"/>
      <g id="Group_12797" data-name="Group 12797" transform="translate(230.035 21.476)" opacity="0.2">
        <path id="Path_8958" data-name="Path 8958" d="M382.43,438.692c0,.134-10.461.232-23.351.232s-23.36-.1-23.36-.232,10.452-.232,23.36-.232S382.43,438.567,382.43,438.692Z" transform="translate(-335.72 -438.46)"/>
      </g>
      <g id="Group_12798" data-name="Group 12798" transform="translate(229.99 23.806)" opacity="0.2">
        <path id="Path_8959" data-name="Path 8959" d="M382.38,441.3c0,.125-10.452.232-23.351.232s-23.36-.107-23.36-.232,10.452-.232,23.36-.232S382.38,441.168,382.38,441.3Z" transform="translate(-335.67 -441.07)"/>
      </g>
      <g id="Group_12799" data-name="Group 12799" transform="translate(229.99 26.136)" opacity="0.2">
        <path id="Path_8960" data-name="Path 8960" d="M382.38,443.912c0,.125-10.452.232-23.351.232s-23.36-.107-23.36-.232,10.452-.232,23.36-.232S382.38,443.778,382.38,443.912Z" transform="translate(-335.67 -443.68)"/>
      </g>
      <g id="Group_12800" data-name="Group 12800" transform="translate(229.99 28.456)" opacity="0.2">
        <path id="Path_8961" data-name="Path 8961" d="M382.38,446.512c0,.134-10.452.232-23.351.232s-23.36-.1-23.36-.232,10.452-.232,23.36-.232S382.38,446.387,382.38,446.512Z" transform="translate(-335.67 -446.28)"/>
      </g>
      <path id="Path_8962" data-name="Path 8962" d="M356.46,436.94l.777,10.167h6.632l.348-10.167Z" transform="translate(-107.913 -416.821)" fill="#e0e0e0"/>
      <rect id="Rectangle_27014" data-name="Rectangle 27014" width="47.005" height="10.167" transform="translate(17.129 30.286)" fill="#263238"/>
      <path id="Path_8963" data-name="Path 8963" d="M118.1,448.32l.777,10.176h6.641l.339-10.176Z" transform="translate(-82.315 -418.043)" fill="#e0e0e0"/>
      <rect id="Rectangle_27015" data-name="Rectangle 27015" width="47.005" height="10.167" transform="translate(5.722 30.277)" fill="#455a64"/>
      <path id="Path_8964" data-name="Path 8964" d="M131.29,450.082c0,.134-10.452.232-23.351.232s-23.36-.1-23.36-.232,10.461-.232,23.36-.232S131.29,449.984,131.29,450.082Z" transform="translate(-78.716 -418.207)" fill="#263238"/>
      <path id="Path_8965" data-name="Path 8965" d="M131.271,452.692c0,.125-10.452.232-23.351.232s-23.351-.107-23.351-.232,10.452-.232,23.351-.232S131.271,452.558,131.271,452.692Z" transform="translate(-78.714 -418.487)" fill="#263238"/>
      <path id="Path_8966" data-name="Path 8966" d="M131.271,455.292c0,.134-10.452.241-23.351.241s-23.351-.107-23.351-.241,10.452-.232,23.351-.232S131.271,455.167,131.271,455.292Z" transform="translate(-78.714 -418.766)" fill="#263238"/>
      <path id="Path_8967" data-name="Path 8967" d="M131.271,457.9c0,.134-10.452.232-23.351.232s-23.351-.1-23.351-.232,10.452-.232,23.351-.232S131.271,457.777,131.271,457.9Z" transform="translate(-78.714 -419.047)" fill="#263238"/>
      <path id="Path_8968" data-name="Path 8968" d="M105.32,448.32,106.1,458.5h6.641l.339-10.176Z" transform="translate(-80.943 -418.043)" fill="#f5f5f5"/>
      <rect id="Rectangle_27016" data-name="Rectangle 27016" width="47.005" height="10.167" transform="translate(11.408 20.227)" fill="#263238"/>
      <path id="Path_8969" data-name="Path 8969" d="M111.7,437.06l.768,10.167h6.641l.348-10.167Z" transform="translate(-81.628 -416.833)" fill="#e0e0e0"/>
      <rect id="Rectangle_27017" data-name="Rectangle 27017" width="47.005" height="10.167" transform="translate(0 20.227)" fill="#455a64"/>
      <path id="Path_8970" data-name="Path 8970" d="M124.89,438.812c0,.134-10.461.241-23.36.241s-23.351-.107-23.351-.241,10.452-.232,23.351-.232S124.89,438.687,124.89,438.812Z" transform="translate(-78.028 -416.997)" fill="#263238"/>
      <path id="Path_8971" data-name="Path 8971" d="M124.87,441.422c0,.134-10.461.232-23.36.232s-23.351-.1-23.351-.232,10.452-.232,23.351-.232S124.87,441.3,124.87,441.422Z" transform="translate(-78.026 -417.277)" fill="#263238"/>
      <path id="Path_8972" data-name="Path 8972" d="M124.87,444.032c0,.125-10.461.232-23.36.232s-23.351-.107-23.351-.232,10.452-.232,23.351-.232S124.87,443.9,124.87,444.032Z" transform="translate(-78.026 -417.557)" fill="#263238"/>
      <path id="Path_8973" data-name="Path 8973" d="M124.87,446.632c0,.134-10.461.241-23.36.241s-23.351-.107-23.351-.241,10.452-.232,23.351-.232S124.87,446.507,124.87,446.632Z" transform="translate(-78.026 -417.836)" fill="#263238"/>
      <path id="Path_8974" data-name="Path 8974" d="M98.92,437.06l.777,10.167h6.632l.348-10.167Z" transform="translate(-80.256 -416.833)" fill="#f5f5f5"/>
    </g>
  </g>
</svg>
