<svg id="Iconly_Light_Delete" data-name="Iconly/Light/Delete" xmlns="http://www.w3.org/2000/svg" width="8" height="8" viewBox="0 0 8 8">
  <g id="Delete" transform="translate(1.25 0.917)">
    <path id="Stroke_1" data-name="Stroke 1" d="M4.73,0s-.181,2.245-.286,3.191a.746.746,0,0,1-.786.725c-.87.016-1.74.017-2.61,0a.738.738,0,0,1-.763-.721C.18,2.239,0,0,0,0" transform="translate(0.461 2.239)" fill="none" stroke="#fff" stroke-linecap="round" stroke-linejoin="round" stroke-miterlimit="10" stroke-width="0.75"/>
    <path id="Stroke_3" data-name="Stroke 3" d="M5.653.5H0" transform="translate(0 0.663)" fill="none" stroke="#fff" stroke-linecap="round" stroke-linejoin="round" stroke-miterlimit="10" stroke-width="0.75"/>
    <path id="Stroke_5" data-name="Stroke 5" d="M3.474,1.163A.549.549,0,0,1,2.936.722L2.855.316A.427.427,0,0,0,2.443,0H1.032A.427.427,0,0,0,.619.316L.538.722A.549.549,0,0,1,0,1.163" transform="translate(1.089)" fill="none" stroke="#fff" stroke-linecap="round" stroke-linejoin="round" stroke-miterlimit="10" stroke-width="0.75"/>
  </g>
</svg>
