<svg xmlns="http://www.w3.org/2000/svg" width="29.174" height="27.993" viewBox="0 0 29.174 27.993">
  <path id="shapes-and-symbols_1_" data-name="shapes-and-symbols (1)" d="M.074,10.68A1.492,1.492,0,0,1,1.361,9.651l8.12-.737L12.692,1.4a1.5,1.5,0,0,1,2.75,0l3.211,7.514,8.121.737a1.5,1.5,0,0,1,.849,2.617l-6.138,5.383,1.81,7.973a1.493,1.493,0,0,1-2.224,1.615l-7-4.186-7,4.186A1.5,1.5,0,0,1,4.84,25.623l1.81-7.973L.512,12.269a1.5,1.5,0,0,1-.439-1.589Zm0,0" transform="translate(0.52 0.009)" fill="#fff" stroke="#707070" stroke-width="1"/>
</svg>
