<svg xmlns="http://www.w3.org/2000/svg" width="31.5" height="31.5" viewBox="0 0 31.5 31.5">
  <g id="Group_81" data-name="Group 81" transform="translate(0.5 0.5)">
    <path id="Path_365" data-name="Path 365" d="M15.25,0A15.25,15.25,0,1,1,0,15.25,15.25,15.25,0,0,1,15.25,0Z" fill="none" stroke="#fff" stroke-linecap="round" stroke-width="1"/>
    <path id="Path_202" data-name="Path 202" d="M9.683,12.688c-.572,1.79-.08,4.665,3.558,6.721s4.35,1.583,4.666,1.9-.711.237-.554-.712-.474-.814-.949-.841-.633-.978-.475-1.53-.79.711-1.5-.475a1.281,1.281,0,0,1,1.5-1.9c2.61.79,2.2-1.6,4.27-3.163,3.875-2.926-1.818-4.586-4.744-5.061s-7,.711-6.029,1.818S9.822,12.251,9.683,12.688Z" transform="translate(-3.79 -3.197)" fill="none" stroke="#fff" stroke-linecap="round" stroke-linejoin="round" stroke-miterlimit="10" stroke-width="1"/>
    <path id="Path_203" data-name="Path 203" d="M23.129,29.793c-.237,1.819-1.977.237,0,2.056s2.451-1.975,2.213,2.136-3.716,4.507-.949,3.636,2.293-.157,4.35-2.213,2.372-3.164,3.48-4.824-.711-1.019-1.977-2.214-3.321-3.875-4.982-2.136A9.028,9.028,0,0,0,23.129,29.793Z" transform="translate(-8.142 -9.31)" fill="none" stroke="#fff" stroke-linecap="round" stroke-linejoin="round" stroke-miterlimit="10" stroke-width="1"/>
    <path id="Path_204" data-name="Path 204" d="M30.493,1.934A7.627,7.627,0,0,0,32.3,6.907c1.361,1.29,5.707,2.446,5.843,4.076s1.97,2.854,1.291,4.417-1.946,3.675-.408,4.96,1.829.367,1.829.367" transform="translate(-10.936 -1.315)" fill="none" stroke="#fff" stroke-linecap="round" stroke-linejoin="round" stroke-miterlimit="10" stroke-width="1"/>
  </g>
</svg>
