<svg xmlns="http://www.w3.org/2000/svg" width="19.222" height="17.757" viewBox="0 0 19.222 17.757">
  <g id="Group_12814" data-name="Group 12814" transform="translate(-220.389 -648.378)">
    <path id="Path_18" data-name="Path 18" d="M4.484,22.058a3.529,3.529,0,0,0,3.459-4.235A3.614,3.614,0,0,0,4.357,15H3.249v7.058Z" transform="translate(230.986 641.359)" fill="none" stroke="#222831" stroke-linecap="round" stroke-linejoin="round" stroke-width="1.2"/>
    <path id="Path_19" data-name="Path 19" d="M25.53,22.058a3.529,3.529,0,0,1-3.459-4.235A3.614,3.614,0,0,1,25.657,15h1.108v7.058Z" transform="translate(199 641.359)" fill="none" stroke="#222831" stroke-linecap="round" stroke-linejoin="round" stroke-width="1.2"/>
    <path id="Path_20" data-name="Path 20" d="M19.7,11.933V11.1a6.43,6.43,0,0,0-4.877-6.352A6.352,6.352,0,0,0,7,10.952v.981" transform="translate(216.648 644.426)" fill="none" stroke="#222831" stroke-linecap="round" stroke-linejoin="round" stroke-width="1.2"/>
    <path id="Path_21" data-name="Path 21" d="M12.117,25h0A2.117,2.117,0,0,1,10,27.117" transform="translate(222.117 638.417)" fill="none" stroke="#222831" stroke-linecap="round" stroke-linejoin="round" stroke-width="1.2"/>
    <line id="Line_19" data-name="Line 19" y2="6.352" transform="translate(236 656.712)" fill="none" stroke="#222831" stroke-linecap="round" stroke-linejoin="round" stroke-width="1.2"/>
  </g>
</svg>
