<svg xmlns="http://www.w3.org/2000/svg" width="25.075" height="23.368" viewBox="0 0 25.075 23.368">
  <g id="box_1_" data-name="box (1)" transform="translate(-9 -25.634)">
    <path id="Path_8979" data-name="Path 8979" d="M32.548,35.7H31.284a1.245,1.245,0,0,0-1.189-.914h-1.35v-3.3a.348.348,0,0,0-.17-.308l-9.521-5.5a.352.352,0,0,0-.353,0l-9.524,5.5A.354.354,0,0,0,9,31.489v11a.355.355,0,0,0,.178.308l9.525,5.5a.355.355,0,0,0,.178.048.374.374,0,0,0,.183-.048L24.076,45.4v2.09A1.5,1.5,0,0,0,25.593,49h6.955a1.513,1.513,0,0,0,1.527-1.508V37.235A1.533,1.533,0,0,0,32.548,35.7Zm-2.44-.2a.516.516,0,0,1,.516.516v.034a.516.516,0,0,1-.516.516H28.043a.516.516,0,0,1-.516-.516v-.034a.516.516,0,0,1,.516-.516ZM18.881,26.4l3.958,2.285-8.814,5.089-3.958-2.285Zm-.338,20.972L9.711,42.282V32.1l8.832,5.089Zm.338-10.794-4.145-2.393,8.814-5.089,4.146,2.393Zm5.2.658v7.348l-4.822,2.788V37.192L28.035,32.1v2.686h.011a1.245,1.245,0,0,0-1.189.914H25.593A1.525,1.525,0,0,0,24.076,37.235Zm9.289,10.259a.8.8,0,0,1-.816.8H25.593a.793.793,0,0,1-.807-.8V37.235a.813.813,0,0,1,.807-.821h1.278a1.215,1.215,0,0,0,1.175.863H30.1a1.215,1.215,0,0,0,1.175-.863h1.278a.822.822,0,0,1,.816.821Z" transform="translate(0 0)"/>
    <path id="Path_8980" data-name="Path 8980" d="M337.353,280.386h.372a.355.355,0,0,0,0-.711h-.014v-.964h.98a.342.342,0,0,0,.338.24.356.356,0,0,0,.357-.354v-.239a.36.36,0,0,0-.359-.357h-1.674a.355.355,0,0,0-.353.357v1.674a.353.353,0,0,0,.353.355Z" transform="translate(-311.351 -239.556)"/>
    <path id="Path_8981" data-name="Path 8981" d="M337.355,344.386h1.675a.355.355,0,0,0,.355-.355v-1.675a.355.355,0,0,0-.355-.355h-1.675a.355.355,0,0,0-.355.355v1.675A.355.355,0,0,0,337.355,344.386Zm.355-1.675h.964v.964h-.964Z" transform="translate(-311.351 -300.308)"/>
    <path id="Path_8982" data-name="Path 8982" d="M337.724,407.675h-.014v-.964h.961a.357.357,0,1,0,.714,0v-.342a.371.371,0,0,0-.359-.369h-1.674a.365.365,0,0,0-.353.369v1.674a.343.343,0,0,0,.353.343h.372a.355.355,0,0,0,0-.711Z" transform="translate(-311.35 -361.059)"/>
    <path id="Path_8983" data-name="Path 8983" d="M356.318,284.643l-1.041,1.041-.317-.317a.355.355,0,1,0-.5.5l.568.568a.355.355,0,0,0,.5,0l1.292-1.292a.355.355,0,0,0-.5-.5Z" transform="translate(-327.825 -245.763)"/>
    <path id="Path_8984" data-name="Path 8984" d="M356.318,413.892l-1.041,1.041-.317-.317a.355.355,0,0,0-.5.5l.568.568a.355.355,0,0,0,.5,0l1.292-1.292a.355.355,0,0,0-.5-.5Z" transform="translate(-327.825 -368.451)"/>
    <path id="Path_8985" data-name="Path 8985" d="M416.478,295h-2.232a.355.355,0,1,0,0,.711h2.232a.355.355,0,0,0,0-.711Z" transform="translate(-384.339 -255.693)"/>
    <path id="Path_8986" data-name="Path 8986" d="M416.478,359h-2.232a.355.355,0,1,0,0,.711h2.232a.355.355,0,1,0,0-.711Z" transform="translate(-384.339 -316.445)"/>
    <path id="Path_8987" data-name="Path 8987" d="M416.478,423h-2.232a.355.355,0,1,0,0,.711h2.232a.355.355,0,0,0,0-.711Z" transform="translate(-384.339 -377.196)"/>
  </g>
</svg>
