<svg xmlns="http://www.w3.org/2000/svg" width="17.844" height="18.034" viewBox="0 0 17.844 18.034">
  <g id="Edit_Square" data-name="Edit Square" transform="translate(0.5 0.659)">
    <path id="Stroke_1" data-name="Stroke 1" d="M7.817,0H4.474C1.724,0,0,1.947,0,4.7v7.435c0,2.756,1.716,4.7,4.474,4.7h7.891c2.759,0,4.475-1.947,4.475-4.7v-3.6" transform="translate(0 0.035)" fill="none" stroke="#4d8a8b" stroke-linecap="round" stroke-linejoin="round" stroke-miterlimit="10" stroke-width="1"/>
    <path id="Stroke_3" data-name="Stroke 3" d="M.652,7.306,7.334.624a2.133,2.133,0,0,1,3.014,0l1.088,1.088a2.131,2.131,0,0,1,0,3.014L4.722,11.441a1.941,1.941,0,0,1-1.373.569H0L.084,8.63A1.941,1.941,0,0,1,.652,7.306Z" transform="translate(4.783)" fill="none" stroke="#4d8a8b" stroke-linecap="round" stroke-linejoin="round" stroke-miterlimit="10" stroke-width="1"/>
    <path id="Stroke_5" data-name="Stroke 5" d="M0,0,4.083,4.083" transform="translate(11.102 1.656)" fill="none" stroke="#4d8a8b" stroke-linecap="round" stroke-linejoin="round" stroke-miterlimit="10" stroke-width="1"/>
  </g>
</svg>
